M48
;Layer_Color=9474304
;FILE_FORMAT=4:4
METRIC,LZ
;TYPE=PLATED
T01F00S00C0.3000
T02F00S00C1.0200
T03F00S00C2.2000
%
T01
X-00394726Y00084828
X-00400483Y00098689
Y00112219
Y0012575
Y0013928
Y00152811
Y00166341
Y00179872
Y00193402
X-00335661Y00188102
X-00321989Y00178097
X-00312542Y00172741
X-00308978Y00162312
X-00315581Y00154587
X-00316461Y0014289
X-00295001Y0014567
X-00341304Y00142933
Y00129525
X-00356519
Y00142933
X-00335661Y00162726
X-00340291Y00079036
X-0032676
X-0031323
X-00299699
X-00286169
X-00353821
X-00367352
X-00380882
X-00272639
X-00259108
X-0025908Y0009144
X-0024555
X-00245578Y00079036
X-00232047
X-00232019Y0009144
X-00218489
X-00218517Y00079036
X-00204986
X-00191456
X-00177926
X-00164395
X-00150865
X-00138841Y00076349
X-00129821Y00070319
X-00123599Y0006049
X-00121222Y00049321
X-00121156Y00035762
Y00022231
X-00115432Y00010818
X-00099704Y00005028
X-00086173
X-00072643
X-00059113
X-00045582
X-00032052
X-00018521
X-00004939Y00004976
Y0001647
Y0003
Y00043531
Y00057061
Y00070591
Y00084122
Y00097652
Y00111183
Y00124713
Y00138244
Y00151774
Y00165304
Y00178835
Y00192365
X-00022707Y00138244
Y00124713
Y00111183
Y00097652
Y00084122
Y00070591
Y00057061
Y00043531
Y0003
Y0001647
X-00036238
Y0003
Y00043531
Y00138244
X-00122884Y00136275
Y00127176
Y00145374
X-00136655Y00143353
X-0014504
X-00155625Y00144851
X-00165691Y00149496
X-00165268Y00161608
X-00165347Y00172914
X-00165308Y00181746
X-00153968Y00190739
X-00137728Y00183
X-00143066Y00172535
X-00133061Y00160304
X-00160437Y00134704
X-00212047Y00151484
X-00240509Y00146133
X-00252403Y00161078
X-00232Y00178584
X-00236112Y0020066
X-00222581
X-00209051
Y0021419
Y00227721
X-00222581
Y0021419
X-00237078Y00222355
X-00231448Y00239636
X-0022454
X-00217026
X-00200562Y00239202
X-0020265Y0025074
X-00196828Y00264471
X-00206544Y00267942
X-00212439
X-00218334
X-00235828Y00265391
X-00234677Y0027676
X-0024915Y00273345
X-00268263Y00266803
X-00259269Y0025583
X-00260136Y0023665
X-00277453Y00227388
X-00279429Y0025583
X-00276378Y00321412
X-00262847
X-00249317
X-00235786
X-00222256
X-00221387Y00309422
X-00208726Y00309152
Y00321412
X-00195195
X-00191421Y0034829
X-00177891
X-00164361
X-0015083
X-00139078Y0035083
X-00129774Y00357002
X-00123341Y00366624
X-00121021Y00378074
X-00121087Y00391633
Y00405164
X-00114714Y00417184
X-00100855Y00422943
X-00087324
X-00073794
X-00060264
X-00046733
X-00033203
X-00019672
X-00004976Y00422419
X-00004939Y00408852
Y00395322
Y00381791
Y00368261
Y0035473
Y003412
Y00327669
Y00314139
Y00300609
Y00287078
Y00273548
Y00260017
Y00246487
Y00232957
Y00219426
Y00205896
X-00022707
X-00036238
Y00219426
X-00022707
Y0027685
X-00036238
Y00303911
X-00022707
Y00330971
X-00036238
Y00358032
X-00022707
X-00063299Y00246487
X-00094392Y00238635
X-00107923
X-00103658Y00229102
X-00099969Y00219752
X-00113499
X-00117188Y00229102
X-00126453Y00219569
X-00122764Y00210219
X-00109234
X-00118499Y00200687
X-00148405Y00224582
X-00144675Y00232636
X-0013436Y0023939
X-00134438Y00246506
X-00140115Y00258061
Y00265321
X-00134622Y002789
X-00140305Y00284823
X-00159037Y00283035
X-00160226Y00298423
X-00177802Y00282625
X-00197311Y00281996
X-00204952Y0034829
X-00218482
X-00232013
X-00245543
X-00259074
X-00272604
X-00263173Y0020066
X-00249642
X-00167617Y00234955
X-00161057Y00241755
X-0015399Y00247285
X-00090127Y00229102
X-00290953Y00238169
Y00244065
Y0024996
X-00305415Y00236999
X-00303093Y00225367
X-00308697Y0021345
X-00297445Y00207076
X-0028508Y00207454
X-00312542Y00196781
X-00321989Y00202138
X-0031646Y00233694
X-00335082Y00236329
X-00335525Y00225782
X-00335661Y00246875
Y00254869
X-00318325Y00262298
X-00318848Y00283866
X-00311553Y00283824
X-00301729Y00283799
X-00330027Y00283111
X-00336918Y00289639
X-00346053
Y00301639
X-00336918
X-00340256Y0034829
X-00326726
X-00313195
X-00299665
X-00286134
X-00353787
X-00367317
X-00380847
X-00394707Y00342532
X-00400483Y00328706
Y00315176
Y00301645
Y00288115
Y00274585
Y00261054
Y00247524
Y00233993
Y00220463
Y00206932
X-00361306Y00252123
T02
X-00074875Y00037558
X-00049475
Y00062958
X-00074875
Y00088358
X-00049475
Y00113758
X-00074875
Y00139158
X-00049475
Y00164558
X-00074875
X-0007527Y00265855
X-0004987
Y00291255
X-0007527
Y00316655
X-0004987
Y00342055
X-0007527
Y00367455
X-0004987
Y00392855
X-0007527
T03
X-00380847Y00098671
X-00150847
Y00328671
X-00380847
M30
