G04*
G04 #@! TF.GenerationSoftware,Altium Limited,Altium Designer,23.8.1 (32)*
G04*
G04 Layer_Physical_Order=3*
G04 Layer_Color=39423*
%FSLAX44Y44*%
%MOMM*%
G71*
G04*
G04 #@! TF.SameCoordinates,DF38465C-164B-46F8-8289-0D746A6B0DDA*
G04*
G04*
G04 #@! TF.FilePolarity,Positive*
G04*
G01*
G75*
%ADD20C,0.5080*%
%ADD21C,0.1016*%
%ADD25C,1.3700*%
%ADD27C,0.4570*%
G36*
X-17709Y403045D02*
Y360565D01*
X-18979Y360312D01*
X-19048Y360478D01*
X-20262Y361692D01*
X-21849Y362349D01*
X-23566D01*
X-25153Y361692D01*
X-26367Y360478D01*
X-27024Y358891D01*
Y357174D01*
X-26367Y355587D01*
X-25153Y354373D01*
X-23566Y353715D01*
X-21849D01*
X-20262Y354373D01*
X-19048Y355587D01*
X-18979Y355752D01*
X-17709Y355500D01*
Y333504D01*
X-18979Y333252D01*
X-19048Y333417D01*
X-20262Y334631D01*
X-21849Y335289D01*
X-23566D01*
X-25153Y334631D01*
X-26367Y333417D01*
X-27024Y331830D01*
Y330113D01*
X-26367Y328526D01*
X-25153Y327312D01*
X-23566Y326655D01*
X-21849D01*
X-20262Y327312D01*
X-19048Y328526D01*
X-18979Y328691D01*
X-17709Y328439D01*
Y306443D01*
X-18979Y306191D01*
X-19048Y306356D01*
X-20262Y307570D01*
X-21849Y308228D01*
X-23566D01*
X-25153Y307570D01*
X-26367Y306356D01*
X-27024Y304769D01*
Y303052D01*
X-26367Y301465D01*
X-25153Y300251D01*
X-23566Y299594D01*
X-21849D01*
X-20262Y300251D01*
X-19048Y301465D01*
X-18979Y301630D01*
X-17709Y301378D01*
Y279382D01*
X-18979Y279130D01*
X-19048Y279295D01*
X-20262Y280509D01*
X-21849Y281167D01*
X-23566D01*
X-25153Y280509D01*
X-26367Y279295D01*
X-27024Y277708D01*
Y275991D01*
X-26367Y274404D01*
X-25153Y273190D01*
X-23566Y272533D01*
X-21849D01*
X-20262Y273190D01*
X-19048Y274404D01*
X-18979Y274570D01*
X-17709Y274317D01*
Y221959D01*
X-18979Y221706D01*
X-19048Y221871D01*
X-20262Y223086D01*
X-21849Y223743D01*
X-23566D01*
X-25153Y223086D01*
X-26367Y221871D01*
X-27024Y220285D01*
Y218567D01*
X-26367Y216981D01*
X-25153Y215766D01*
X-23566Y215109D01*
X-21849D01*
X-20262Y215766D01*
X-19048Y216981D01*
X-18979Y217146D01*
X-17709Y216893D01*
Y208428D01*
X-18979Y208176D01*
X-19048Y208341D01*
X-20262Y209555D01*
X-21849Y210213D01*
X-23566D01*
X-25153Y209555D01*
X-26367Y208341D01*
X-27024Y206754D01*
Y205037D01*
X-26367Y203450D01*
X-25153Y202236D01*
X-23566Y201579D01*
X-21849D01*
X-20262Y202236D01*
X-19048Y203450D01*
X-18979Y203615D01*
X-17709Y203363D01*
Y140776D01*
X-18979Y140524D01*
X-19048Y140689D01*
X-20262Y141903D01*
X-21849Y142561D01*
X-23566D01*
X-25153Y141903D01*
X-26367Y140689D01*
X-27024Y139102D01*
Y137385D01*
X-26367Y135798D01*
X-25153Y134584D01*
X-23566Y133926D01*
X-21849D01*
X-20262Y134584D01*
X-19048Y135798D01*
X-18979Y135963D01*
X-17709Y135711D01*
Y127246D01*
X-18979Y126993D01*
X-19048Y127158D01*
X-20262Y128373D01*
X-21849Y129030D01*
X-23566D01*
X-25153Y128373D01*
X-26367Y127158D01*
X-27024Y125572D01*
Y123854D01*
X-26367Y122268D01*
X-25153Y121053D01*
X-23566Y120396D01*
X-21849D01*
X-20262Y121053D01*
X-19048Y122268D01*
X-18979Y122433D01*
X-17709Y122180D01*
Y113715D01*
X-18979Y113463D01*
X-19048Y113628D01*
X-20262Y114842D01*
X-21849Y115500D01*
X-23566D01*
X-25153Y114842D01*
X-26367Y113628D01*
X-27024Y112041D01*
Y110324D01*
X-26367Y108737D01*
X-25153Y107523D01*
X-23566Y106866D01*
X-21849D01*
X-20262Y107523D01*
X-19048Y108737D01*
X-18979Y108903D01*
X-17709Y108650D01*
Y100185D01*
X-18979Y99932D01*
X-19048Y100098D01*
X-20262Y101312D01*
X-21849Y101969D01*
X-23566D01*
X-25153Y101312D01*
X-26367Y100098D01*
X-27024Y98511D01*
Y96793D01*
X-26367Y95207D01*
X-25153Y93992D01*
X-23566Y93335D01*
X-21849D01*
X-20262Y93992D01*
X-19048Y95207D01*
X-18979Y95372D01*
X-17709Y95119D01*
Y86655D01*
X-18979Y86402D01*
X-19048Y86567D01*
X-20262Y87781D01*
X-21849Y88439D01*
X-23566D01*
X-25153Y87781D01*
X-26367Y86567D01*
X-27024Y84980D01*
Y83263D01*
X-26367Y81676D01*
X-25153Y80462D01*
X-23566Y79805D01*
X-21849D01*
X-20262Y80462D01*
X-19048Y81676D01*
X-18979Y81842D01*
X-17709Y81589D01*
Y73124D01*
X-18979Y72871D01*
X-19048Y73037D01*
X-20262Y74251D01*
X-21849Y74908D01*
X-23566D01*
X-25153Y74251D01*
X-26367Y73037D01*
X-27024Y71450D01*
Y69733D01*
X-26367Y68146D01*
X-25153Y66932D01*
X-23566Y66274D01*
X-21849D01*
X-20262Y66932D01*
X-19048Y68146D01*
X-18979Y68311D01*
X-17709Y68059D01*
Y59594D01*
X-18979Y59341D01*
X-19048Y59506D01*
X-20262Y60721D01*
X-21849Y61378D01*
X-23566D01*
X-25153Y60721D01*
X-26367Y59506D01*
X-27024Y57920D01*
Y56202D01*
X-26367Y54616D01*
X-25153Y53401D01*
X-23566Y52744D01*
X-21849D01*
X-20262Y53401D01*
X-19048Y54616D01*
X-18979Y54781D01*
X-17709Y54528D01*
Y46063D01*
X-18979Y45811D01*
X-19048Y45976D01*
X-20262Y47190D01*
X-21849Y47847D01*
X-23566D01*
X-25153Y47190D01*
X-26367Y45976D01*
X-27024Y44389D01*
Y42672D01*
X-26367Y41085D01*
X-25153Y39871D01*
X-23566Y39214D01*
X-21849D01*
X-20262Y39871D01*
X-19048Y41085D01*
X-18979Y41250D01*
X-17709Y40998D01*
Y32533D01*
X-18979Y32280D01*
X-19048Y32445D01*
X-20262Y33660D01*
X-21849Y34317D01*
X-23566D01*
X-25153Y33660D01*
X-26367Y32445D01*
X-27024Y30859D01*
Y29141D01*
X-26367Y27555D01*
X-25153Y26340D01*
X-23566Y25683D01*
X-21849D01*
X-20262Y26340D01*
X-19048Y27555D01*
X-18979Y27720D01*
X-17709Y27467D01*
Y19002D01*
X-18979Y18750D01*
X-19048Y18915D01*
X-20262Y20129D01*
X-21849Y20787D01*
X-23566D01*
X-25153Y20129D01*
X-26367Y18915D01*
X-27024Y17328D01*
Y15611D01*
X-26367Y14024D01*
X-25270Y12927D01*
X-25341Y12382D01*
X-25659Y11657D01*
X-33286D01*
X-33605Y12382D01*
X-33675Y12927D01*
X-32578Y14024D01*
X-31921Y15611D01*
Y17328D01*
X-32578Y18915D01*
X-33792Y20129D01*
X-35379Y20787D01*
X-37097D01*
X-38683Y20129D01*
X-39898Y18915D01*
X-40555Y17328D01*
Y15611D01*
X-39898Y14024D01*
X-38800Y12927D01*
X-38871Y12382D01*
X-39190Y11657D01*
X-107889Y11657D01*
X-114188Y17956D01*
Y61783D01*
X-136161Y83757D01*
X-140324Y83757D01*
X-140693Y84972D01*
X-139990Y85442D01*
X-137618Y87814D01*
X-135754Y90604D01*
X-134470Y93703D01*
X-133815Y96994D01*
Y100349D01*
X-134470Y103639D01*
X-135754Y106739D01*
X-137618Y109529D01*
X-139990Y111901D01*
X-142780Y113765D01*
X-145879Y115049D01*
X-149170Y115703D01*
X-152525D01*
X-155815Y115049D01*
X-158915Y113765D01*
X-161705Y111901D01*
X-164077Y109529D01*
X-165941Y106739D01*
X-167225Y103639D01*
X-167879Y100349D01*
Y96994D01*
X-167225Y93703D01*
X-165941Y90604D01*
X-164077Y87814D01*
X-161705Y85442D01*
X-161007Y84976D01*
X-161375Y83760D01*
X-255050Y83774D01*
X-257375Y86099D01*
X-257077Y87597D01*
X-256635Y87780D01*
X-255420Y88995D01*
X-254763Y90581D01*
Y92299D01*
X-255420Y93885D01*
X-256635Y95100D01*
X-258221Y95757D01*
X-259195D01*
X-260378Y96723D01*
X-260465Y96914D01*
X-260465Y178086D01*
Y197263D01*
X-259513Y198214D01*
X-258856Y199801D01*
Y201519D01*
X-259513Y203105D01*
X-260465Y204057D01*
Y232333D01*
X-259277D01*
X-257691Y232990D01*
X-256476Y234205D01*
X-255819Y235791D01*
Y237509D01*
X-256476Y239095D01*
X-257691Y240310D01*
X-259277Y240967D01*
X-260465D01*
Y251288D01*
X-260128Y251513D01*
X-258410D01*
X-256824Y252170D01*
X-255609Y253385D01*
X-254952Y254971D01*
Y256689D01*
X-255609Y258276D01*
X-256824Y259490D01*
X-258410Y260147D01*
X-259195D01*
X-260465Y261278D01*
X-260465Y317726D01*
X-260402Y317752D01*
X-259188Y318967D01*
X-258530Y320554D01*
Y322271D01*
X-259188Y323858D01*
X-260402Y325072D01*
X-260465Y325098D01*
Y336317D01*
X-254263Y342519D01*
X-182271Y342519D01*
X-177341Y337588D01*
Y325683D01*
X-160505Y308847D01*
X-137133D01*
X-125050Y320929D01*
Y347756D01*
X-113527Y359278D01*
Y404667D01*
X-107052Y411143D01*
X-25807D01*
X-17709Y403045D01*
D02*
G37*
G36*
X-261437Y337289D02*
X-261839Y336317D01*
X-261839Y336317D01*
Y325829D01*
X-261989Y325729D01*
X-263706D01*
X-265293Y325072D01*
X-266507Y323858D01*
X-267164Y322271D01*
Y320554D01*
X-266507Y318967D01*
X-265293Y317752D01*
X-263706Y317095D01*
X-263109D01*
X-261839Y315887D01*
X-261839Y278571D01*
X-266722D01*
X-267694Y279543D01*
X-268666Y279946D01*
X-268666Y279946D01*
X-289222D01*
X-290194Y279543D01*
X-290596Y278571D01*
Y254277D01*
X-291812D01*
X-293398Y253620D01*
X-294613Y252405D01*
X-295270Y250819D01*
Y249101D01*
X-294613Y247514D01*
X-294110Y247012D01*
X-294613Y246510D01*
X-295270Y244923D01*
Y243206D01*
X-294613Y241619D01*
X-294110Y241117D01*
X-294613Y240615D01*
X-295270Y239028D01*
Y237311D01*
X-294613Y235724D01*
X-293398Y234510D01*
X-291812Y233852D01*
X-290892D01*
X-289622Y232778D01*
X-289622Y218941D01*
X-289219Y217969D01*
X-288247Y217566D01*
X-266129D01*
X-265158Y217969D01*
X-265158Y217969D01*
X-264202Y218924D01*
X-261839Y216561D01*
Y205294D01*
X-262314Y204977D01*
X-264031D01*
X-265618Y204320D01*
X-266832Y203105D01*
X-267490Y201519D01*
Y199801D01*
X-266832Y198214D01*
X-265618Y197000D01*
X-264031Y196343D01*
X-262314D01*
X-261839Y196026D01*
Y178086D01*
X-261839Y96914D01*
X-261728Y96644D01*
X-261745Y96584D01*
X-261723Y96542D01*
X-261716Y96345D01*
X-261653Y95932D01*
X-261740Y95119D01*
X-261843Y94839D01*
X-261996Y94629D01*
X-262740Y93885D01*
X-263397Y92299D01*
Y90581D01*
X-262935Y89466D01*
X-268730Y83671D01*
X-370452D01*
X-370821Y84887D01*
X-369990Y85442D01*
X-367618Y87814D01*
X-365754Y90604D01*
X-364470Y93703D01*
X-363815Y96994D01*
Y100349D01*
X-364470Y103639D01*
X-365754Y106739D01*
X-367618Y109529D01*
X-369990Y111901D01*
X-372780Y113765D01*
X-375879Y115049D01*
X-379170Y115703D01*
X-382525D01*
X-385815Y115049D01*
X-388915Y113765D01*
X-391705Y111901D01*
X-392922Y110684D01*
X-394192Y111210D01*
Y129525D01*
X-394192Y316133D01*
X-392922Y316659D01*
X-391705Y315442D01*
X-388915Y313578D01*
X-385815Y312294D01*
X-382525Y311639D01*
X-379170D01*
X-375879Y312294D01*
X-372780Y313578D01*
X-369990Y315442D01*
X-367618Y317814D01*
X-365754Y320604D01*
X-364470Y323703D01*
X-363815Y326994D01*
Y330349D01*
X-364470Y333639D01*
X-365754Y336739D01*
X-367618Y339529D01*
X-369346Y341257D01*
X-368820Y342527D01*
X-266675D01*
X-261437Y337289D01*
D02*
G37*
G36*
X-264220Y274125D02*
Y270661D01*
X-265490Y270135D01*
X-265818Y270463D01*
X-267405Y271120D01*
X-269122D01*
X-270709Y270463D01*
X-271923Y269249D01*
X-272580Y267662D01*
Y265945D01*
X-271923Y264358D01*
X-270709Y263144D01*
X-269122Y262486D01*
X-267405D01*
X-265818Y263144D01*
X-265490Y263472D01*
X-264220Y262946D01*
Y238072D01*
X-264453Y237509D01*
Y235791D01*
X-264220Y235228D01*
Y220851D01*
X-266129Y218941D01*
X-288247D01*
X-288247Y234770D01*
X-287293Y235724D01*
X-286636Y237311D01*
Y239028D01*
X-287293Y240615D01*
X-287795Y241117D01*
X-287293Y241619D01*
X-286636Y243206D01*
Y244923D01*
X-287293Y246510D01*
X-287795Y247012D01*
X-287293Y247514D01*
X-286636Y249101D01*
Y250819D01*
X-287293Y252405D01*
X-288507Y253620D01*
X-289222Y253915D01*
Y278571D01*
X-268666D01*
X-264220Y274125D01*
D02*
G37*
%LPC*%
G36*
X-48700Y376337D02*
X-51039D01*
X-53298Y375732D01*
X-55324Y374562D01*
X-56977Y372909D01*
X-58147Y370883D01*
X-58752Y368624D01*
Y366286D01*
X-58147Y364027D01*
X-56977Y362001D01*
X-55324Y360348D01*
X-53298Y359178D01*
X-51039Y358573D01*
X-48700D01*
X-46441Y359178D01*
X-44416Y360348D01*
X-42762Y362001D01*
X-41593Y364027D01*
X-40988Y366286D01*
Y368624D01*
X-41593Y370883D01*
X-42762Y372909D01*
X-44416Y374562D01*
X-46441Y375732D01*
X-48700Y376337D01*
D02*
G37*
G36*
X-74100D02*
X-76439D01*
X-78698Y375732D01*
X-80723Y374562D01*
X-82377Y372909D01*
X-83546Y370883D01*
X-84152Y368624D01*
Y366286D01*
X-83546Y364027D01*
X-82377Y362001D01*
X-80723Y360348D01*
X-78698Y359178D01*
X-76439Y358573D01*
X-74100D01*
X-71842Y359178D01*
X-69816Y360348D01*
X-68162Y362001D01*
X-66993Y364027D01*
X-66388Y366286D01*
Y368624D01*
X-66993Y370883D01*
X-68162Y372909D01*
X-69816Y374562D01*
X-71842Y375732D01*
X-74100Y376337D01*
D02*
G37*
G36*
X-35379Y362349D02*
X-37097D01*
X-38683Y361692D01*
X-39898Y360478D01*
X-40555Y358891D01*
Y357174D01*
X-39898Y355587D01*
X-38683Y354373D01*
X-37097Y353715D01*
X-35379D01*
X-33792Y354373D01*
X-32578Y355587D01*
X-31921Y357174D01*
Y358891D01*
X-32578Y360478D01*
X-33792Y361692D01*
X-35379Y362349D01*
D02*
G37*
G36*
X-48700Y350937D02*
X-51039D01*
X-53298Y350332D01*
X-55324Y349162D01*
X-56977Y347509D01*
X-58147Y345483D01*
X-58752Y343224D01*
Y340886D01*
X-58147Y338627D01*
X-56977Y336601D01*
X-55324Y334948D01*
X-53298Y333778D01*
X-51039Y333173D01*
X-48700D01*
X-46441Y333778D01*
X-44416Y334948D01*
X-42762Y336601D01*
X-41593Y338627D01*
X-40988Y340886D01*
Y343224D01*
X-41593Y345483D01*
X-42762Y347509D01*
X-44416Y349162D01*
X-46441Y350332D01*
X-48700Y350937D01*
D02*
G37*
G36*
X-74100D02*
X-76439D01*
X-78698Y350332D01*
X-80723Y349162D01*
X-82377Y347509D01*
X-83546Y345483D01*
X-84152Y343224D01*
Y340886D01*
X-83546Y338627D01*
X-82377Y336601D01*
X-80723Y334948D01*
X-78698Y333778D01*
X-76439Y333173D01*
X-74100D01*
X-71842Y333778D01*
X-69816Y334948D01*
X-68162Y336601D01*
X-66993Y338627D01*
X-66388Y340886D01*
Y343224D01*
X-66993Y345483D01*
X-68162Y347509D01*
X-69816Y349162D01*
X-71842Y350332D01*
X-74100Y350937D01*
D02*
G37*
G36*
X-35379Y335289D02*
X-37097D01*
X-38683Y334631D01*
X-39898Y333417D01*
X-40555Y331830D01*
Y330113D01*
X-39898Y328526D01*
X-38683Y327312D01*
X-37097Y326655D01*
X-35379D01*
X-33792Y327312D01*
X-32578Y328526D01*
X-31921Y330113D01*
Y331830D01*
X-32578Y333417D01*
X-33792Y334631D01*
X-35379Y335289D01*
D02*
G37*
G36*
X-194336Y325729D02*
X-196054D01*
X-197641Y325072D01*
X-198855Y323858D01*
X-199512Y322271D01*
Y320554D01*
X-198855Y318967D01*
X-197641Y317752D01*
X-196054Y317095D01*
X-194336D01*
X-192750Y317752D01*
X-191535Y318967D01*
X-190878Y320554D01*
Y322271D01*
X-191535Y323858D01*
X-192750Y325072D01*
X-194336Y325729D01*
D02*
G37*
G36*
X-207867D02*
X-209584D01*
X-211171Y325072D01*
X-212385Y323858D01*
X-213043Y322271D01*
Y320554D01*
X-212385Y318967D01*
X-211171Y317752D01*
X-209584Y317095D01*
X-207867D01*
X-206280Y317752D01*
X-205066Y318967D01*
X-204409Y320554D01*
Y322271D01*
X-205066Y323858D01*
X-206280Y325072D01*
X-207867Y325729D01*
D02*
G37*
G36*
X-221397D02*
X-223115D01*
X-224701Y325072D01*
X-225916Y323858D01*
X-226573Y322271D01*
Y320554D01*
X-225916Y318967D01*
X-224701Y317752D01*
X-223115Y317095D01*
X-221397D01*
X-219811Y317752D01*
X-218596Y318967D01*
X-217939Y320554D01*
Y322271D01*
X-218596Y323858D01*
X-219811Y325072D01*
X-221397Y325729D01*
D02*
G37*
G36*
X-234928D02*
X-236645D01*
X-238232Y325072D01*
X-239446Y323858D01*
X-240103Y322271D01*
Y320554D01*
X-239446Y318967D01*
X-238232Y317752D01*
X-236645Y317095D01*
X-234928D01*
X-233341Y317752D01*
X-232127Y318967D01*
X-231469Y320554D01*
Y322271D01*
X-232127Y323858D01*
X-233341Y325072D01*
X-234928Y325729D01*
D02*
G37*
G36*
X-248458D02*
X-250176D01*
X-251762Y325072D01*
X-252977Y323858D01*
X-253634Y322271D01*
Y320554D01*
X-252977Y318967D01*
X-251762Y317752D01*
X-250176Y317095D01*
X-248458D01*
X-246871Y317752D01*
X-245657Y318967D01*
X-245000Y320554D01*
Y322271D01*
X-245657Y323858D01*
X-246871Y325072D01*
X-248458Y325729D01*
D02*
G37*
G36*
X-48700Y325537D02*
X-51039D01*
X-53298Y324932D01*
X-55324Y323762D01*
X-56977Y322109D01*
X-58147Y320083D01*
X-58752Y317824D01*
Y315486D01*
X-58147Y313227D01*
X-56977Y311201D01*
X-55324Y309548D01*
X-53298Y308378D01*
X-51039Y307773D01*
X-48700D01*
X-46441Y308378D01*
X-44416Y309548D01*
X-42762Y311201D01*
X-41593Y313227D01*
X-40988Y315486D01*
Y317824D01*
X-41593Y320083D01*
X-42762Y322109D01*
X-44416Y323762D01*
X-46441Y324932D01*
X-48700Y325537D01*
D02*
G37*
G36*
X-74100D02*
X-76439D01*
X-78698Y324932D01*
X-80723Y323762D01*
X-82377Y322109D01*
X-83546Y320083D01*
X-84152Y317824D01*
Y315486D01*
X-83546Y313227D01*
X-82377Y311201D01*
X-80723Y309548D01*
X-78698Y308378D01*
X-76439Y307773D01*
X-74100D01*
X-71842Y308378D01*
X-69816Y309548D01*
X-68162Y311201D01*
X-66993Y313227D01*
X-66388Y315486D01*
Y317824D01*
X-66993Y320083D01*
X-68162Y322109D01*
X-69816Y323762D01*
X-71842Y324932D01*
X-74100Y325537D01*
D02*
G37*
G36*
X-220528Y313739D02*
X-222246D01*
X-223832Y313082D01*
X-225047Y311867D01*
X-225704Y310281D01*
Y308563D01*
X-225047Y306977D01*
X-223832Y305762D01*
X-222246Y305105D01*
X-220528D01*
X-218941Y305762D01*
X-217727Y306977D01*
X-217070Y308563D01*
Y310281D01*
X-217727Y311867D01*
X-218941Y313082D01*
X-220528Y313739D01*
D02*
G37*
G36*
X-207867Y313469D02*
X-209584D01*
X-211171Y312812D01*
X-212385Y311597D01*
X-213043Y310011D01*
Y308293D01*
X-212385Y306706D01*
X-211171Y305492D01*
X-209584Y304835D01*
X-207867D01*
X-206280Y305492D01*
X-205066Y306706D01*
X-204409Y308293D01*
Y310011D01*
X-205066Y311597D01*
X-206280Y312812D01*
X-207867Y313469D01*
D02*
G37*
G36*
X-35379Y308228D02*
X-37097D01*
X-38683Y307570D01*
X-39898Y306356D01*
X-40555Y304769D01*
Y303052D01*
X-39898Y301465D01*
X-38683Y300251D01*
X-37097Y299594D01*
X-35379D01*
X-33792Y300251D01*
X-32578Y301465D01*
X-31921Y303052D01*
Y304769D01*
X-32578Y306356D01*
X-33792Y307570D01*
X-35379Y308228D01*
D02*
G37*
G36*
X-159368Y302740D02*
X-161085D01*
X-162672Y302083D01*
X-163886Y300869D01*
X-164543Y299282D01*
Y297565D01*
X-163886Y295978D01*
X-162672Y294764D01*
X-161085Y294106D01*
X-159368D01*
X-157781Y294764D01*
X-156567Y295978D01*
X-155910Y297565D01*
Y299282D01*
X-156567Y300869D01*
X-157781Y302083D01*
X-159368Y302740D01*
D02*
G37*
G36*
X-48700Y300137D02*
X-51039D01*
X-53298Y299532D01*
X-55324Y298362D01*
X-56977Y296709D01*
X-58147Y294683D01*
X-58752Y292424D01*
Y290086D01*
X-58147Y287827D01*
X-56977Y285801D01*
X-55324Y284147D01*
X-53298Y282978D01*
X-51039Y282373D01*
X-48700D01*
X-46441Y282978D01*
X-44416Y284147D01*
X-42762Y285801D01*
X-41593Y287827D01*
X-40988Y290086D01*
Y292424D01*
X-41593Y294683D01*
X-42762Y296709D01*
X-44416Y298362D01*
X-46441Y299532D01*
X-48700Y300137D01*
D02*
G37*
G36*
X-74100D02*
X-76439D01*
X-78698Y299532D01*
X-80723Y298362D01*
X-82377Y296709D01*
X-83546Y294683D01*
X-84152Y292424D01*
Y290086D01*
X-83546Y287827D01*
X-82377Y285801D01*
X-80723Y284147D01*
X-78698Y282978D01*
X-76439Y282373D01*
X-74100D01*
X-71842Y282978D01*
X-69816Y284147D01*
X-68162Y285801D01*
X-66993Y287827D01*
X-66388Y290086D01*
Y292424D01*
X-66993Y294683D01*
X-68162Y296709D01*
X-69816Y298362D01*
X-71842Y299532D01*
X-74100Y300137D01*
D02*
G37*
G36*
X-158178Y287352D02*
X-159895D01*
X-161482Y286695D01*
X-162696Y285480D01*
X-163354Y283894D01*
Y282176D01*
X-162696Y280589D01*
X-161482Y279375D01*
X-159895Y278718D01*
X-158178D01*
X-156591Y279375D01*
X-155377Y280589D01*
X-154720Y282176D01*
Y283894D01*
X-155377Y285480D01*
X-156591Y286695D01*
X-158178Y287352D01*
D02*
G37*
G36*
X-176943Y286942D02*
X-178661D01*
X-180248Y286285D01*
X-181462Y285071D01*
X-182119Y283484D01*
Y281767D01*
X-181462Y280180D01*
X-180248Y278966D01*
X-178661Y278308D01*
X-176943D01*
X-175357Y278966D01*
X-174142Y280180D01*
X-173485Y281767D01*
Y283484D01*
X-174142Y285071D01*
X-175357Y286285D01*
X-176943Y286942D01*
D02*
G37*
G36*
X-196453Y286313D02*
X-198170D01*
X-199757Y285655D01*
X-200971Y284441D01*
X-201628Y282854D01*
Y281137D01*
X-200971Y279550D01*
X-199757Y278336D01*
X-198170Y277679D01*
X-196453D01*
X-194866Y278336D01*
X-193652Y279550D01*
X-192994Y281137D01*
Y282854D01*
X-193652Y284441D01*
X-194866Y285655D01*
X-196453Y286313D01*
D02*
G37*
G36*
X-139446Y289140D02*
X-141163D01*
X-142750Y288483D01*
X-143965Y287269D01*
X-144622Y285682D01*
Y283965D01*
X-143965Y282378D01*
X-142750Y281164D01*
X-141163Y280506D01*
X-140004D01*
X-139201Y279942D01*
X-138940Y279342D01*
Y278041D01*
X-138282Y276455D01*
X-137068Y275240D01*
X-135481Y274583D01*
X-133764D01*
X-132177Y275240D01*
X-130963Y276455D01*
X-130306Y278041D01*
Y279759D01*
X-130963Y281345D01*
X-132177Y282560D01*
X-133764Y283217D01*
X-134923D01*
X-135727Y283781D01*
X-135988Y284382D01*
Y285682D01*
X-136645Y287269D01*
X-137859Y288483D01*
X-139446Y289140D01*
D02*
G37*
G36*
X-35379Y281167D02*
X-37097D01*
X-38683Y280509D01*
X-39898Y279295D01*
X-40555Y277708D01*
Y275991D01*
X-39898Y274404D01*
X-38683Y273190D01*
X-37097Y272533D01*
X-35379D01*
X-33792Y273190D01*
X-32578Y274404D01*
X-31921Y275991D01*
Y277708D01*
X-32578Y279295D01*
X-33792Y280509D01*
X-35379Y281167D01*
D02*
G37*
G36*
X-205685Y272258D02*
X-207403D01*
X-208989Y271601D01*
X-209492Y271099D01*
X-209994Y271601D01*
X-211581Y272258D01*
X-213298D01*
X-214885Y271601D01*
X-215387Y271099D01*
X-215889Y271601D01*
X-217476Y272258D01*
X-219193D01*
X-220780Y271601D01*
X-221994Y270387D01*
X-222651Y268800D01*
Y267083D01*
X-221994Y265496D01*
X-220780Y264282D01*
X-219193Y263625D01*
X-217476D01*
X-215889Y264282D01*
X-215387Y264784D01*
X-214885Y264282D01*
X-213298Y263625D01*
X-211581D01*
X-209994Y264282D01*
X-209492Y264784D01*
X-208989Y264282D01*
X-207403Y263625D01*
X-205685D01*
X-204099Y264282D01*
X-202884Y265496D01*
X-202227Y267083D01*
Y268800D01*
X-202884Y270387D01*
X-204099Y271601D01*
X-205685Y272258D01*
D02*
G37*
G36*
X-248292Y277661D02*
X-250009D01*
X-251596Y277004D01*
X-252810Y275790D01*
X-253467Y274203D01*
Y272486D01*
X-252810Y270899D01*
X-251596Y269685D01*
X-250009Y269028D01*
X-248292D01*
X-246705Y269685D01*
X-245490Y270899D01*
X-244833Y272486D01*
Y274203D01*
X-245490Y275790D01*
X-246705Y277004D01*
X-248292Y277661D01*
D02*
G37*
G36*
X-195969Y268788D02*
X-197686D01*
X-199273Y268131D01*
X-200487Y266917D01*
X-201145Y265330D01*
Y263613D01*
X-200487Y262026D01*
X-199273Y260812D01*
X-197686Y260154D01*
X-195969D01*
X-194382Y260812D01*
X-193168Y262026D01*
X-192511Y263613D01*
Y265330D01*
X-193168Y266917D01*
X-194382Y268131D01*
X-195969Y268788D01*
D02*
G37*
G36*
X-48700Y274737D02*
X-51039D01*
X-53298Y274132D01*
X-55324Y272962D01*
X-56977Y271309D01*
X-58147Y269283D01*
X-58752Y267024D01*
Y264686D01*
X-58147Y262427D01*
X-56977Y260401D01*
X-55324Y258748D01*
X-53298Y257578D01*
X-51039Y256973D01*
X-48700D01*
X-46441Y257578D01*
X-44416Y258748D01*
X-42762Y260401D01*
X-41593Y262427D01*
X-40988Y264686D01*
Y267024D01*
X-41593Y269283D01*
X-42762Y271309D01*
X-44416Y272962D01*
X-46441Y274132D01*
X-48700Y274737D01*
D02*
G37*
G36*
X-74100D02*
X-76439D01*
X-78698Y274132D01*
X-80723Y272962D01*
X-82377Y271309D01*
X-83546Y269283D01*
X-84152Y267024D01*
Y264686D01*
X-83546Y262427D01*
X-82377Y260401D01*
X-80723Y258748D01*
X-78698Y257578D01*
X-76439Y256973D01*
X-74100D01*
X-71842Y257578D01*
X-69816Y258748D01*
X-68162Y260401D01*
X-66993Y262427D01*
X-66388Y264686D01*
Y267024D01*
X-66993Y269283D01*
X-68162Y271309D01*
X-69816Y272962D01*
X-71842Y274132D01*
X-74100Y274737D01*
D02*
G37*
G36*
X-139257Y269638D02*
X-140974D01*
X-142561Y268981D01*
X-143775Y267767D01*
X-144432Y266180D01*
Y264463D01*
X-143775Y262876D01*
X-142591Y261691D01*
X-143775Y260507D01*
X-144432Y258920D01*
Y257203D01*
X-143775Y255616D01*
X-142561Y254401D01*
X-140974Y253744D01*
X-139257D01*
X-137670Y254401D01*
X-136456Y255616D01*
X-135799Y257203D01*
Y258920D01*
X-136456Y260507D01*
X-137640Y261691D01*
X-136456Y262876D01*
X-135799Y264463D01*
Y266180D01*
X-136456Y267767D01*
X-137670Y268981D01*
X-139257Y269638D01*
D02*
G37*
G36*
X-62440Y250804D02*
X-64157D01*
X-65744Y250147D01*
X-66958Y248932D01*
X-67616Y247346D01*
Y245628D01*
X-66958Y244042D01*
X-65744Y242827D01*
X-64157Y242170D01*
X-62440D01*
X-60853Y242827D01*
X-59639Y244042D01*
X-58982Y245628D01*
Y247346D01*
X-59639Y248932D01*
X-60853Y250147D01*
X-62440Y250804D01*
D02*
G37*
G36*
X-216168Y243953D02*
X-217885D01*
X-219472Y243296D01*
X-219953Y242815D01*
X-220783Y242158D01*
X-221613Y242815D01*
X-222094Y243296D01*
X-223681Y243953D01*
X-225398D01*
X-226985Y243296D01*
X-227994Y242287D01*
X-229003Y243296D01*
X-230590Y243953D01*
X-232307D01*
X-233894Y243296D01*
X-235108Y242082D01*
X-235765Y240495D01*
Y238778D01*
X-235108Y237191D01*
X-233894Y235977D01*
X-232307Y235319D01*
X-230590D01*
X-229003Y235977D01*
X-227994Y236986D01*
X-226985Y235977D01*
X-225398Y235319D01*
X-223681D01*
X-222094Y235977D01*
X-221613Y236458D01*
X-220783Y237114D01*
X-219953Y236458D01*
X-219472Y235977D01*
X-217885Y235319D01*
X-216168D01*
X-214581Y235977D01*
X-213367Y237191D01*
X-212709Y238778D01*
Y240495D01*
X-213367Y242082D01*
X-214581Y243296D01*
X-216168Y243953D01*
D02*
G37*
G36*
X-93534Y242952D02*
X-95251D01*
X-96838Y242294D01*
X-98052Y241080D01*
X-98709Y239493D01*
Y237776D01*
X-98052Y236189D01*
X-96838Y234975D01*
X-95251Y234318D01*
X-93534D01*
X-91947Y234975D01*
X-90733Y236189D01*
X-90075Y237776D01*
Y239493D01*
X-90733Y241080D01*
X-91947Y242294D01*
X-93534Y242952D01*
D02*
G37*
G36*
X-107064D02*
X-108781D01*
X-110368Y242294D01*
X-111582Y241080D01*
X-112240Y239493D01*
Y237776D01*
X-111582Y236189D01*
X-110368Y234975D01*
X-108781Y234318D01*
X-107064D01*
X-105477Y234975D01*
X-104263Y236189D01*
X-103606Y237776D01*
Y239493D01*
X-104263Y241080D01*
X-105477Y242294D01*
X-107064Y242952D01*
D02*
G37*
G36*
X-89269Y233419D02*
X-90986D01*
X-92572Y232762D01*
X-93787Y231547D01*
X-94444Y229961D01*
Y228243D01*
X-93787Y226657D01*
X-92572Y225442D01*
X-90986Y224785D01*
X-89269D01*
X-87682Y225442D01*
X-86467Y226657D01*
X-85810Y228243D01*
Y229961D01*
X-86467Y231547D01*
X-87682Y232762D01*
X-89269Y233419D01*
D02*
G37*
G36*
X-102799D02*
X-104516D01*
X-106103Y232762D01*
X-107317Y231547D01*
X-107975Y229961D01*
Y228243D01*
X-107317Y226657D01*
X-106103Y225442D01*
X-104516Y224785D01*
X-102799D01*
X-101212Y225442D01*
X-99998Y226657D01*
X-99341Y228243D01*
Y229961D01*
X-99998Y231547D01*
X-101212Y232762D01*
X-102799Y233419D01*
D02*
G37*
G36*
X-116329D02*
X-118047D01*
X-119633Y232762D01*
X-120848Y231547D01*
X-121505Y229961D01*
Y228243D01*
X-120848Y226657D01*
X-119633Y225442D01*
X-118047Y224785D01*
X-116329D01*
X-114743Y225442D01*
X-113528Y226657D01*
X-112871Y228243D01*
Y229961D01*
X-113528Y231547D01*
X-114743Y232762D01*
X-116329Y233419D01*
D02*
G37*
G36*
X-208192Y232038D02*
X-209910D01*
X-211496Y231381D01*
X-212711Y230166D01*
X-213368Y228579D01*
Y226862D01*
X-212711Y225275D01*
X-211496Y224061D01*
X-209910Y223404D01*
X-208192D01*
X-206606Y224061D01*
X-205391Y225275D01*
X-204734Y226862D01*
Y228579D01*
X-205391Y230166D01*
X-206606Y231381D01*
X-208192Y232038D01*
D02*
G37*
G36*
X-221723D02*
X-223440D01*
X-225027Y231381D01*
X-226241Y230166D01*
X-226898Y228579D01*
Y226862D01*
X-226241Y225275D01*
X-225027Y224061D01*
X-223440Y223404D01*
X-221723D01*
X-220136Y224061D01*
X-218922Y225275D01*
X-218264Y226862D01*
Y228579D01*
X-218922Y230166D01*
X-220136Y231381D01*
X-221723Y232038D01*
D02*
G37*
G36*
X-99110Y224069D02*
X-100828D01*
X-102414Y223412D01*
X-103629Y222197D01*
X-104286Y220611D01*
Y218894D01*
X-103629Y217307D01*
X-102414Y216092D01*
X-100828Y215435D01*
X-99110D01*
X-97523Y216092D01*
X-96309Y217307D01*
X-95652Y218894D01*
Y220611D01*
X-96309Y222197D01*
X-97523Y223412D01*
X-99110Y224069D01*
D02*
G37*
G36*
X-112640D02*
X-114358D01*
X-115945Y223412D01*
X-117159Y222197D01*
X-117816Y220611D01*
Y218894D01*
X-117159Y217307D01*
X-115945Y216092D01*
X-114358Y215435D01*
X-112640D01*
X-111054Y216092D01*
X-109839Y217307D01*
X-109182Y218894D01*
Y220611D01*
X-109839Y222197D01*
X-111054Y223412D01*
X-112640Y224069D01*
D02*
G37*
G36*
X-35379Y223743D02*
X-37097D01*
X-38683Y223086D01*
X-39898Y221871D01*
X-40555Y220285D01*
Y218567D01*
X-39898Y216981D01*
X-38683Y215766D01*
X-37097Y215109D01*
X-35379D01*
X-33792Y215766D01*
X-32578Y216981D01*
X-31921Y218567D01*
Y220285D01*
X-32578Y221871D01*
X-33792Y223086D01*
X-35379Y223743D01*
D02*
G37*
G36*
X-208192Y218507D02*
X-209910D01*
X-211496Y217850D01*
X-212711Y216636D01*
X-213368Y215049D01*
Y213332D01*
X-212711Y211745D01*
X-211496Y210530D01*
X-209910Y209873D01*
X-208192D01*
X-206606Y210530D01*
X-205391Y211745D01*
X-204734Y213332D01*
Y215049D01*
X-205391Y216636D01*
X-206606Y217850D01*
X-208192Y218507D01*
D02*
G37*
G36*
X-221723D02*
X-223440D01*
X-225027Y217850D01*
X-226241Y216636D01*
X-226898Y215049D01*
Y213332D01*
X-226241Y211745D01*
X-225027Y210530D01*
X-223440Y209873D01*
X-221723D01*
X-220136Y210530D01*
X-218922Y211745D01*
X-218264Y213332D01*
Y215049D01*
X-218922Y216636D01*
X-220136Y217850D01*
X-221723Y218507D01*
D02*
G37*
G36*
X-108375Y214536D02*
X-110093D01*
X-111679Y213879D01*
X-112894Y212665D01*
X-113551Y211078D01*
Y209361D01*
X-112894Y207774D01*
X-111679Y206560D01*
X-110093Y205903D01*
X-108375D01*
X-106789Y206560D01*
X-105574Y207774D01*
X-104917Y209361D01*
Y211078D01*
X-105574Y212665D01*
X-106789Y213879D01*
X-108375Y214536D01*
D02*
G37*
G36*
X-204350Y255875D02*
X-205322Y255472D01*
X-205322Y255472D01*
X-209702Y251092D01*
X-210104Y250121D01*
X-210104Y250120D01*
Y242111D01*
X-209702Y241139D01*
X-209702Y241139D01*
X-204752Y236189D01*
X-203780Y235787D01*
X-203780Y235787D01*
X-203253D01*
X-203008Y235542D01*
X-201421Y234885D01*
X-199704D01*
X-198117Y235542D01*
X-197906Y235753D01*
X-196616D01*
X-159003Y198140D01*
Y194980D01*
X-158912Y194760D01*
X-158925Y194523D01*
X-158718Y194293D01*
X-158600Y194008D01*
X-158563Y193993D01*
X-158456Y193900D01*
X-157751Y192887D01*
X-158285Y191597D01*
Y189880D01*
X-157751Y188590D01*
X-158456Y187577D01*
X-158563Y187484D01*
X-158600Y187469D01*
X-158718Y187184D01*
X-158925Y186954D01*
X-158912Y186716D01*
X-159003Y186497D01*
X-159003Y157626D01*
X-159003Y157626D01*
X-158600Y156654D01*
X-158600Y156654D01*
X-153484Y151538D01*
X-153484Y151538D01*
X-152512Y151135D01*
X-152512Y151136D01*
X-129097D01*
X-129097Y151136D01*
X-128125Y151538D01*
X-125592Y154072D01*
X-125189Y155043D01*
X-125189Y155044D01*
Y205408D01*
X-124133Y206114D01*
X-123623Y205903D01*
X-121906D01*
X-120319Y206560D01*
X-119105Y207774D01*
X-118447Y209361D01*
Y211078D01*
X-119105Y212665D01*
X-120319Y213879D01*
X-121906Y214536D01*
X-122992D01*
X-124061Y215490D01*
X-124154Y215691D01*
X-124138Y215847D01*
X-124125Y215861D01*
X-124008Y215910D01*
X-122794Y217124D01*
X-122136Y218711D01*
Y220428D01*
X-122794Y222015D01*
X-124008Y223229D01*
X-125248Y223743D01*
X-125189Y223886D01*
Y245289D01*
X-125189Y245289D01*
X-125592Y246261D01*
X-125592Y246261D01*
X-128294Y248964D01*
X-129267Y249367D01*
X-129267Y249367D01*
X-131194D01*
X-131993Y250166D01*
X-133579Y250823D01*
X-135297D01*
X-136883Y250166D01*
X-138098Y248951D01*
X-138755Y247365D01*
Y245647D01*
X-138552Y245157D01*
Y240550D01*
X-138677Y240248D01*
Y238531D01*
X-138552Y238230D01*
Y224706D01*
X-142131Y221127D01*
X-160948Y221127D01*
X-169514Y229693D01*
X-168795Y230770D01*
X-168475Y230638D01*
X-166758D01*
X-165171Y231295D01*
X-163957Y232509D01*
X-163300Y234096D01*
Y235813D01*
X-163711Y236807D01*
X-162739Y237779D01*
X-161916Y237438D01*
X-160198D01*
X-158612Y238095D01*
X-157397Y239309D01*
X-156740Y240896D01*
Y242377D01*
X-156121Y243003D01*
X-155650Y243300D01*
X-154848Y242968D01*
X-153131D01*
X-151544Y243625D01*
X-150330Y244840D01*
X-149673Y246426D01*
Y248144D01*
X-150330Y249730D01*
X-151544Y250945D01*
X-153131Y251602D01*
X-154848D01*
X-156435Y250945D01*
X-157649Y249730D01*
X-158307Y248144D01*
Y246663D01*
X-158926Y246036D01*
X-159397Y245740D01*
X-160198Y246072D01*
X-161916D01*
X-163503Y245415D01*
X-164717Y244200D01*
X-165374Y242614D01*
Y240896D01*
X-164963Y239903D01*
X-165935Y238930D01*
X-166758Y239272D01*
X-168475D01*
X-170062Y238614D01*
X-171276Y237400D01*
X-171934Y235813D01*
Y234096D01*
X-171801Y233776D01*
X-172878Y233057D01*
X-195293Y255472D01*
X-196265Y255875D01*
X-196265Y255875D01*
X-204350Y255875D01*
X-204350Y255875D01*
D02*
G37*
G36*
X-35379Y210213D02*
X-37097D01*
X-38683Y209555D01*
X-39898Y208341D01*
X-40555Y206754D01*
Y205037D01*
X-39898Y203450D01*
X-38683Y202236D01*
X-37097Y201579D01*
X-35379D01*
X-33792Y202236D01*
X-32578Y203450D01*
X-31921Y205037D01*
Y206754D01*
X-32578Y208341D01*
X-33792Y209555D01*
X-35379Y210213D01*
D02*
G37*
G36*
X-117640Y205004D02*
X-119358D01*
X-120945Y204347D01*
X-122159Y203132D01*
X-122816Y201546D01*
Y199828D01*
X-122159Y198241D01*
X-120945Y197027D01*
X-119358Y196370D01*
X-117640D01*
X-116054Y197027D01*
X-114839Y198241D01*
X-114182Y199828D01*
Y201546D01*
X-114839Y203132D01*
X-116054Y204347D01*
X-117640Y205004D01*
D02*
G37*
G36*
X-208192Y204977D02*
X-209910D01*
X-211496Y204320D01*
X-212711Y203105D01*
X-213368Y201519D01*
Y199801D01*
X-212711Y198214D01*
X-211496Y197000D01*
X-209910Y196343D01*
X-208192D01*
X-206606Y197000D01*
X-205391Y198214D01*
X-204734Y199801D01*
Y201519D01*
X-205391Y203105D01*
X-206606Y204320D01*
X-208192Y204977D01*
D02*
G37*
G36*
X-221723D02*
X-223440D01*
X-225027Y204320D01*
X-226241Y203105D01*
X-226898Y201519D01*
Y199801D01*
X-226241Y198214D01*
X-225027Y197000D01*
X-223440Y196343D01*
X-221723D01*
X-220136Y197000D01*
X-218922Y198214D01*
X-218264Y199801D01*
Y201519D01*
X-218922Y203105D01*
X-220136Y204320D01*
X-221723Y204977D01*
D02*
G37*
G36*
X-235253D02*
X-236971D01*
X-238557Y204320D01*
X-239772Y203105D01*
X-240429Y201519D01*
Y199801D01*
X-239772Y198214D01*
X-238557Y197000D01*
X-236971Y196343D01*
X-235253D01*
X-233666Y197000D01*
X-232452Y198214D01*
X-231795Y199801D01*
Y201519D01*
X-232452Y203105D01*
X-233666Y204320D01*
X-235253Y204977D01*
D02*
G37*
G36*
X-248784D02*
X-250501D01*
X-252088Y204320D01*
X-253302Y203105D01*
X-253959Y201519D01*
Y199801D01*
X-253302Y198214D01*
X-252088Y197000D01*
X-250501Y196343D01*
X-248784D01*
X-247197Y197000D01*
X-245982Y198214D01*
X-245325Y199801D01*
Y201519D01*
X-245982Y203105D01*
X-247197Y204320D01*
X-248784Y204977D01*
D02*
G37*
G36*
X-164449Y186063D02*
X-166167D01*
X-167753Y185406D01*
X-168968Y184192D01*
X-169625Y182605D01*
Y180888D01*
X-168968Y179301D01*
X-167753Y178086D01*
X-167606Y178025D01*
Y176651D01*
X-167793Y176573D01*
X-169007Y175359D01*
X-169664Y173772D01*
Y172055D01*
X-169007Y170468D01*
X-167793Y169254D01*
X-166206Y168597D01*
X-164489D01*
X-162902Y169254D01*
X-161688Y170468D01*
X-161030Y172055D01*
Y173772D01*
X-161688Y175359D01*
X-162902Y176573D01*
X-163049Y176635D01*
Y178009D01*
X-162863Y178086D01*
X-161648Y179301D01*
X-160991Y180888D01*
Y182605D01*
X-161648Y184192D01*
X-162863Y185406D01*
X-164449Y186063D01*
D02*
G37*
G36*
X-164409Y165925D02*
X-166127D01*
X-167713Y165268D01*
X-168928Y164053D01*
X-169585Y162467D01*
Y160749D01*
X-168928Y159163D01*
X-167713Y157948D01*
X-166127Y157291D01*
X-164409D01*
X-162822Y157948D01*
X-161608Y159163D01*
X-160951Y160749D01*
Y162467D01*
X-161608Y164053D01*
X-162822Y165268D01*
X-164409Y165925D01*
D02*
G37*
G36*
X-211189Y155801D02*
X-212906D01*
X-214493Y155143D01*
X-215707Y153929D01*
X-216364Y152342D01*
Y150625D01*
X-215707Y149038D01*
X-214493Y147824D01*
X-212906Y147167D01*
X-211189D01*
X-209602Y147824D01*
X-208388Y149038D01*
X-207730Y150625D01*
Y152342D01*
X-208388Y153929D01*
X-209602Y155143D01*
X-211189Y155801D01*
D02*
G37*
G36*
X-164832Y153813D02*
X-166550D01*
X-168137Y153156D01*
X-169351Y151942D01*
X-170008Y150355D01*
Y148638D01*
X-169351Y147051D01*
X-168137Y145837D01*
X-166550Y145180D01*
X-164832D01*
X-163246Y145837D01*
X-162031Y147051D01*
X-161374Y148638D01*
Y150355D01*
X-162031Y151942D01*
X-163246Y153156D01*
X-164832Y153813D01*
D02*
G37*
G36*
X-239651Y150450D02*
X-241368D01*
X-242955Y149792D01*
X-244169Y148578D01*
X-244826Y146991D01*
Y145274D01*
X-244169Y143687D01*
X-242955Y142473D01*
X-241368Y141816D01*
X-239651D01*
X-238064Y142473D01*
X-236849Y143687D01*
X-236192Y145274D01*
Y146991D01*
X-236849Y148578D01*
X-238064Y149792D01*
X-239651Y150450D01*
D02*
G37*
G36*
X-154767Y149168D02*
X-156484D01*
X-158071Y148511D01*
X-159285Y147296D01*
X-159942Y145710D01*
Y143992D01*
X-159285Y142406D01*
X-158071Y141191D01*
X-156484Y140534D01*
X-154767D01*
X-153180Y141191D01*
X-151966Y142406D01*
X-151308Y143992D01*
Y145710D01*
X-151966Y147296D01*
X-153180Y148511D01*
X-154767Y149168D01*
D02*
G37*
G36*
X-48306Y148040D02*
X-50644D01*
X-52903Y147435D01*
X-54928Y146265D01*
X-56582Y144612D01*
X-57751Y142586D01*
X-58357Y140327D01*
Y137989D01*
X-57751Y135730D01*
X-56582Y133704D01*
X-54928Y132051D01*
X-52903Y130881D01*
X-50644Y130276D01*
X-48306D01*
X-46047Y130881D01*
X-44021Y132051D01*
X-42368Y133704D01*
X-41225Y135684D01*
X-41000Y135740D01*
X-39897Y135798D01*
X-38683Y134584D01*
X-37097Y133926D01*
X-35379D01*
X-33792Y134584D01*
X-32578Y135798D01*
X-31921Y137385D01*
Y139102D01*
X-32578Y140689D01*
X-33792Y141903D01*
X-35379Y142561D01*
X-37097D01*
X-38683Y141903D01*
X-39485Y141101D01*
X-40877Y141389D01*
X-41198Y142586D01*
X-42368Y144612D01*
X-44021Y146265D01*
X-46047Y147435D01*
X-48306Y148040D01*
D02*
G37*
G36*
X-159578Y139021D02*
X-161296D01*
X-162882Y138364D01*
X-164097Y137149D01*
X-164754Y135563D01*
Y133845D01*
X-164097Y132259D01*
X-162882Y131044D01*
X-161296Y130387D01*
X-159578D01*
X-157992Y131044D01*
X-156777Y132259D01*
X-156120Y133845D01*
Y135563D01*
X-156777Y137149D01*
X-157992Y138364D01*
X-159578Y139021D01*
D02*
G37*
G36*
X-73706Y148040D02*
X-76044D01*
X-78303Y147435D01*
X-80329Y146265D01*
X-81982Y144612D01*
X-83152Y142586D01*
X-83757Y140327D01*
Y137989D01*
X-83152Y135730D01*
X-81982Y133704D01*
X-80329Y132051D01*
X-78303Y130881D01*
X-76044Y130276D01*
X-73706D01*
X-71446Y130881D01*
X-69421Y132051D01*
X-67768Y133704D01*
X-66598Y135730D01*
X-65993Y137989D01*
Y140327D01*
X-66598Y142586D01*
X-67768Y144612D01*
X-69421Y146265D01*
X-71446Y147435D01*
X-73706Y148040D01*
D02*
G37*
G36*
X-122025Y149691D02*
X-123742D01*
X-125329Y149034D01*
X-126543Y147820D01*
X-127201Y146233D01*
Y144516D01*
X-126543Y142929D01*
X-125329Y141714D01*
X-124840Y141512D01*
Y140137D01*
X-125329Y139935D01*
X-126543Y138720D01*
X-127201Y137134D01*
Y135416D01*
X-126543Y133830D01*
X-125329Y132615D01*
X-124840Y132413D01*
Y131038D01*
X-125329Y130836D01*
X-126543Y129621D01*
X-127201Y128034D01*
Y126317D01*
X-126543Y124731D01*
X-125329Y123516D01*
X-123742Y122859D01*
X-122025D01*
X-120438Y123516D01*
X-119224Y124731D01*
X-118567Y126317D01*
Y128034D01*
X-119224Y129621D01*
X-120438Y130836D01*
X-120927Y131038D01*
Y132413D01*
X-120438Y132615D01*
X-119224Y133830D01*
X-118567Y135416D01*
Y137134D01*
X-119224Y138720D01*
X-120438Y139935D01*
X-120927Y140137D01*
Y141512D01*
X-120438Y141714D01*
X-119224Y142929D01*
X-118567Y144516D01*
Y146233D01*
X-119224Y147820D01*
X-120438Y149034D01*
X-122025Y149691D01*
D02*
G37*
G36*
X-48306Y122640D02*
X-50644D01*
X-52903Y122035D01*
X-54928Y120865D01*
X-56582Y119212D01*
X-57751Y117186D01*
X-58357Y114927D01*
Y112589D01*
X-57751Y110330D01*
X-56582Y108304D01*
X-54928Y106651D01*
X-52903Y105481D01*
X-50644Y104876D01*
X-48306D01*
X-46047Y105481D01*
X-44021Y106651D01*
X-42368Y108304D01*
X-41198Y110330D01*
X-40593Y112589D01*
Y114927D01*
X-41198Y117186D01*
X-42368Y119212D01*
X-44021Y120865D01*
X-46047Y122035D01*
X-48306Y122640D01*
D02*
G37*
G36*
X-73706D02*
X-76044D01*
X-78303Y122035D01*
X-80329Y120865D01*
X-81982Y119212D01*
X-83152Y117186D01*
X-83757Y114927D01*
Y112589D01*
X-83152Y110330D01*
X-81982Y108304D01*
X-80329Y106651D01*
X-78303Y105481D01*
X-76044Y104876D01*
X-73706D01*
X-71446Y105481D01*
X-69421Y106651D01*
X-67768Y108304D01*
X-66598Y110330D01*
X-65993Y112589D01*
Y114927D01*
X-66598Y117186D01*
X-67768Y119212D01*
X-69421Y120865D01*
X-71446Y122035D01*
X-73706Y122640D01*
D02*
G37*
G36*
X-217630Y95757D02*
X-219347D01*
X-220934Y95100D01*
X-222148Y93885D01*
X-222806Y92299D01*
Y90581D01*
X-222148Y88995D01*
X-220934Y87780D01*
X-219347Y87123D01*
X-217630D01*
X-216043Y87780D01*
X-214829Y88995D01*
X-214172Y90581D01*
Y92299D01*
X-214829Y93885D01*
X-216043Y95100D01*
X-217630Y95757D01*
D02*
G37*
G36*
X-231160D02*
X-232878D01*
X-234464Y95100D01*
X-235679Y93885D01*
X-236336Y92299D01*
Y90581D01*
X-235679Y88995D01*
X-234464Y87780D01*
X-232878Y87123D01*
X-231160D01*
X-229574Y87780D01*
X-228359Y88995D01*
X-227702Y90581D01*
Y92299D01*
X-228359Y93885D01*
X-229574Y95100D01*
X-231160Y95757D01*
D02*
G37*
G36*
X-244691D02*
X-246408D01*
X-247995Y95100D01*
X-249209Y93885D01*
X-249867Y92299D01*
Y90581D01*
X-249209Y88995D01*
X-247995Y87780D01*
X-246408Y87123D01*
X-244691D01*
X-243104Y87780D01*
X-241890Y88995D01*
X-241233Y90581D01*
Y92299D01*
X-241890Y93885D01*
X-243104Y95100D01*
X-244691Y95757D01*
D02*
G37*
G36*
X-48306Y97240D02*
X-50644D01*
X-52903Y96635D01*
X-54928Y95465D01*
X-56582Y93812D01*
X-57751Y91786D01*
X-58357Y89527D01*
Y87189D01*
X-57751Y84930D01*
X-56582Y82904D01*
X-54928Y81251D01*
X-52903Y80081D01*
X-50644Y79476D01*
X-48306D01*
X-46047Y80081D01*
X-44021Y81251D01*
X-42368Y82904D01*
X-41198Y84930D01*
X-40593Y87189D01*
Y89527D01*
X-41198Y91786D01*
X-42368Y93812D01*
X-44021Y95465D01*
X-46047Y96635D01*
X-48306Y97240D01*
D02*
G37*
G36*
X-73706D02*
X-76044D01*
X-78303Y96635D01*
X-80329Y95465D01*
X-81982Y93812D01*
X-83152Y91786D01*
X-83757Y89527D01*
Y87189D01*
X-83152Y84930D01*
X-81982Y82904D01*
X-80329Y81251D01*
X-78303Y80081D01*
X-76044Y79476D01*
X-73706D01*
X-71446Y80081D01*
X-69421Y81251D01*
X-67768Y82904D01*
X-66598Y84930D01*
X-65993Y87189D01*
Y89527D01*
X-66598Y91786D01*
X-67768Y93812D01*
X-69421Y95465D01*
X-71446Y96635D01*
X-73706Y97240D01*
D02*
G37*
G36*
X-48306Y71840D02*
X-50644D01*
X-52903Y71235D01*
X-54928Y70065D01*
X-56582Y68412D01*
X-57751Y66386D01*
X-58357Y64127D01*
Y61789D01*
X-57751Y59530D01*
X-56582Y57504D01*
X-54928Y55851D01*
X-52903Y54681D01*
X-50644Y54076D01*
X-48306D01*
X-46047Y54681D01*
X-44021Y55851D01*
X-42368Y57504D01*
X-41198Y59530D01*
X-40593Y61789D01*
Y64127D01*
X-41198Y66386D01*
X-42368Y68412D01*
X-44021Y70065D01*
X-46047Y71235D01*
X-48306Y71840D01*
D02*
G37*
G36*
X-73706D02*
X-76044D01*
X-78303Y71235D01*
X-80329Y70065D01*
X-81982Y68412D01*
X-83152Y66386D01*
X-83757Y64127D01*
Y61789D01*
X-83152Y59530D01*
X-81982Y57504D01*
X-80329Y55851D01*
X-78303Y54681D01*
X-76044Y54076D01*
X-73706D01*
X-71446Y54681D01*
X-69421Y55851D01*
X-67768Y57504D01*
X-66598Y59530D01*
X-65993Y61789D01*
Y64127D01*
X-66598Y66386D01*
X-67768Y68412D01*
X-69421Y70065D01*
X-71446Y71235D01*
X-73706Y71840D01*
D02*
G37*
G36*
X-35379Y47847D02*
X-37097D01*
X-38683Y47190D01*
X-39898Y45976D01*
X-40555Y44389D01*
Y42672D01*
X-40174Y41752D01*
X-41315Y41189D01*
X-41689Y41837D01*
X-42368Y43012D01*
X-44021Y44665D01*
X-46047Y45835D01*
X-48306Y46440D01*
X-50644D01*
X-52903Y45835D01*
X-54928Y44665D01*
X-56582Y43012D01*
X-57751Y40986D01*
X-58357Y38727D01*
Y36389D01*
X-57751Y34130D01*
X-56582Y32104D01*
X-54928Y30451D01*
X-52903Y29281D01*
X-50644Y28676D01*
X-48306D01*
X-46047Y29281D01*
X-44021Y30451D01*
X-42368Y32104D01*
X-41198Y34130D01*
X-40593Y36389D01*
Y38727D01*
X-40944Y40038D01*
X-41024Y40336D01*
X-39911Y41087D01*
X-39898Y41085D01*
X-39525Y40713D01*
X-38683Y39871D01*
X-37097Y39214D01*
X-35379D01*
X-33792Y39871D01*
X-32578Y41085D01*
X-31921Y42672D01*
Y44389D01*
X-32578Y45976D01*
X-33792Y47190D01*
X-35379Y47847D01*
D02*
G37*
G36*
X-73706Y46440D02*
X-76044D01*
X-78303Y45835D01*
X-80329Y44665D01*
X-81982Y43012D01*
X-83152Y40986D01*
X-83757Y38727D01*
Y36389D01*
X-83152Y34130D01*
X-81982Y32104D01*
X-80329Y30451D01*
X-78303Y29281D01*
X-76044Y28676D01*
X-73706D01*
X-71446Y29281D01*
X-69421Y30451D01*
X-67768Y32104D01*
X-66598Y34130D01*
X-65993Y36389D01*
Y38727D01*
X-66598Y40986D01*
X-67768Y43012D01*
X-69421Y44665D01*
X-71446Y45835D01*
X-73706Y46440D01*
D02*
G37*
G36*
X-35379Y34317D02*
X-37097D01*
X-38683Y33660D01*
X-39898Y32445D01*
X-40555Y30859D01*
Y29141D01*
X-39898Y27555D01*
X-38683Y26340D01*
X-37097Y25683D01*
X-35379D01*
X-33792Y26340D01*
X-32578Y27555D01*
X-31921Y29141D01*
Y30859D01*
X-32578Y32445D01*
X-33792Y33660D01*
X-35379Y34317D01*
D02*
G37*
%LPD*%
G36*
X-161517Y219752D02*
X-141562Y219752D01*
X-137177Y224136D01*
Y245463D01*
X-134649Y247992D01*
X-129267D01*
X-126564Y245289D01*
Y223886D01*
X-127312D01*
X-128899Y223229D01*
X-130113Y222015D01*
X-130770Y220428D01*
Y218711D01*
X-130113Y217124D01*
X-128899Y215910D01*
X-127312Y215252D01*
X-126564D01*
Y212328D01*
X-127081Y211078D01*
Y209361D01*
X-126564Y208111D01*
Y155043D01*
X-129097Y152510D01*
X-152512D01*
X-157628Y157626D01*
X-157628Y186497D01*
X-156414Y187079D01*
X-154827Y186422D01*
X-153110D01*
X-151523Y187079D01*
X-150309Y188293D01*
X-149651Y189880D01*
Y191597D01*
X-150309Y193184D01*
X-151523Y194398D01*
X-153110Y195056D01*
X-154827D01*
X-156414Y194398D01*
X-157628Y194980D01*
Y198709D01*
X-196080Y237161D01*
X-203780D01*
X-208730Y242111D01*
Y250121D01*
X-204350Y254500D01*
X-196265Y254500D01*
X-161517Y219752D01*
D02*
G37*
%LPC*%
G36*
X-136870Y187317D02*
X-138587D01*
X-140174Y186660D01*
X-141388Y185445D01*
X-142045Y183859D01*
Y182141D01*
X-141388Y180555D01*
X-140174Y179340D01*
X-138587Y178683D01*
X-136870D01*
X-135283Y179340D01*
X-134069Y180555D01*
X-133411Y182141D01*
Y183859D01*
X-134069Y185445D01*
X-135283Y186660D01*
X-136870Y187317D01*
D02*
G37*
G36*
X-142207Y176852D02*
X-143924D01*
X-145511Y176195D01*
X-146725Y174981D01*
X-147383Y173394D01*
Y171677D01*
X-146725Y170090D01*
X-145511Y168876D01*
X-143924Y168218D01*
X-142207D01*
X-140620Y168876D01*
X-139406Y170090D01*
X-138749Y171677D01*
Y173394D01*
X-139406Y174981D01*
X-140620Y176195D01*
X-142207Y176852D01*
D02*
G37*
G36*
X-275519Y325729D02*
X-277236D01*
X-278823Y325072D01*
X-280037Y323858D01*
X-280695Y322271D01*
Y320554D01*
X-280037Y318967D01*
X-278823Y317752D01*
X-277236Y317095D01*
X-275519D01*
X-273932Y317752D01*
X-272718Y318967D01*
X-272061Y320554D01*
Y322271D01*
X-272718Y323858D01*
X-273932Y325072D01*
X-275519Y325729D01*
D02*
G37*
G36*
X-336059Y305956D02*
X-337777D01*
X-339363Y305298D01*
X-340578Y304084D01*
X-340798Y303552D01*
X-342173D01*
X-342393Y304084D01*
X-343607Y305298D01*
X-345194Y305956D01*
X-346911D01*
X-348498Y305298D01*
X-349712Y304084D01*
X-350369Y302497D01*
Y300780D01*
X-349712Y299193D01*
X-348498Y297979D01*
X-346911Y297322D01*
X-345194D01*
X-343607Y297979D01*
X-342393Y299193D01*
X-342173Y299725D01*
X-340798D01*
X-340578Y299193D01*
X-339363Y297979D01*
X-337777Y297322D01*
X-336059D01*
X-334473Y297979D01*
X-333258Y299193D01*
X-332601Y300780D01*
Y302497D01*
X-333258Y304084D01*
X-334473Y305298D01*
X-336059Y305956D01*
D02*
G37*
G36*
Y293956D02*
X-337777D01*
X-339363Y293299D01*
X-340578Y292084D01*
X-340798Y291553D01*
X-342173D01*
X-342393Y292084D01*
X-343607Y293299D01*
X-345194Y293956D01*
X-346911D01*
X-348498Y293299D01*
X-349712Y292084D01*
X-350369Y290498D01*
Y288780D01*
X-349712Y287194D01*
X-348498Y285979D01*
X-346911Y285322D01*
X-345194D01*
X-343607Y285979D01*
X-342393Y287194D01*
X-342173Y287725D01*
X-340798D01*
X-340578Y287194D01*
X-339363Y285979D01*
X-337777Y285322D01*
X-336059D01*
X-334972Y285772D01*
X-334000Y284800D01*
X-334344Y283969D01*
Y282252D01*
X-333687Y280665D01*
X-332472Y279451D01*
X-330886Y278794D01*
X-329168D01*
X-327582Y279451D01*
X-326367Y280665D01*
X-325710Y282252D01*
Y283969D01*
X-326367Y285556D01*
X-327582Y286770D01*
X-329168Y287428D01*
X-330886D01*
X-331973Y286977D01*
X-332945Y287949D01*
X-332601Y288780D01*
Y290498D01*
X-333258Y292084D01*
X-334473Y293299D01*
X-336059Y293956D01*
D02*
G37*
G36*
X-300871Y288116D02*
X-302588D01*
X-304175Y287459D01*
X-305389Y286244D01*
X-306046Y284657D01*
Y282940D01*
X-305389Y281353D01*
X-304175Y280139D01*
X-302588Y279482D01*
X-300871D01*
X-299284Y280139D01*
X-298069Y281353D01*
X-297412Y282940D01*
Y284657D01*
X-298069Y286244D01*
X-299284Y287459D01*
X-300871Y288116D01*
D02*
G37*
G36*
X-317466Y266615D02*
X-319183D01*
X-320770Y265958D01*
X-321984Y264744D01*
X-322642Y263157D01*
Y261440D01*
X-321984Y259853D01*
X-320770Y258639D01*
X-319183Y257981D01*
X-317466D01*
X-315879Y258639D01*
X-314665Y259853D01*
X-314008Y261440D01*
Y263157D01*
X-314665Y264744D01*
X-315879Y265958D01*
X-317466Y266615D01*
D02*
G37*
G36*
X-334224Y240646D02*
X-335941D01*
X-337528Y239988D01*
X-338742Y238774D01*
X-339399Y237187D01*
Y235470D01*
X-338742Y233883D01*
X-337528Y232669D01*
X-335941Y232012D01*
X-334224D01*
X-332637Y232669D01*
X-331423Y233883D01*
X-330765Y235470D01*
Y237187D01*
X-331423Y238774D01*
X-332637Y239988D01*
X-334224Y240646D01*
D02*
G37*
G36*
X-334666Y230099D02*
X-336384D01*
X-337970Y229442D01*
X-339185Y228227D01*
X-339842Y226641D01*
Y224923D01*
X-339185Y223337D01*
X-337970Y222122D01*
X-336384Y221465D01*
X-334666D01*
X-333079Y222122D01*
X-331865Y223337D01*
X-331208Y224923D01*
Y226641D01*
X-331865Y228227D01*
X-333079Y229442D01*
X-334666Y230099D01*
D02*
G37*
G36*
X-307838Y217767D02*
X-309555D01*
X-311142Y217110D01*
X-312356Y215895D01*
X-313014Y214309D01*
Y212591D01*
X-312356Y211005D01*
X-311142Y209790D01*
X-309555Y209133D01*
X-307838D01*
X-306251Y209790D01*
X-305037Y211005D01*
X-304380Y212591D01*
Y214309D01*
X-305037Y215895D01*
X-306251Y217110D01*
X-307838Y217767D01*
D02*
G37*
G36*
X-284221Y211771D02*
X-285938D01*
X-287525Y211114D01*
X-288740Y209899D01*
X-289397Y208313D01*
Y206595D01*
X-288740Y205009D01*
X-287525Y203794D01*
X-285938Y203137D01*
X-284221D01*
X-282634Y203794D01*
X-281420Y205009D01*
X-280763Y206595D01*
Y208313D01*
X-281420Y209899D01*
X-282634Y211114D01*
X-284221Y211771D01*
D02*
G37*
G36*
X-296587Y211393D02*
X-298304D01*
X-299891Y210736D01*
X-301105Y209522D01*
X-301762Y207935D01*
Y206218D01*
X-301105Y204631D01*
X-299891Y203417D01*
X-298304Y202759D01*
X-296587D01*
X-295000Y203417D01*
X-293785Y204631D01*
X-293128Y206218D01*
Y207935D01*
X-293785Y209522D01*
X-295000Y210736D01*
X-296587Y211393D01*
D02*
G37*
G36*
X-321130Y206455D02*
X-322847D01*
X-324434Y205797D01*
X-325648Y204583D01*
X-326306Y202996D01*
Y201279D01*
X-325648Y199692D01*
X-324434Y198478D01*
X-322847Y197820D01*
X-321130D01*
X-319543Y198478D01*
X-318329Y199692D01*
X-317672Y201279D01*
Y202996D01*
X-318329Y204583D01*
X-319543Y205797D01*
X-321130Y206455D01*
D02*
G37*
G36*
X-311684Y201098D02*
X-313401D01*
X-314988Y200441D01*
X-316202Y199227D01*
X-316859Y197640D01*
Y195923D01*
X-316202Y194336D01*
X-314988Y193122D01*
X-313401Y192464D01*
X-311684D01*
X-310097Y193122D01*
X-308883Y194336D01*
X-308225Y195923D01*
Y197640D01*
X-308883Y199227D01*
X-310097Y200441D01*
X-311684Y201098D01*
D02*
G37*
G36*
X-334802Y192418D02*
X-336519D01*
X-338106Y191761D01*
X-339320Y190547D01*
X-339977Y188960D01*
Y187243D01*
X-339320Y185656D01*
X-338106Y184442D01*
X-336519Y183785D01*
X-334802D01*
X-333215Y184442D01*
X-332001Y185656D01*
X-331343Y187243D01*
Y188960D01*
X-332001Y190547D01*
X-333215Y191761D01*
X-334802Y192418D01*
D02*
G37*
G36*
X-321130Y182414D02*
X-322847D01*
X-324434Y181757D01*
X-325648Y180542D01*
X-326306Y178955D01*
Y177238D01*
X-325648Y175651D01*
X-324434Y174437D01*
X-322847Y173780D01*
X-321130D01*
X-319543Y174437D01*
X-318329Y175651D01*
X-317672Y177238D01*
Y178955D01*
X-318329Y180542D01*
X-319543Y181757D01*
X-321130Y182414D01*
D02*
G37*
G36*
X-311684Y177058D02*
X-313401D01*
X-314988Y176401D01*
X-316202Y175186D01*
X-316859Y173599D01*
Y171882D01*
X-316202Y170295D01*
X-314988Y169081D01*
X-313401Y168424D01*
X-311684D01*
X-310097Y169081D01*
X-308883Y170295D01*
X-308225Y171882D01*
Y173599D01*
X-308883Y175186D01*
X-310097Y176401D01*
X-311684Y177058D01*
D02*
G37*
G36*
X-334802Y167043D02*
X-336519D01*
X-338106Y166385D01*
X-339320Y165171D01*
X-339977Y163584D01*
Y161867D01*
X-339320Y160280D01*
X-338106Y159066D01*
X-336519Y158409D01*
X-334802D01*
X-333215Y159066D01*
X-332001Y160280D01*
X-331343Y161867D01*
Y163584D01*
X-332001Y165171D01*
X-333215Y166385D01*
X-334802Y167043D01*
D02*
G37*
G36*
X-308119Y166629D02*
X-309837D01*
X-311423Y165971D01*
X-312638Y164757D01*
X-313295Y163170D01*
Y161453D01*
X-312638Y159866D01*
X-311423Y158652D01*
X-309837Y157995D01*
X-308119D01*
X-306533Y158652D01*
X-305318Y159866D01*
X-304661Y161453D01*
Y163170D01*
X-305318Y164757D01*
X-306533Y165971D01*
X-308119Y166629D01*
D02*
G37*
G36*
X-314722Y158904D02*
X-316440D01*
X-318026Y158246D01*
X-319241Y157032D01*
X-319898Y155445D01*
Y153728D01*
X-319241Y152141D01*
X-318026Y150927D01*
X-316440Y150270D01*
X-314722D01*
X-313136Y150927D01*
X-311921Y152141D01*
X-311264Y153728D01*
Y155445D01*
X-311921Y157032D01*
X-313136Y158246D01*
X-314722Y158904D01*
D02*
G37*
G36*
X-294142Y149987D02*
X-295860D01*
X-297446Y149330D01*
X-298661Y148116D01*
X-299318Y146529D01*
Y144811D01*
X-298661Y143225D01*
X-297446Y142010D01*
X-295860Y141353D01*
X-294142D01*
X-292556Y142010D01*
X-291341Y143225D01*
X-290684Y144811D01*
Y146529D01*
X-291341Y148116D01*
X-292556Y149330D01*
X-294142Y149987D01*
D02*
G37*
G36*
X-315602Y147207D02*
X-317319D01*
X-318906Y146550D01*
X-320121Y145335D01*
X-320778Y143749D01*
Y142031D01*
X-320121Y140445D01*
X-318906Y139230D01*
X-317319Y138573D01*
X-315602D01*
X-314015Y139230D01*
X-312801Y140445D01*
X-312144Y142031D01*
Y143749D01*
X-312801Y145335D01*
X-314015Y146550D01*
X-315602Y147207D01*
D02*
G37*
%LPD*%
D20*
X-101450Y422896D02*
G03*
X-121071Y402699I289J-19909D01*
G01*
X-150830Y348290D02*
G03*
X-121087Y378103I-35J29778D01*
G01*
X-400466Y98689D02*
G03*
X-380865Y79088I19601J0D01*
G01*
X-121156Y24716D02*
G03*
X-101573Y5028I19636J-52D01*
G01*
X-121156Y49292D02*
G03*
X-150865Y79036I-29726J17D01*
G01*
X-380848Y348272D02*
G03*
X-400448Y328672I0J-19601D01*
G01*
X-164378Y348272D02*
X-164361Y348290D01*
X-400483Y220463D02*
Y233993D01*
X-121121Y402749D02*
X-121071Y402699D01*
X-400483Y139280D02*
Y152811D01*
X-4939Y395322D02*
Y408852D01*
Y205896D02*
Y219426D01*
X-245578Y79036D02*
X-232047D01*
X-4939Y165304D02*
Y178835D01*
Y138244D02*
Y151774D01*
Y124713D02*
Y138244D01*
X-400483Y288115D02*
Y301645D01*
X-380848Y348272D02*
X-164378D01*
X-400483Y206932D02*
Y220463D01*
X-4976Y422419D02*
X-4939Y422383D01*
X-400483Y125750D02*
Y139280D01*
X-4939Y300609D02*
Y314139D01*
X-340291Y79036D02*
X-326760D01*
X-4939Y287078D02*
Y300609D01*
X-177926Y79036D02*
X-164395D01*
X-121156Y24716D02*
Y49292D01*
X-4939Y84122D02*
Y97652D01*
X-72643Y5028D02*
X-59113D01*
X-45582D02*
X-32052D01*
X-400483Y315176D02*
Y328706D01*
Y274585D02*
Y288115D01*
Y193402D02*
Y206932D01*
X-5453Y422896D02*
X-4976Y422419D01*
X-4939Y354730D02*
Y368261D01*
X-353821Y79036D02*
X-340291D01*
X-259108D02*
X-245578D01*
X-164395D02*
X-150865D01*
X-101573Y5028D02*
X-99704D01*
X-4939Y4976D02*
Y16470D01*
X-400483Y112219D02*
Y125750D01*
X-4939Y368261D02*
Y381791D01*
Y341200D02*
Y354730D01*
X-367352Y79036D02*
X-353821D01*
X-4939Y273548D02*
Y287078D01*
X-286169Y79036D02*
X-272639D01*
X-4939Y232957D02*
Y246487D01*
X-272639Y79036D02*
X-259108D01*
X-4939Y151774D02*
Y165304D01*
X-191456Y79036D02*
X-177926D01*
X-400483Y261054D02*
Y274585D01*
Y179872D02*
Y193402D01*
X-101450Y422896D02*
X-5453D01*
X-400483Y98689D02*
Y112219D01*
X-4939Y314139D02*
Y327669D01*
Y260017D02*
Y273548D01*
X-299699Y79036D02*
X-286169D01*
X-4939Y219426D02*
Y232957D01*
X-204986Y79036D02*
X-191456D01*
X-4939Y43531D02*
Y57061D01*
Y16470D02*
Y30000D01*
X-32052Y5028D02*
X-18521D01*
X-400483Y247524D02*
Y261054D01*
X-150865Y348290D02*
X-150847Y348272D01*
X-121021Y378074D02*
Y402649D01*
X-400483Y166341D02*
Y179872D01*
X-380882Y79036D02*
X-367352D01*
X-218517D02*
X-204986D01*
X-4939Y97652D02*
Y111183D01*
Y70591D02*
Y84122D01*
X-99704Y5028D02*
X-86173D01*
X-4939Y57061D02*
Y70591D01*
X-86173Y5028D02*
X-72643D01*
X-59113D02*
X-45582D01*
X-400483Y233993D02*
Y247524D01*
X-121071Y402699D02*
X-121021Y402649D01*
X-4939Y381791D02*
Y395322D01*
Y327669D02*
Y341200D01*
X-313230Y79036D02*
X-299699D01*
X-4939Y192365D02*
Y205896D01*
Y178835D02*
Y192365D01*
X-18521Y5028D02*
X-4991D01*
X-400483Y301645D02*
Y315176D01*
X-164361Y348290D02*
X-150865D01*
X-400483Y152811D02*
Y166341D01*
X-4939Y408852D02*
Y422383D01*
X-326760Y79036D02*
X-313230D01*
X-4939Y246487D02*
Y260017D01*
X-232047Y79036D02*
X-218517D01*
X-4939Y111183D02*
Y124713D01*
X-121191Y24681D02*
X-121156Y24716D01*
X-4939Y30000D02*
Y43531D01*
D21*
X-101573Y5028D02*
Y5028D01*
D25*
X-49870Y392855D02*
D03*
X-75270D02*
D03*
X-49475Y164558D02*
D03*
X-74875D02*
D03*
D27*
X-200562Y239202D02*
D03*
X-234677Y276760D02*
D03*
X-305415Y236999D02*
D03*
X-303093Y225367D02*
D03*
X-144675Y232636D02*
D03*
X-148405Y224582D02*
D03*
X-202650Y250740D02*
D03*
X-134438Y246506D02*
D03*
X-134360Y239390D02*
D03*
X-133061Y160304D02*
D03*
X-235828Y265391D02*
D03*
X-123599Y60490D02*
D03*
X-138841Y76349D02*
D03*
X-123341Y366624D02*
D03*
X-139078Y350830D02*
D03*
X-121222Y49321D02*
D03*
X-121156Y35762D02*
D03*
Y22231D02*
D03*
X-18521Y5028D02*
D03*
X-32052D02*
D03*
X-45582D02*
D03*
X-59113D02*
D03*
X-72643D02*
D03*
X-86173D02*
D03*
X-99704D02*
D03*
X-4939Y30000D02*
D03*
Y16470D02*
D03*
Y124713D02*
D03*
Y111183D02*
D03*
Y97652D02*
D03*
Y84122D02*
D03*
Y70591D02*
D03*
Y57061D02*
D03*
Y43531D02*
D03*
Y219426D02*
D03*
Y205896D02*
D03*
Y192365D02*
D03*
Y178835D02*
D03*
Y165304D02*
D03*
Y151774D02*
D03*
Y138244D02*
D03*
Y314139D02*
D03*
Y300609D02*
D03*
Y287078D02*
D03*
Y273548D02*
D03*
Y260017D02*
D03*
Y246487D02*
D03*
Y232957D02*
D03*
Y408852D02*
D03*
Y395322D02*
D03*
Y381791D02*
D03*
Y368261D02*
D03*
Y354730D02*
D03*
Y341200D02*
D03*
Y327669D02*
D03*
X-19672Y422943D02*
D03*
X-33203D02*
D03*
X-100855D02*
D03*
X-87324D02*
D03*
X-73794D02*
D03*
X-60264D02*
D03*
X-46733D02*
D03*
X-114714Y417184D02*
D03*
X-121087Y405164D02*
D03*
Y391633D02*
D03*
X-115432Y10818D02*
D03*
X-4939Y4976D02*
D03*
X-121021Y378074D02*
D03*
X-164361Y348290D02*
D03*
X-129774Y357002D02*
D03*
X-129821Y70319D02*
D03*
X-4976Y422419D02*
D03*
X-150865Y79036D02*
D03*
X-380882D02*
D03*
X-164395D02*
D03*
X-177926D02*
D03*
X-204986D02*
D03*
X-191456D02*
D03*
X-245578D02*
D03*
X-259108D02*
D03*
X-232047D02*
D03*
X-218517D02*
D03*
X-326760D02*
D03*
X-340291D02*
D03*
X-367352D02*
D03*
X-353821D02*
D03*
X-299699D02*
D03*
X-313230D02*
D03*
X-286169D02*
D03*
X-272639D02*
D03*
X-400483Y315176D02*
D03*
Y301645D02*
D03*
Y288115D02*
D03*
Y274585D02*
D03*
Y261054D02*
D03*
Y247524D02*
D03*
Y233993D02*
D03*
Y220463D02*
D03*
Y206932D02*
D03*
Y193402D02*
D03*
Y179872D02*
D03*
Y166341D02*
D03*
Y152811D02*
D03*
Y139280D02*
D03*
Y125750D02*
D03*
Y112219D02*
D03*
Y98689D02*
D03*
Y328706D02*
D03*
X-150830Y348290D02*
D03*
X-177891D02*
D03*
X-191421D02*
D03*
X-204952D02*
D03*
X-218482D02*
D03*
X-232013D02*
D03*
X-245543D02*
D03*
X-259074D02*
D03*
X-272604D02*
D03*
X-286134D02*
D03*
X-299665D02*
D03*
X-313195D02*
D03*
X-326726D02*
D03*
X-340256D02*
D03*
X-353787D02*
D03*
X-367317D02*
D03*
X-394726Y84828D02*
D03*
X-394707Y342532D02*
D03*
X-380847Y348290D02*
D03*
X-237078Y222355D02*
D03*
X-252403Y161078D02*
D03*
X-145040Y143353D02*
D03*
X-136655D02*
D03*
X-232000Y178584D02*
D03*
X-318848Y283866D02*
D03*
X-279429Y255830D02*
D03*
X-277453Y227388D02*
D03*
X-356519Y142933D02*
D03*
X-341304D02*
D03*
X-356519Y129525D02*
D03*
X-341304D02*
D03*
X-335661Y254869D02*
D03*
Y246875D02*
D03*
X-361306Y252123D02*
D03*
X-316460Y233694D02*
D03*
X-311553Y283824D02*
D03*
M02*
