G04*
G04 #@! TF.GenerationSoftware,Altium Limited,Altium Designer,23.8.1 (32)*
G04*
G04 Layer_Color=2752767*
%FSLAX44Y44*%
%MOMM*%
G71*
G04*
G04 #@! TF.SameCoordinates,DF38465C-164B-46F8-8289-0D746A6B0DDA*
G04*
G04*
G04 #@! TF.FilePolarity,Positive*
G04*
G01*
G75*
%ADD13C,0.2540*%
%ADD59C,0.3810*%
%ADD61C,0.0508*%
%ADD62C,0.4064*%
D13*
X202935Y398992D02*
G03*
X202935Y398992I-8467J0D01*
G01*
X186002Y352425D02*
X202935D01*
Y369358D01*
X186002D02*
X202935D01*
X186002Y352425D02*
Y369358D01*
X194469Y314325D02*
X202935Y331258D01*
X186002D02*
X202935D01*
X186002D02*
X194469Y314325D01*
X1796482Y400682D02*
X1788864D01*
X1786325Y398143D01*
Y393064D01*
X1788864Y390525D01*
X1796482D01*
X1801560Y403221D02*
X1804099Y405760D01*
X1809178D01*
X1811717Y403221D01*
Y400682D01*
X1809178Y398143D01*
X1806638D01*
X1809178D01*
X1811717Y395603D01*
Y393064D01*
X1809178Y390525D01*
X1804099D01*
X1801560Y393064D01*
X1816795Y403221D02*
X1819334Y405760D01*
X1824413D01*
X1826952Y403221D01*
Y393064D01*
X1824413Y390525D01*
X1819334D01*
X1816795Y393064D01*
Y403221D01*
X1832030D02*
X1834569Y405760D01*
X1839648D01*
X1842187Y403221D01*
Y393064D01*
X1839648Y390525D01*
X1834569D01*
X1832030Y393064D01*
Y403221D01*
X1847265Y405760D02*
Y390525D01*
Y398143D01*
X1849804Y400682D01*
X1854883D01*
X1857422Y398143D01*
Y390525D01*
X1872657D02*
X1862500D01*
X1872657Y400682D01*
Y403221D01*
X1870118Y405760D01*
X1865039D01*
X1862500Y403221D01*
X1887892Y390525D02*
X1877735D01*
X1887892Y400682D01*
Y403221D01*
X1885353Y405760D01*
X1880275D01*
X1877735Y403221D01*
X1892970D02*
X1895510Y405760D01*
X1900588D01*
X1903127Y403221D01*
Y393064D01*
X1900588Y390525D01*
X1895510D01*
X1892970Y393064D01*
Y403221D01*
X1908206Y390525D02*
Y400682D01*
X1910745D01*
X1913284Y398143D01*
Y390525D01*
Y398143D01*
X1915823Y400682D01*
X1918362Y398143D01*
Y390525D01*
X1923441Y403221D02*
X1925980Y405760D01*
X1931058D01*
X1933597Y403221D01*
Y393064D01*
X1931058Y390525D01*
X1925980D01*
X1923441Y393064D01*
Y403221D01*
X1938676Y390525D02*
Y400682D01*
X1941215D01*
X1943754Y398143D01*
Y390525D01*
Y398143D01*
X1946293Y400682D01*
X1948832Y398143D01*
Y390525D01*
X1953911Y400682D02*
X1964067Y390525D01*
X1958989Y395603D01*
X1964067Y400682D01*
X1953911Y390525D01*
X1969146Y403221D02*
X1971685Y405760D01*
X1976763D01*
X1979303Y403221D01*
Y393064D01*
X1976763Y390525D01*
X1971685D01*
X1969146Y393064D01*
Y403221D01*
X1791403Y352425D02*
X1786325Y357503D01*
Y362582D01*
X1791403Y367660D01*
X1799021Y352425D02*
Y367660D01*
X1804099Y362582D01*
X1809178Y367660D01*
Y352425D01*
X1814256D02*
X1819334D01*
X1816795D01*
Y362582D01*
X1814256D01*
X1826952D02*
X1837108Y352425D01*
X1832030Y357503D01*
X1837108Y362582D01*
X1826952Y352425D01*
X1849804D02*
X1844726D01*
X1842187Y354964D01*
Y360042D01*
X1844726Y362582D01*
X1849804D01*
X1852343Y360042D01*
Y357503D01*
X1842187D01*
X1867579Y367660D02*
Y352425D01*
X1859961D01*
X1857422Y354964D01*
Y360042D01*
X1859961Y362582D01*
X1867579D01*
X1872657Y352425D02*
X1877735Y357503D01*
Y362582D01*
X1872657Y367660D01*
X1791403Y314325D02*
X1786325Y319403D01*
Y324482D01*
X1791403Y329560D01*
X1799021Y314325D02*
Y329560D01*
X1804099Y324482D01*
X1809178Y329560D01*
Y314325D01*
X1814256D02*
X1819334D01*
X1816795D01*
Y324482D01*
X1814256D01*
X1826952D02*
X1837108Y314325D01*
X1832030Y319403D01*
X1837108Y324482D01*
X1826952Y314325D01*
X1849804D02*
X1844726D01*
X1842187Y316864D01*
Y321942D01*
X1844726Y324482D01*
X1849804D01*
X1852343Y321942D01*
Y319403D01*
X1842187D01*
X1867579Y329560D02*
Y314325D01*
X1859961D01*
X1857422Y316864D01*
Y321942D01*
X1859961Y324482D01*
X1867579D01*
X1872657Y314325D02*
X1877735Y319403D01*
Y324482D01*
X1872657Y329560D01*
X1596892Y390525D02*
Y405760D01*
X1604510D01*
X1607049Y403221D01*
Y398143D01*
X1604510Y395603D01*
X1596892D01*
X1601971D02*
X1607049Y390525D01*
X1614666D02*
X1619745D01*
X1622284Y393064D01*
Y398143D01*
X1619745Y400682D01*
X1614666D01*
X1612127Y398143D01*
Y393064D01*
X1614666Y390525D01*
X1627362Y400682D02*
Y393064D01*
X1629901Y390525D01*
X1637519D01*
Y400682D01*
X1642597Y390525D02*
Y400682D01*
X1650215D01*
X1652754Y398143D01*
Y390525D01*
X1667989Y405760D02*
Y390525D01*
X1660372D01*
X1657832Y393064D01*
Y398143D01*
X1660372Y400682D01*
X1667989D01*
X1680685Y390525D02*
X1675607D01*
X1673067Y393064D01*
Y398143D01*
X1675607Y400682D01*
X1680685D01*
X1683224Y398143D01*
Y395603D01*
X1673067D01*
X1698459Y405760D02*
Y390525D01*
X1690842D01*
X1688303Y393064D01*
Y398143D01*
X1690842Y400682D01*
X1698459D01*
X1596892Y352425D02*
Y367660D01*
X1604510D01*
X1607049Y365121D01*
Y360042D01*
X1604510Y357503D01*
X1596892D01*
X1601971D02*
X1607049Y352425D01*
X1614666D02*
X1619745D01*
X1622284Y354964D01*
Y360042D01*
X1619745Y362582D01*
X1614666D01*
X1612127Y360042D01*
Y354964D01*
X1614666Y352425D01*
X1627362Y362582D02*
Y354964D01*
X1629901Y352425D01*
X1637519D01*
Y362582D01*
X1642597Y352425D02*
Y362582D01*
X1650215D01*
X1652754Y360042D01*
Y352425D01*
X1667989Y367660D02*
Y352425D01*
X1660372D01*
X1657832Y354964D01*
Y360042D01*
X1660372Y362582D01*
X1667989D01*
X1680685Y352425D02*
X1675607D01*
X1673067Y354964D01*
Y360042D01*
X1675607Y362582D01*
X1680685D01*
X1683224Y360042D01*
Y357503D01*
X1673067D01*
X1698459Y367660D02*
Y352425D01*
X1690842D01*
X1688303Y354964D01*
Y360042D01*
X1690842Y362582D01*
X1698459D01*
X1596892Y314325D02*
Y329560D01*
X1604510D01*
X1607049Y327021D01*
Y321942D01*
X1604510Y319403D01*
X1596892D01*
X1601971D02*
X1607049Y314325D01*
X1614666D02*
X1619745D01*
X1622284Y316864D01*
Y321942D01*
X1619745Y324482D01*
X1614666D01*
X1612127Y321942D01*
Y316864D01*
X1614666Y314325D01*
X1627362Y324482D02*
Y316864D01*
X1629901Y314325D01*
X1637519D01*
Y324482D01*
X1642597Y314325D02*
Y324482D01*
X1650215D01*
X1652754Y321942D01*
Y314325D01*
X1667989Y329560D02*
Y314325D01*
X1660372D01*
X1657832Y316864D01*
Y321942D01*
X1660372Y324482D01*
X1667989D01*
X1680685Y314325D02*
X1675607D01*
X1673067Y316864D01*
Y321942D01*
X1675607Y324482D01*
X1680685D01*
X1683224Y321942D01*
Y319403D01*
X1673067D01*
X1698459Y329560D02*
Y314325D01*
X1690842D01*
X1688303Y316864D01*
Y321942D01*
X1690842Y324482D01*
X1698459D01*
X1447071Y390525D02*
Y405760D01*
X1454688D01*
X1457227Y403221D01*
Y398143D01*
X1454688Y395603D01*
X1447071D01*
X1464845Y400682D02*
X1469923D01*
X1472462Y398143D01*
Y390525D01*
X1464845D01*
X1462306Y393064D01*
X1464845Y395603D01*
X1472462D01*
X1487697Y405760D02*
Y390525D01*
X1480080D01*
X1477541Y393064D01*
Y398143D01*
X1480080Y400682D01*
X1487697D01*
X1447071Y352425D02*
Y367660D01*
X1454688D01*
X1457227Y365121D01*
Y360042D01*
X1454688Y357503D01*
X1447071D01*
X1464845Y362582D02*
X1469923D01*
X1472462Y360042D01*
Y352425D01*
X1464845D01*
X1462306Y354964D01*
X1464845Y357503D01*
X1472462D01*
X1487697Y367660D02*
Y352425D01*
X1480080D01*
X1477541Y354964D01*
Y360042D01*
X1480080Y362582D01*
X1487697D01*
X1447071Y329560D02*
Y319403D01*
X1452149Y314325D01*
X1457227Y319403D01*
Y329560D01*
X1462306Y314325D02*
X1467384D01*
X1464845D01*
Y324482D01*
X1462306D01*
X1477541D02*
X1482619D01*
X1485158Y321942D01*
Y314325D01*
X1477541D01*
X1475002Y316864D01*
X1477541Y319403D01*
X1485158D01*
X1066185Y405760D02*
X1076341D01*
X1071263D01*
Y390525D01*
X1083959D02*
X1089037D01*
X1091577Y393064D01*
Y398143D01*
X1089037Y400682D01*
X1083959D01*
X1081420Y398143D01*
Y393064D01*
X1083959Y390525D01*
X1096655Y385447D02*
Y400682D01*
X1104273D01*
X1106812Y398143D01*
Y393064D01*
X1104273Y390525D01*
X1096655D01*
X1127125Y405760D02*
Y390525D01*
X1137282D01*
X1144899Y400682D02*
X1149978D01*
X1152517Y398143D01*
Y390525D01*
X1144899D01*
X1142360Y393064D01*
X1144899Y395603D01*
X1152517D01*
X1157595Y400682D02*
Y393064D01*
X1160134Y390525D01*
X1167752D01*
Y387986D01*
X1165213Y385447D01*
X1162674D01*
X1167752Y390525D02*
Y400682D01*
X1180448Y390525D02*
X1175369D01*
X1172830Y393064D01*
Y398143D01*
X1175369Y400682D01*
X1180448D01*
X1182987Y398143D01*
Y395603D01*
X1172830D01*
X1188065Y400682D02*
Y390525D01*
Y395603D01*
X1190605Y398143D01*
X1193144Y400682D01*
X1195683D01*
X1218536Y398143D02*
X1228692D01*
X1249006Y405760D02*
Y390525D01*
X1256623D01*
X1259162Y393064D01*
Y395603D01*
X1256623Y398143D01*
X1249006D01*
X1256623D01*
X1259162Y400682D01*
Y403221D01*
X1256623Y405760D01*
X1249006D01*
X1266780Y390525D02*
X1271858D01*
X1274398Y393064D01*
Y398143D01*
X1271858Y400682D01*
X1266780D01*
X1264241Y398143D01*
Y393064D01*
X1266780Y390525D01*
X1282015Y403221D02*
Y400682D01*
X1279476D01*
X1284554D01*
X1282015D01*
Y393064D01*
X1284554Y390525D01*
X1294711Y403221D02*
Y400682D01*
X1292172D01*
X1297250D01*
X1294711D01*
Y393064D01*
X1297250Y390525D01*
X1307407D02*
X1312485D01*
X1315024Y393064D01*
Y398143D01*
X1312485Y400682D01*
X1307407D01*
X1304868Y398143D01*
Y393064D01*
X1307407Y390525D01*
X1320103D02*
Y400682D01*
X1322642D01*
X1325181Y398143D01*
Y390525D01*
Y398143D01*
X1327720Y400682D01*
X1330259Y398143D01*
Y390525D01*
X1350573Y405760D02*
Y390525D01*
X1360730D01*
X1368347Y400682D02*
X1373425D01*
X1375965Y398143D01*
Y390525D01*
X1368347D01*
X1365808Y393064D01*
X1368347Y395603D01*
X1375965D01*
X1381043Y400682D02*
Y393064D01*
X1383582Y390525D01*
X1391200D01*
Y387986D01*
X1388660Y385447D01*
X1386121D01*
X1391200Y390525D02*
Y400682D01*
X1403896Y390525D02*
X1398817D01*
X1396278Y393064D01*
Y398143D01*
X1398817Y400682D01*
X1403896D01*
X1406435Y398143D01*
Y395603D01*
X1396278D01*
X1411513Y400682D02*
Y390525D01*
Y395603D01*
X1414052Y398143D01*
X1416591Y400682D01*
X1419131D01*
X1066185Y367660D02*
X1076341D01*
X1071263D01*
Y352425D01*
X1083959D02*
X1089037D01*
X1091577Y354964D01*
Y360042D01*
X1089037Y362582D01*
X1083959D01*
X1081420Y360042D01*
Y354964D01*
X1083959Y352425D01*
X1096655Y347347D02*
Y362582D01*
X1104273D01*
X1106812Y360042D01*
Y354964D01*
X1104273Y352425D01*
X1096655D01*
X1127125Y367660D02*
Y352425D01*
X1137282D01*
X1144899Y362582D02*
X1149978D01*
X1152517Y360042D01*
Y352425D01*
X1144899D01*
X1142360Y354964D01*
X1144899Y357503D01*
X1152517D01*
X1157595Y362582D02*
Y354964D01*
X1160134Y352425D01*
X1167752D01*
Y349886D01*
X1165213Y347347D01*
X1162674D01*
X1167752Y352425D02*
Y362582D01*
X1180448Y352425D02*
X1175369D01*
X1172830Y354964D01*
Y360042D01*
X1175369Y362582D01*
X1180448D01*
X1182987Y360042D01*
Y357503D01*
X1172830D01*
X1188065Y362582D02*
Y352425D01*
Y357503D01*
X1190605Y360042D01*
X1193144Y362582D01*
X1195683D01*
X1218536Y360042D02*
X1228692D01*
X1249006Y367660D02*
Y352425D01*
X1256623D01*
X1259162Y354964D01*
Y357503D01*
X1256623Y360042D01*
X1249006D01*
X1256623D01*
X1259162Y362582D01*
Y365121D01*
X1256623Y367660D01*
X1249006D01*
X1266780Y352425D02*
X1271858D01*
X1274398Y354964D01*
Y360042D01*
X1271858Y362582D01*
X1266780D01*
X1264241Y360042D01*
Y354964D01*
X1266780Y352425D01*
X1282015Y365121D02*
Y362582D01*
X1279476D01*
X1284554D01*
X1282015D01*
Y354964D01*
X1284554Y352425D01*
X1294711Y365121D02*
Y362582D01*
X1292172D01*
X1297250D01*
X1294711D01*
Y354964D01*
X1297250Y352425D01*
X1307407D02*
X1312485D01*
X1315024Y354964D01*
Y360042D01*
X1312485Y362582D01*
X1307407D01*
X1304868Y360042D01*
Y354964D01*
X1307407Y352425D01*
X1320103D02*
Y362582D01*
X1322642D01*
X1325181Y360042D01*
Y352425D01*
Y360042D01*
X1327720Y362582D01*
X1330259Y360042D01*
Y352425D01*
X1350573Y367660D02*
Y352425D01*
X1360730D01*
X1368347Y362582D02*
X1373425D01*
X1375965Y360042D01*
Y352425D01*
X1368347D01*
X1365808Y354964D01*
X1368347Y357503D01*
X1375965D01*
X1381043Y362582D02*
Y354964D01*
X1383582Y352425D01*
X1391200D01*
Y349886D01*
X1388660Y347347D01*
X1386121D01*
X1391200Y352425D02*
Y362582D01*
X1403896Y352425D02*
X1398817D01*
X1396278Y354964D01*
Y360042D01*
X1398817Y362582D01*
X1403896D01*
X1406435Y360042D01*
Y357503D01*
X1396278D01*
X1411513Y362582D02*
Y352425D01*
Y357503D01*
X1414052Y360042D01*
X1416591Y362582D01*
X1419131D01*
X1066185Y329560D02*
X1076341D01*
X1071263D01*
Y314325D01*
X1083959D02*
X1089037D01*
X1091577Y316864D01*
Y321942D01*
X1089037Y324482D01*
X1083959D01*
X1081420Y321942D01*
Y316864D01*
X1083959Y314325D01*
X1096655Y309247D02*
Y324482D01*
X1104273D01*
X1106812Y321942D01*
Y316864D01*
X1104273Y314325D01*
X1096655D01*
X1127125Y329560D02*
Y314325D01*
X1137282D01*
X1144899Y324482D02*
X1149978D01*
X1152517Y321942D01*
Y314325D01*
X1144899D01*
X1142360Y316864D01*
X1144899Y319403D01*
X1152517D01*
X1157595Y324482D02*
Y316864D01*
X1160134Y314325D01*
X1167752D01*
Y311786D01*
X1165213Y309247D01*
X1162674D01*
X1167752Y314325D02*
Y324482D01*
X1180448Y314325D02*
X1175369D01*
X1172830Y316864D01*
Y321942D01*
X1175369Y324482D01*
X1180448D01*
X1182987Y321942D01*
Y319403D01*
X1172830D01*
X1188065Y324482D02*
Y314325D01*
Y319403D01*
X1190605Y321942D01*
X1193144Y324482D01*
X1195683D01*
X1218536Y321942D02*
X1228692D01*
X1249006Y329560D02*
Y314325D01*
X1256623D01*
X1259162Y316864D01*
Y319403D01*
X1256623Y321942D01*
X1249006D01*
X1256623D01*
X1259162Y324482D01*
Y327021D01*
X1256623Y329560D01*
X1249006D01*
X1266780Y314325D02*
X1271858D01*
X1274398Y316864D01*
Y321942D01*
X1271858Y324482D01*
X1266780D01*
X1264241Y321942D01*
Y316864D01*
X1266780Y314325D01*
X1282015Y327021D02*
Y324482D01*
X1279476D01*
X1284554D01*
X1282015D01*
Y316864D01*
X1284554Y314325D01*
X1294711Y327021D02*
Y324482D01*
X1292172D01*
X1297250D01*
X1294711D01*
Y316864D01*
X1297250Y314325D01*
X1307407D02*
X1312485D01*
X1315024Y316864D01*
Y321942D01*
X1312485Y324482D01*
X1307407D01*
X1304868Y321942D01*
Y316864D01*
X1307407Y314325D01*
X1320103D02*
Y324482D01*
X1322642D01*
X1325181Y321942D01*
Y314325D01*
Y321942D01*
X1327720Y324482D01*
X1330259Y321942D01*
Y314325D01*
X1350573Y329560D02*
Y314325D01*
X1360730D01*
X1368347Y324482D02*
X1373425D01*
X1375965Y321942D01*
Y314325D01*
X1368347D01*
X1365808Y316864D01*
X1368347Y319403D01*
X1375965D01*
X1381043Y324482D02*
Y316864D01*
X1383582Y314325D01*
X1391200D01*
Y311786D01*
X1388660Y309247D01*
X1386121D01*
X1391200Y314325D02*
Y324482D01*
X1403896Y314325D02*
X1398817D01*
X1396278Y316864D01*
Y321942D01*
X1398817Y324482D01*
X1403896D01*
X1406435Y321942D01*
Y319403D01*
X1396278D01*
X1411513Y324482D02*
Y314325D01*
Y319403D01*
X1414052Y321942D01*
X1416591Y324482D01*
X1419131D01*
X879799Y390525D02*
Y405760D01*
X887417D01*
X889956Y403221D01*
Y398143D01*
X887417Y395603D01*
X879799D01*
X884877D02*
X889956Y390525D01*
X897573D02*
X902652D01*
X905191Y393064D01*
Y398143D01*
X902652Y400682D01*
X897573D01*
X895034Y398143D01*
Y393064D01*
X897573Y390525D01*
X910269Y400682D02*
Y393064D01*
X912808Y390525D01*
X920426D01*
Y400682D01*
X925504Y390525D02*
Y400682D01*
X933122D01*
X935661Y398143D01*
Y390525D01*
X950896Y405760D02*
Y390525D01*
X943279D01*
X940739Y393064D01*
Y398143D01*
X943279Y400682D01*
X950896D01*
X879799Y352425D02*
Y367660D01*
X887417D01*
X889956Y365121D01*
Y360042D01*
X887417Y357503D01*
X879799D01*
X884877D02*
X889956Y352425D01*
X897573D02*
X902652D01*
X905191Y354964D01*
Y360042D01*
X902652Y362582D01*
X897573D01*
X895034Y360042D01*
Y354964D01*
X897573Y352425D01*
X910269Y362582D02*
Y354964D01*
X912808Y352425D01*
X920426D01*
Y362582D01*
X925504Y352425D02*
Y362582D01*
X933122D01*
X935661Y360042D01*
Y352425D01*
X950896Y367660D02*
Y352425D01*
X943279D01*
X940739Y354964D01*
Y360042D01*
X943279Y362582D01*
X950896D01*
X879799Y314325D02*
Y329560D01*
X887417D01*
X889956Y327021D01*
Y321942D01*
X887417Y319403D01*
X879799D01*
X884877D02*
X889956Y314325D01*
X897573D02*
X902652D01*
X905191Y316864D01*
Y321942D01*
X902652Y324482D01*
X897573D01*
X895034Y321942D01*
Y316864D01*
X897573Y314325D01*
X910269Y324482D02*
Y316864D01*
X912808Y314325D01*
X920426D01*
Y324482D01*
X925504Y314325D02*
Y324482D01*
X933122D01*
X935661Y321942D01*
Y314325D01*
X950896Y329560D02*
Y314325D01*
X943279D01*
X940739Y316864D01*
Y321942D01*
X943279Y324482D01*
X950896D01*
X751307Y390525D02*
Y405760D01*
X758924D01*
X761463Y403221D01*
Y398143D01*
X758924Y395603D01*
X751307D01*
X766542Y405760D02*
X776698D01*
X771620D01*
Y390525D01*
X781777Y405760D02*
Y390525D01*
Y398143D01*
X791934D01*
Y405760D01*
Y390525D01*
X751307Y352425D02*
Y367660D01*
X758924D01*
X761463Y365121D01*
Y360042D01*
X758924Y357503D01*
X751307D01*
X766542Y367660D02*
X776698D01*
X771620D01*
Y352425D01*
X781777Y367660D02*
Y352425D01*
Y360042D01*
X791934D01*
Y367660D01*
Y352425D01*
X751307Y314325D02*
Y329560D01*
X758924D01*
X761463Y327021D01*
Y321942D01*
X758924Y319403D01*
X751307D01*
X766542Y329560D02*
X776698D01*
X771620D01*
Y314325D01*
X781777Y329560D02*
Y314325D01*
Y321942D01*
X791934D01*
Y329560D01*
Y314325D01*
X474527Y403221D02*
X477066Y405760D01*
X482145D01*
X484684Y403221D01*
Y400682D01*
X482145Y398143D01*
X484684Y395603D01*
Y393064D01*
X482145Y390525D01*
X477066D01*
X474527Y393064D01*
Y395603D01*
X477066Y398143D01*
X474527Y400682D01*
Y403221D01*
X477066Y398143D02*
X482145D01*
X499919Y405760D02*
X494841Y403221D01*
X489762Y398143D01*
Y393064D01*
X492301Y390525D01*
X497380D01*
X499919Y393064D01*
Y395603D01*
X497380Y398143D01*
X489762D01*
X504997Y390525D02*
Y393064D01*
X507537D01*
Y390525D01*
X504997D01*
X527850Y405760D02*
X522771Y403221D01*
X517693Y398143D01*
Y393064D01*
X520232Y390525D01*
X525311D01*
X527850Y393064D01*
Y395603D01*
X525311Y398143D01*
X517693D01*
X532928Y390525D02*
X538007D01*
X535467D01*
Y405760D01*
X532928Y403221D01*
X545624Y390525D02*
Y400682D01*
X548163D01*
X550703Y398143D01*
Y390525D01*
Y398143D01*
X553242Y400682D01*
X555781Y398143D01*
Y390525D01*
X560859D02*
X565938D01*
X563398D01*
Y400682D01*
X560859D01*
X573555Y390525D02*
X578633D01*
X576094D01*
Y405760D01*
X573555D01*
X606564Y390525D02*
X601486Y395603D01*
Y400682D01*
X606564Y405760D01*
X624339Y390525D02*
X614182D01*
X624339Y400682D01*
Y403221D01*
X621800Y405760D01*
X616721D01*
X614182Y403221D01*
X629417Y390525D02*
Y393064D01*
X631956D01*
Y390525D01*
X629417D01*
X652270D02*
X642113D01*
X652270Y400682D01*
Y403221D01*
X649731Y405760D01*
X644652D01*
X642113Y403221D01*
X657348D02*
X659887Y405760D01*
X664966D01*
X667505Y403221D01*
Y393064D01*
X664966Y390525D01*
X659887D01*
X657348Y393064D01*
Y403221D01*
X672583D02*
X675122Y405760D01*
X680201D01*
X682740Y403221D01*
Y393064D01*
X680201Y390525D01*
X675122D01*
X672583Y393064D01*
Y403221D01*
X687818Y390525D02*
Y400682D01*
X690357D01*
X692896Y398143D01*
Y390525D01*
Y398143D01*
X695436Y400682D01*
X697975Y398143D01*
Y390525D01*
X703053D02*
Y400682D01*
X705592D01*
X708132Y398143D01*
Y390525D01*
Y398143D01*
X710671Y400682D01*
X713210Y398143D01*
Y390525D01*
X718288D02*
X723367Y395603D01*
Y400682D01*
X718288Y405760D01*
X482145Y352425D02*
Y367660D01*
X474527Y360042D01*
X484684D01*
X489762Y365121D02*
X492301Y367660D01*
X497380D01*
X499919Y365121D01*
Y354964D01*
X497380Y352425D01*
X492301D01*
X489762Y354964D01*
Y365121D01*
X504997Y352425D02*
Y354964D01*
X507537D01*
Y352425D01*
X504997D01*
X517693D02*
X522771D01*
X520232D01*
Y367660D01*
X517693Y365121D01*
X540546Y367660D02*
X535467Y365121D01*
X530389Y360042D01*
Y354964D01*
X532928Y352425D01*
X538007D01*
X540546Y354964D01*
Y357503D01*
X538007Y360042D01*
X530389D01*
X545624Y352425D02*
Y362582D01*
X548163D01*
X550703Y360042D01*
Y352425D01*
Y360042D01*
X553242Y362582D01*
X555781Y360042D01*
Y352425D01*
X560859D02*
X565938D01*
X563398D01*
Y362582D01*
X560859D01*
X573555Y352425D02*
X578633D01*
X576094D01*
Y367660D01*
X573555D01*
X606564Y352425D02*
X601486Y357503D01*
Y362582D01*
X606564Y367660D01*
X614182Y352425D02*
X619260D01*
X616721D01*
Y367660D01*
X614182Y365121D01*
X626878Y352425D02*
Y354964D01*
X629417D01*
Y352425D01*
X626878D01*
X639574Y365121D02*
X642113Y367660D01*
X647191D01*
X649731Y365121D01*
Y354964D01*
X647191Y352425D01*
X642113D01*
X639574Y354964D01*
Y365121D01*
X664966Y352425D02*
X654809D01*
X664966Y362582D01*
Y365121D01*
X662426Y367660D01*
X657348D01*
X654809Y365121D01*
X670044D02*
X672583Y367660D01*
X677661D01*
X680201Y365121D01*
Y354964D01*
X677661Y352425D01*
X672583D01*
X670044Y354964D01*
Y365121D01*
X685279Y352425D02*
Y362582D01*
X687818D01*
X690357Y360042D01*
Y352425D01*
Y360042D01*
X692896Y362582D01*
X695436Y360042D01*
Y352425D01*
X700514D02*
Y362582D01*
X703053D01*
X705592Y360042D01*
Y352425D01*
Y360042D01*
X708132Y362582D01*
X710671Y360042D01*
Y352425D01*
X715749D02*
X720827Y357503D01*
Y362582D01*
X715749Y367660D01*
X474527Y314325D02*
X479605D01*
X477066D01*
Y329560D01*
X474527Y327021D01*
X487223Y314325D02*
X492301D01*
X489762D01*
Y329560D01*
X487223Y327021D01*
X499919Y314325D02*
Y316864D01*
X502458D01*
Y314325D01*
X499919D01*
X512615Y327021D02*
X515154Y329560D01*
X520232D01*
X522771Y327021D01*
Y324482D01*
X520232Y321942D01*
X522771Y319403D01*
Y316864D01*
X520232Y314325D01*
X515154D01*
X512615Y316864D01*
Y319403D01*
X515154Y321942D01*
X512615Y324482D01*
Y327021D01*
X515154Y321942D02*
X520232D01*
X527850Y314325D02*
X532928D01*
X530389D01*
Y329560D01*
X527850Y327021D01*
X540546Y314325D02*
Y324482D01*
X543085D01*
X545624Y321942D01*
Y314325D01*
Y321942D01*
X548163Y324482D01*
X550703Y321942D01*
Y314325D01*
X555781D02*
X560859D01*
X558320D01*
Y324482D01*
X555781D01*
X568477Y314325D02*
X573555D01*
X571016D01*
Y329560D01*
X568477D01*
X601486Y314325D02*
X596408Y319403D01*
Y324482D01*
X601486Y329560D01*
X609104Y327021D02*
X611643Y329560D01*
X616721D01*
X619260Y327021D01*
Y316864D01*
X616721Y314325D01*
X611643D01*
X609104Y316864D01*
Y327021D01*
X624339Y314325D02*
Y316864D01*
X626878D01*
Y314325D01*
X624339D01*
X637034Y327021D02*
X639574Y329560D01*
X644652D01*
X647191Y327021D01*
Y324482D01*
X644652Y321942D01*
X642113D01*
X644652D01*
X647191Y319403D01*
Y316864D01*
X644652Y314325D01*
X639574D01*
X637034Y316864D01*
X652270Y327021D02*
X654809Y329560D01*
X659887D01*
X662426Y327021D01*
Y316864D01*
X659887Y314325D01*
X654809D01*
X652270Y316864D01*
Y327021D01*
X667505D02*
X670044Y329560D01*
X675122D01*
X677661Y327021D01*
Y316864D01*
X675122Y314325D01*
X670044D01*
X667505Y316864D01*
Y327021D01*
X682740Y314325D02*
Y324482D01*
X685279D01*
X687818Y321942D01*
Y314325D01*
Y321942D01*
X690357Y324482D01*
X692896Y321942D01*
Y314325D01*
X697975D02*
Y324482D01*
X700514D01*
X703053Y321942D01*
Y314325D01*
Y321942D01*
X705592Y324482D01*
X708132Y321942D01*
Y314325D01*
X713210D02*
X718288Y319403D01*
Y324482D01*
X713210Y329560D01*
X332324Y276225D02*
X322167D01*
X332324Y286382D01*
Y288921D01*
X329785Y291460D01*
X324707D01*
X322167Y288921D01*
X337402Y278764D02*
X339942Y276225D01*
X345020D01*
X347559Y278764D01*
Y288921D01*
X345020Y291460D01*
X339942D01*
X337402Y288921D01*
Y286382D01*
X339942Y283843D01*
X347559D01*
X352638Y288921D02*
X355177Y291460D01*
X360255D01*
X362794Y288921D01*
Y286382D01*
X360255Y283843D01*
X357716D01*
X360255D01*
X362794Y281303D01*
Y278764D01*
X360255Y276225D01*
X355177D01*
X352638Y278764D01*
X383108Y291460D02*
X393264D01*
X388186D01*
Y276225D01*
X400882D02*
X405960D01*
X408499Y278764D01*
Y283843D01*
X405960Y286382D01*
X400882D01*
X398343Y283843D01*
Y278764D01*
X400882Y276225D01*
X416117Y288921D02*
Y286382D01*
X413578D01*
X418656D01*
X416117D01*
Y278764D01*
X418656Y276225D01*
X428813Y286382D02*
X433891D01*
X436431Y283843D01*
Y276225D01*
X428813D01*
X426274Y278764D01*
X428813Y281303D01*
X436431D01*
X441509Y276225D02*
X446587D01*
X444048D01*
Y291460D01*
X441509D01*
X329785Y390525D02*
Y405760D01*
X322167Y398143D01*
X332324D01*
Y352425D02*
X322167D01*
X332324Y362582D01*
Y365121D01*
X329785Y367660D01*
X324707D01*
X322167Y365121D01*
X345020Y352425D02*
Y367660D01*
X337402Y360042D01*
X347559D01*
X332324Y314325D02*
X322167D01*
X332324Y324482D01*
Y327021D01*
X329785Y329560D01*
X324707D01*
X322167Y327021D01*
X347559Y329560D02*
X342481Y327021D01*
X337402Y321942D01*
Y316864D01*
X339942Y314325D01*
X345020D01*
X347559Y316864D01*
Y319403D01*
X345020Y321942D01*
X337402D01*
X362794Y329560D02*
X352638D01*
Y321942D01*
X357716Y324482D01*
X360255D01*
X362794Y321942D01*
Y316864D01*
X360255Y314325D01*
X355177D01*
X352638Y316864D01*
D59*
X170815Y417195D02*
X2901571D01*
X170815Y302895D02*
X2901571D01*
X170815Y264795D02*
X2901571D01*
Y455295D01*
X170815D02*
X2901571D01*
X170815Y264795D02*
Y455295D01*
X2551405Y264795D02*
Y455295D01*
X2212668Y264795D02*
Y455295D01*
X1995813Y264795D02*
Y455295D01*
X1774895Y264795D02*
Y455295D01*
X1585462Y264795D02*
Y455295D01*
X1435641Y264795D02*
Y455295D01*
X1054755Y264795D02*
Y455295D01*
X868369Y264795D02*
Y455295D01*
X739877Y264795D02*
Y455295D01*
X463097Y264795D02*
Y455295D01*
X310737Y264795D02*
Y455295D01*
D61*
X-378307Y98671D02*
G03*
X-378307Y98671I-2540J0D01*
G01*
X-148307D02*
G03*
X-148307Y98671I-2540J0D01*
G01*
Y328671D02*
G03*
X-148307Y328671I-2540J0D01*
G01*
X-378307D02*
G03*
X-378307Y328671I-2540J0D01*
G01*
X-240509Y143593D02*
X-237969Y148673D01*
X-243049D02*
X-237969D01*
X-243049D02*
X-240509Y143593D01*
X-335661Y185562D02*
X-333120Y190641D01*
X-338200D02*
X-333120D01*
X-338200D02*
X-335661Y185562D01*
X-212047Y148944D02*
X-209507Y154024D01*
X-214587D02*
X-209507D01*
X-214587D02*
X-212047Y148944D01*
X-336918Y299099D02*
X-334378Y304179D01*
X-339458D02*
X-334378D01*
X-339458D02*
X-336918Y299099D01*
X-346053D02*
X-343512Y304179D01*
X-348592D02*
X-343512D01*
X-348592D02*
X-346053Y299099D01*
Y287099D02*
X-343512Y292179D01*
X-348592D02*
X-343512D01*
X-348592D02*
X-346053Y287099D01*
X-336918D02*
X-334378Y292179D01*
X-339458D02*
X-334378D01*
X-339458D02*
X-336918Y287099D01*
X-318325Y259758D02*
X-315785Y264838D01*
X-320865D02*
X-315785D01*
X-320865D02*
X-318325Y259758D01*
X-153990Y244745D02*
X-151450Y249825D01*
X-156530D02*
X-151450D01*
X-156530D02*
X-153990Y244745D01*
X-161057Y239215D02*
X-158517Y244295D01*
X-163597D02*
X-158517D01*
X-163597D02*
X-161057Y239215D01*
X-167617Y232415D02*
X-165077Y237495D01*
X-170157D02*
X-165077D01*
X-170157D02*
X-167617Y232415D01*
X-335661Y160186D02*
X-333120Y165266D01*
X-338200D02*
X-333120D01*
X-338200D02*
X-335661Y160186D01*
X-311553Y281284D02*
X-309013Y286364D01*
X-314093D02*
X-309013D01*
X-314093D02*
X-311553Y281284D01*
X-316460Y231154D02*
X-313920Y236234D01*
X-319000D02*
X-313920D01*
X-319000D02*
X-316460Y231154D01*
X-361306Y249583D02*
X-358766Y254663D01*
X-363846D02*
X-358766D01*
X-363846D02*
X-361306Y249583D01*
X-335661Y244335D02*
X-333120Y249415D01*
X-338200D02*
X-333120D01*
X-338200D02*
X-335661Y244335D01*
Y252329D02*
X-333120Y257409D01*
X-338200D02*
X-333120D01*
X-338200D02*
X-335661Y252329D01*
X-341304Y126985D02*
X-338764Y132065D01*
X-343844D02*
X-338764D01*
X-343844D02*
X-341304Y126985D01*
X-356519D02*
X-353979Y132065D01*
X-359059D02*
X-353979D01*
X-359059D02*
X-356519Y126985D01*
X-341304Y140393D02*
X-338764Y145473D01*
X-343844D02*
X-338764D01*
X-343844D02*
X-341304Y140393D01*
X-356519D02*
X-353979Y145473D01*
X-359059D02*
X-353979D01*
X-359059D02*
X-356519Y140393D01*
X-277453Y224848D02*
X-274913Y229928D01*
X-279993D02*
X-274913D01*
X-279993D02*
X-277453Y224848D01*
X-279429Y253290D02*
X-276889Y258370D01*
X-281968D02*
X-276889D01*
X-281968D02*
X-279429Y253290D01*
X-318848Y281326D02*
X-316308Y286406D01*
X-321388D02*
X-316308D01*
X-321388D02*
X-318848Y281326D01*
X-232000Y176044D02*
X-229460Y181124D01*
X-234540D02*
X-229460D01*
X-234540D02*
X-232000Y176044D01*
X-136655Y140813D02*
X-134115Y145893D01*
X-139195D02*
X-134115D01*
X-139195D02*
X-136655Y140813D01*
X-145040D02*
X-142500Y145893D01*
X-147579D02*
X-142500D01*
X-147579D02*
X-145040Y140813D01*
X-252403Y158538D02*
X-249863Y163618D01*
X-254943D02*
X-249863D01*
X-254943D02*
X-252403Y158538D01*
X-165691Y146956D02*
X-163151Y152036D01*
X-168231D02*
X-163151D01*
X-168231D02*
X-165691Y146956D01*
X-165268Y159068D02*
X-162728Y164148D01*
X-167808D02*
X-162728D01*
X-167808D02*
X-165268Y159068D01*
X-165347Y170374D02*
X-162807Y175454D01*
X-167887D02*
X-162807D01*
X-167887D02*
X-165347Y170374D01*
X-165308Y179206D02*
X-162768Y184286D01*
X-167848D02*
X-162768D01*
X-167848D02*
X-165308Y179206D01*
X-295001Y143130D02*
X-292461Y148210D01*
X-297541D02*
X-292461D01*
X-297541D02*
X-295001Y143130D01*
X-153968Y188199D02*
X-151428Y193279D01*
X-156508D02*
X-151428D01*
X-156508D02*
X-153968Y188199D01*
X-301729Y281259D02*
X-299189Y286339D01*
X-304269D02*
X-299189D01*
X-304269D02*
X-301729Y281259D01*
X-335525Y223242D02*
X-332985Y228322D01*
X-338065D02*
X-332985D01*
X-338065D02*
X-335525Y223242D01*
X-237078Y219815D02*
X-234538Y224895D01*
X-239618D02*
X-234538D01*
X-239618D02*
X-237078Y219815D01*
X-177802Y280085D02*
X-175262Y285165D01*
X-180342D02*
X-175262D01*
X-180342D02*
X-177802Y280085D01*
X-380847Y345750D02*
X-378307Y350830D01*
X-383387D02*
X-378307D01*
X-383387D02*
X-380847Y345750D01*
X-394707Y339991D02*
X-392167Y345071D01*
X-397247D02*
X-392167D01*
X-397247D02*
X-394707Y339991D01*
X-394726Y82288D02*
X-392186Y87368D01*
X-397266D02*
X-392186D01*
X-397266D02*
X-394726Y82288D01*
X-367317Y345750D02*
X-364777Y350830D01*
X-369857D02*
X-364777D01*
X-369857D02*
X-367317Y345750D01*
X-353787D02*
X-351246Y350830D01*
X-356326D02*
X-351246D01*
X-356326D02*
X-353787Y345750D01*
X-340256D02*
X-337716Y350830D01*
X-342796D02*
X-337716D01*
X-342796D02*
X-340256Y345750D01*
X-326726D02*
X-324186Y350830D01*
X-329266D02*
X-324186D01*
X-329266D02*
X-326726Y345750D01*
X-313195D02*
X-310655Y350830D01*
X-315735D02*
X-310655D01*
X-315735D02*
X-313195Y345750D01*
X-299665D02*
X-297125Y350830D01*
X-302205D02*
X-297125D01*
X-302205D02*
X-299665Y345750D01*
X-286134D02*
X-283594Y350830D01*
X-288674D02*
X-283594D01*
X-288674D02*
X-286134Y345750D01*
X-272604D02*
X-270064Y350830D01*
X-275144D02*
X-270064D01*
X-275144D02*
X-272604Y345750D01*
X-259074D02*
X-256534Y350830D01*
X-261614D02*
X-256534D01*
X-261614D02*
X-259074Y345750D01*
X-245543D02*
X-243003Y350830D01*
X-248083D02*
X-243003D01*
X-248083D02*
X-245543Y345750D01*
X-232013D02*
X-229473Y350830D01*
X-234553D02*
X-229473D01*
X-234553D02*
X-232013Y345750D01*
X-218482D02*
X-215942Y350830D01*
X-221022D02*
X-215942D01*
X-221022D02*
X-218482Y345750D01*
X-204952D02*
X-202412Y350830D01*
X-207492D02*
X-202412D01*
X-207492D02*
X-204952Y345750D01*
X-191421D02*
X-188881Y350830D01*
X-193961D02*
X-188881D01*
X-193961D02*
X-191421Y345750D01*
X-177891D02*
X-175351Y350830D01*
X-180431D02*
X-175351D01*
X-180431D02*
X-177891Y345750D01*
X-150830D02*
X-148290Y350830D01*
X-153370D02*
X-148290D01*
X-153370D02*
X-150830Y345750D01*
X-400483Y326166D02*
X-397943Y331246D01*
X-403023D02*
X-397943D01*
X-403023D02*
X-400483Y326166D01*
Y96149D02*
X-397943Y101229D01*
X-403023D02*
X-397943D01*
X-403023D02*
X-400483Y96149D01*
Y109679D02*
X-397943Y114759D01*
X-403023D02*
X-397943D01*
X-403023D02*
X-400483Y109679D01*
Y123210D02*
X-397943Y128290D01*
X-403023D02*
X-397943D01*
X-403023D02*
X-400483Y123210D01*
Y136740D02*
X-397943Y141820D01*
X-403023D02*
X-397943D01*
X-403023D02*
X-400483Y136740D01*
Y150271D02*
X-397943Y155351D01*
X-403023D02*
X-397943D01*
X-403023D02*
X-400483Y150271D01*
Y163801D02*
X-397943Y168881D01*
X-403023D02*
X-397943D01*
X-403023D02*
X-400483Y163801D01*
Y177332D02*
X-397943Y182411D01*
X-403023D02*
X-397943D01*
X-403023D02*
X-400483Y177332D01*
Y190862D02*
X-397943Y195942D01*
X-403023D02*
X-397943D01*
X-403023D02*
X-400483Y190862D01*
Y204392D02*
X-397943Y209472D01*
X-403023D02*
X-397943D01*
X-403023D02*
X-400483Y204392D01*
Y217923D02*
X-397943Y223003D01*
X-403023D02*
X-397943D01*
X-403023D02*
X-400483Y217923D01*
Y231453D02*
X-397943Y236533D01*
X-403023D02*
X-397943D01*
X-403023D02*
X-400483Y231453D01*
Y244984D02*
X-397943Y250064D01*
X-403023D02*
X-397943D01*
X-403023D02*
X-400483Y244984D01*
Y258514D02*
X-397943Y263594D01*
X-403023D02*
X-397943D01*
X-403023D02*
X-400483Y258514D01*
Y272045D02*
X-397943Y277125D01*
X-403023D02*
X-397943D01*
X-403023D02*
X-400483Y272045D01*
Y285575D02*
X-397943Y290655D01*
X-403023D02*
X-397943D01*
X-403023D02*
X-400483Y285575D01*
Y299105D02*
X-397943Y304185D01*
X-403023D02*
X-397943D01*
X-403023D02*
X-400483Y299105D01*
Y312636D02*
X-397943Y317716D01*
X-403023D02*
X-397943D01*
X-403023D02*
X-400483Y312636D01*
X-272639Y76496D02*
X-270099Y81576D01*
X-275179D02*
X-270099D01*
X-275179D02*
X-272639Y76496D01*
X-286169D02*
X-283629Y81576D01*
X-288709D02*
X-283629D01*
X-288709D02*
X-286169Y76496D01*
X-313230D02*
X-310690Y81576D01*
X-315770D02*
X-310690D01*
X-315770D02*
X-313230Y76496D01*
X-299699D02*
X-297159Y81576D01*
X-302239D02*
X-297159D01*
X-302239D02*
X-299699Y76496D01*
X-353821D02*
X-351281Y81576D01*
X-356361D02*
X-351281D01*
X-356361D02*
X-353821Y76496D01*
X-367352D02*
X-364812Y81576D01*
X-369892D02*
X-364812D01*
X-369892D02*
X-367352Y76496D01*
X-340291D02*
X-337751Y81576D01*
X-342831D02*
X-337751D01*
X-342831D02*
X-340291Y76496D01*
X-326760D02*
X-324220Y81576D01*
X-329300D02*
X-324220D01*
X-329300D02*
X-326760Y76496D01*
X-218517D02*
X-215977Y81576D01*
X-221057D02*
X-215977D01*
X-221057D02*
X-218517Y76496D01*
X-232047D02*
X-229507Y81576D01*
X-234587D02*
X-229507D01*
X-234587D02*
X-232047Y76496D01*
X-259108D02*
X-256568Y81576D01*
X-261648D02*
X-256568D01*
X-261648D02*
X-259108Y76496D01*
X-245578D02*
X-243038Y81576D01*
X-248118D02*
X-243038D01*
X-248118D02*
X-245578Y76496D01*
X-191456D02*
X-188916Y81576D01*
X-193996D02*
X-188916D01*
X-193996D02*
X-191456Y76496D01*
X-204986D02*
X-202446Y81576D01*
X-207526D02*
X-202446D01*
X-207526D02*
X-204986Y76496D01*
X-177926D02*
X-175386Y81576D01*
X-180466D02*
X-175386D01*
X-180466D02*
X-177926Y76496D01*
X-164395D02*
X-161855Y81576D01*
X-166935D02*
X-161855D01*
X-166935D02*
X-164395Y76496D01*
X-380882D02*
X-378342Y81576D01*
X-383422D02*
X-378342D01*
X-383422D02*
X-380882Y76496D01*
X-150865D02*
X-148325Y81576D01*
X-153405D02*
X-148325D01*
X-153405D02*
X-150865Y76496D01*
X-4976Y419879D02*
X-2436Y424959D01*
X-7516D02*
X-2436D01*
X-7516D02*
X-4976Y419879D01*
X-129821Y67779D02*
X-127281Y72860D01*
X-132361D02*
X-127281D01*
X-132361D02*
X-129821Y67779D01*
X-129774Y354462D02*
X-127234Y359542D01*
X-132314D02*
X-127234D01*
X-132314D02*
X-129774Y354462D01*
X-164361Y345750D02*
X-161821Y350830D01*
X-166901D02*
X-161821D01*
X-166901D02*
X-164361Y345750D01*
X-121021Y375534D02*
X-118481Y380614D01*
X-123561D02*
X-118481D01*
X-123561D02*
X-121021Y375534D01*
X-4939Y2436D02*
X-2399Y7516D01*
X-7479D02*
X-2399D01*
X-7479D02*
X-4939Y2436D01*
X-115432Y8278D02*
X-112892Y13358D01*
X-117972D02*
X-112892D01*
X-117972D02*
X-115432Y8278D01*
X-121087Y389093D02*
X-118546Y394173D01*
X-123626D02*
X-118546D01*
X-123626D02*
X-121087Y389093D01*
Y402624D02*
X-118546Y407704D01*
X-123626D02*
X-118546D01*
X-123626D02*
X-121087Y402624D01*
X-114714Y414644D02*
X-112175Y419724D01*
X-117254D02*
X-112175D01*
X-117254D02*
X-114714Y414644D01*
X-46733Y420402D02*
X-44193Y425482D01*
X-49273D02*
X-44193D01*
X-49273D02*
X-46733Y420402D01*
X-60264D02*
X-57724Y425482D01*
X-62804D02*
X-57724D01*
X-62804D02*
X-60264Y420402D01*
X-73794D02*
X-71254Y425482D01*
X-76334D02*
X-71254D01*
X-76334D02*
X-73794Y420402D01*
X-87324D02*
X-84784Y425482D01*
X-89865D02*
X-84784D01*
X-89865D02*
X-87324Y420402D01*
X-100855D02*
X-98315Y425482D01*
X-103395D02*
X-98315D01*
X-103395D02*
X-100855Y420402D01*
X-33203D02*
X-30663Y425482D01*
X-35743D02*
X-30663D01*
X-35743D02*
X-33203Y420402D01*
X-19672D02*
X-17132Y425482D01*
X-22212D02*
X-17132D01*
X-22212D02*
X-19672Y420402D01*
X-4939Y325130D02*
X-2399Y330210D01*
X-7479D02*
X-2399D01*
X-7479D02*
X-4939Y325130D01*
Y338660D02*
X-2399Y343740D01*
X-7479D02*
X-2399D01*
X-7479D02*
X-4939Y338660D01*
Y352190D02*
X-2399Y357270D01*
X-7479D02*
X-2399D01*
X-7479D02*
X-4939Y352190D01*
Y365721D02*
X-2399Y370801D01*
X-7479D02*
X-2399D01*
X-7479D02*
X-4939Y365721D01*
Y379251D02*
X-2399Y384331D01*
X-7479D02*
X-2399D01*
X-7479D02*
X-4939Y379251D01*
Y392782D02*
X-2399Y397862D01*
X-7479D02*
X-2399D01*
X-7479D02*
X-4939Y392782D01*
Y406312D02*
X-2399Y411392D01*
X-7479D02*
X-2399D01*
X-7479D02*
X-4939Y406312D01*
Y230417D02*
X-2399Y235497D01*
X-7479D02*
X-2399D01*
X-7479D02*
X-4939Y230417D01*
Y243947D02*
X-2399Y249027D01*
X-7479D02*
X-2399D01*
X-7479D02*
X-4939Y243947D01*
Y257477D02*
X-2399Y262557D01*
X-7479D02*
X-2399D01*
X-7479D02*
X-4939Y257477D01*
Y271008D02*
X-2399Y276088D01*
X-7479D02*
X-2399D01*
X-7479D02*
X-4939Y271008D01*
Y284538D02*
X-2399Y289618D01*
X-7479D02*
X-2399D01*
X-7479D02*
X-4939Y284538D01*
Y298069D02*
X-2399Y303149D01*
X-7479D02*
X-2399D01*
X-7479D02*
X-4939Y298069D01*
Y311599D02*
X-2399Y316679D01*
X-7479D02*
X-2399D01*
X-7479D02*
X-4939Y311599D01*
Y135703D02*
X-2399Y140784D01*
X-7479D02*
X-2399D01*
X-7479D02*
X-4939Y135703D01*
Y149234D02*
X-2399Y154314D01*
X-7479D02*
X-2399D01*
X-7479D02*
X-4939Y149234D01*
Y162764D02*
X-2399Y167844D01*
X-7479D02*
X-2399D01*
X-7479D02*
X-4939Y162764D01*
Y176295D02*
X-2399Y181375D01*
X-7479D02*
X-2399D01*
X-7479D02*
X-4939Y176295D01*
Y189825D02*
X-2399Y194905D01*
X-7479D02*
X-2399D01*
X-7479D02*
X-4939Y189825D01*
Y203356D02*
X-2399Y208436D01*
X-7479D02*
X-2399D01*
X-7479D02*
X-4939Y203356D01*
Y216886D02*
X-2399Y221966D01*
X-7479D02*
X-2399D01*
X-7479D02*
X-4939Y216886D01*
Y40991D02*
X-2399Y46070D01*
X-7479D02*
X-2399D01*
X-7479D02*
X-4939Y40991D01*
Y54521D02*
X-2399Y59601D01*
X-7479D02*
X-2399D01*
X-7479D02*
X-4939Y54521D01*
Y68051D02*
X-2399Y73131D01*
X-7479D02*
X-2399D01*
X-7479D02*
X-4939Y68051D01*
Y81582D02*
X-2399Y86662D01*
X-7479D02*
X-2399D01*
X-7479D02*
X-4939Y81582D01*
Y95112D02*
X-2399Y100192D01*
X-7479D02*
X-2399D01*
X-7479D02*
X-4939Y95112D01*
Y108643D02*
X-2399Y113723D01*
X-7479D02*
X-2399D01*
X-7479D02*
X-4939Y108643D01*
Y122173D02*
X-2399Y127253D01*
X-7479D02*
X-2399D01*
X-7479D02*
X-4939Y122173D01*
Y13930D02*
X-2399Y19010D01*
X-7479D02*
X-2399D01*
X-7479D02*
X-4939Y13930D01*
Y27460D02*
X-2399Y32540D01*
X-7479D02*
X-2399D01*
X-7479D02*
X-4939Y27460D01*
X-99704Y2488D02*
X-97164Y7568D01*
X-102244D02*
X-97164D01*
X-102244D02*
X-99704Y2488D01*
X-86173D02*
X-83633Y7568D01*
X-88714D02*
X-83633D01*
X-88714D02*
X-86173Y2488D01*
X-72643D02*
X-70103Y7568D01*
X-75183D02*
X-70103D01*
X-75183D02*
X-72643Y2488D01*
X-59113D02*
X-56573Y7568D01*
X-61653D02*
X-56573D01*
X-61653D02*
X-59113Y2488D01*
X-45582D02*
X-43042Y7568D01*
X-48122D02*
X-43042D01*
X-48122D02*
X-45582Y2488D01*
X-32052D02*
X-29512Y7568D01*
X-34592D02*
X-29512D01*
X-34592D02*
X-32052Y2488D01*
X-18521D02*
X-15981Y7568D01*
X-21061D02*
X-15981D01*
X-21061D02*
X-18521Y2488D01*
X-121156Y19691D02*
X-118616Y24771D01*
X-123696D02*
X-118616D01*
X-123696D02*
X-121156Y19691D01*
Y33222D02*
X-118616Y38302D01*
X-123696D02*
X-118616D01*
X-123696D02*
X-121156Y33222D01*
X-121222Y46781D02*
X-118681Y51861D01*
X-123762D02*
X-118681D01*
X-123762D02*
X-121222Y46781D01*
X-139078Y348290D02*
X-136538Y353371D01*
X-141618D02*
X-136538D01*
X-141618D02*
X-139078Y348290D01*
X-123341Y364084D02*
X-120801Y369164D01*
X-125881D02*
X-120801D01*
X-125881D02*
X-123341Y364084D01*
X-138841Y73809D02*
X-136301Y78889D01*
X-141381D02*
X-136301D01*
X-141381D02*
X-138841Y73809D01*
X-123599Y57951D02*
X-121059Y63031D01*
X-126139D02*
X-121059D01*
X-126139D02*
X-123599Y57951D01*
X-260136Y234110D02*
X-257596Y239190D01*
X-262676D02*
X-257596D01*
X-262676D02*
X-260136Y234110D01*
X-122884Y133735D02*
X-120344Y138815D01*
X-125424D02*
X-120344D01*
X-125424D02*
X-122884Y133735D01*
Y142834D02*
X-120344Y147914D01*
X-125424D02*
X-120344D01*
X-125424D02*
X-122884Y142834D01*
Y124636D02*
X-120344Y129716D01*
X-125424D02*
X-120344D01*
X-125424D02*
X-122884Y124636D01*
X-263173Y198120D02*
X-260633Y203200D01*
X-265713D02*
X-260633D01*
X-265713D02*
X-263173Y198120D01*
X-249642D02*
X-247102Y203200D01*
X-252182D02*
X-247102D01*
X-252182D02*
X-249642Y198120D01*
X-222581D02*
X-220041Y203200D01*
X-225121D02*
X-220041D01*
X-225121D02*
X-222581Y198120D01*
X-236112D02*
X-233572Y203200D01*
X-238652D02*
X-233572D01*
X-238652D02*
X-236112Y198120D01*
X-235828Y262851D02*
X-233288Y267931D01*
X-238368D02*
X-233288D01*
X-238368D02*
X-235828Y262851D01*
X-232019Y88900D02*
X-229479Y93980D01*
X-234559D02*
X-229479D01*
X-234559D02*
X-232019Y88900D01*
X-218489D02*
X-215949Y93980D01*
X-221029D02*
X-215949D01*
X-221029D02*
X-218489Y88900D01*
X-245550D02*
X-243010Y93980D01*
X-248090D02*
X-243010D01*
X-248090D02*
X-245550Y88900D01*
X-259080D02*
X-256540Y93980D01*
X-261620D02*
X-256540D01*
X-261620D02*
X-259080Y88900D01*
X-133061Y157764D02*
X-130521Y162844D01*
X-135601D02*
X-130521D01*
X-135601D02*
X-133061Y157764D01*
X-140115Y262781D02*
X-137576Y267861D01*
X-142655D02*
X-137576D01*
X-142655D02*
X-140115Y262781D01*
Y255521D02*
X-137576Y260601D01*
X-142655D02*
X-137576D01*
X-142655D02*
X-140115Y255521D01*
X-63299Y243947D02*
X-60759Y249027D01*
X-65839D02*
X-60759D01*
X-65839D02*
X-63299Y243947D01*
X-196828Y261931D02*
X-194288Y267011D01*
X-199368D02*
X-194288D01*
X-199368D02*
X-196828Y261931D01*
X-197311Y279456D02*
X-194771Y284536D01*
X-199851D02*
X-194771D01*
X-199851D02*
X-197311Y279456D01*
X-259269Y253290D02*
X-256729Y258370D01*
X-261809D02*
X-256729D01*
X-261809D02*
X-259269Y253290D01*
X-268263Y264263D02*
X-265723Y269343D01*
X-270803D02*
X-265723D01*
X-270803D02*
X-268263Y264263D01*
X-249150Y270805D02*
X-246610Y275885D01*
X-251690D02*
X-246610D01*
X-251690D02*
X-249150Y270805D01*
X-155625Y142311D02*
X-153085Y147391D01*
X-158165D02*
X-153085D01*
X-158165D02*
X-155625Y142311D01*
X-160437Y132164D02*
X-157897Y137244D01*
X-162977D02*
X-157897D01*
X-162977D02*
X-160437Y132164D01*
X-285080Y204914D02*
X-282540Y209994D01*
X-287620D02*
X-282540D01*
X-287620D02*
X-285080Y204914D01*
X-297445Y204536D02*
X-294905Y209616D01*
X-299985D02*
X-294905D01*
X-299985D02*
X-297445Y204536D01*
X-308697Y210910D02*
X-306157Y215990D01*
X-311237D02*
X-306157D01*
X-311237D02*
X-308697Y210910D01*
X-312542Y194241D02*
X-310002Y199321D01*
X-315082D02*
X-310002D01*
X-315082D02*
X-312542Y194241D01*
X-321989Y199597D02*
X-319449Y204678D01*
X-324529D02*
X-319449D01*
X-324529D02*
X-321989Y199597D01*
Y175557D02*
X-319449Y180637D01*
X-324529D02*
X-319449D01*
X-324529D02*
X-321989Y175557D01*
X-312542Y170201D02*
X-310002Y175281D01*
X-315082D02*
X-310002D01*
X-315082D02*
X-312542Y170201D01*
X-308978Y159772D02*
X-306438Y164852D01*
X-311518D02*
X-306438D01*
X-311518D02*
X-308978Y159772D01*
X-315581Y152047D02*
X-313041Y157127D01*
X-318121D02*
X-313041D01*
X-318121D02*
X-315581Y152047D01*
X-208726Y306612D02*
X-206186Y311692D01*
X-211266D02*
X-206186D01*
X-211266D02*
X-208726Y306612D01*
X-221387Y306882D02*
X-218847Y311962D01*
X-223927D02*
X-218847D01*
X-223927D02*
X-221387Y306882D01*
X-134622Y276360D02*
X-132083Y281440D01*
X-137163D02*
X-132083D01*
X-137163D02*
X-134622Y276360D01*
X-140305Y282283D02*
X-137765Y287363D01*
X-142845D02*
X-137765D01*
X-142845D02*
X-140305Y282283D01*
X-218334Y265402D02*
X-215794Y270482D01*
X-220874D02*
X-215794D01*
X-220874D02*
X-218334Y265402D01*
X-212439D02*
X-209899Y270482D01*
X-214979D02*
X-209899D01*
X-214979D02*
X-212439Y265402D01*
X-206544D02*
X-204004Y270482D01*
X-209084D02*
X-204004D01*
X-209084D02*
X-206544Y265402D01*
X-290953Y235629D02*
X-288413Y240709D01*
X-293493D02*
X-288413D01*
X-293493D02*
X-290953Y235629D01*
Y241525D02*
X-288413Y246605D01*
X-293493D02*
X-288413D01*
X-293493D02*
X-290953Y241525D01*
Y247420D02*
X-288413Y252500D01*
X-293493D02*
X-288413D01*
X-293493D02*
X-290953Y247420D01*
X-335082Y233789D02*
X-332542Y238869D01*
X-337622D02*
X-332542D01*
X-337622D02*
X-335082Y233789D01*
X-134360Y236850D02*
X-131820Y241930D01*
X-136900D02*
X-131820D01*
X-136900D02*
X-134360Y236850D01*
X-134438Y243966D02*
X-131898Y249046D01*
X-136978D02*
X-131898D01*
X-136978D02*
X-134438Y243966D01*
X-217026Y237096D02*
X-214486Y242176D01*
X-219566D02*
X-214486D01*
X-219566D02*
X-217026Y237096D01*
X-224540D02*
X-222000Y242176D01*
X-227080D02*
X-222000D01*
X-227080D02*
X-224540Y237096D01*
X-231448D02*
X-228908Y242176D01*
X-233988D02*
X-228908D01*
X-233988D02*
X-231448Y237096D01*
X-222581Y211650D02*
X-220041Y216730D01*
X-225121D02*
X-220041D01*
X-225121D02*
X-222581Y211650D01*
Y225181D02*
X-220041Y230261D01*
X-225121D02*
X-220041D01*
X-225121D02*
X-222581Y225181D01*
X-209051Y198120D02*
X-206511Y203200D01*
X-211591D02*
X-206511D01*
X-211591D02*
X-209051Y198120D01*
Y211650D02*
X-206511Y216730D01*
X-211591D02*
X-206511D01*
X-211591D02*
X-209051Y211650D01*
Y225181D02*
X-206511Y230261D01*
X-211591D02*
X-206511D01*
X-211591D02*
X-209051Y225181D01*
X-316461Y140350D02*
X-313921Y145430D01*
X-319001D02*
X-313921D01*
X-319001D02*
X-316461Y140350D01*
X-330027Y280571D02*
X-327487Y285651D01*
X-332567D02*
X-327487D01*
X-332567D02*
X-330027Y280571D01*
X-202650Y248200D02*
X-200110Y253280D01*
X-205190D02*
X-200110D01*
X-205190D02*
X-202650Y248200D01*
X-137728Y180460D02*
X-135188Y185540D01*
X-140268D02*
X-135188D01*
X-140268D02*
X-137728Y180460D01*
X-143066Y169995D02*
X-140526Y175075D01*
X-145606D02*
X-140526D01*
X-145606D02*
X-143066Y169995D01*
X-148405Y222042D02*
X-145865Y227122D01*
X-150945D02*
X-145865D01*
X-150945D02*
X-148405Y222042D01*
X-144675Y230096D02*
X-142135Y235176D01*
X-147215D02*
X-142135D01*
X-147215D02*
X-144675Y230096D01*
X-303093Y222827D02*
X-300553Y227907D01*
X-305633D02*
X-300553D01*
X-305633D02*
X-303093Y222827D01*
X-305415Y234459D02*
X-302875Y239539D01*
X-307955D02*
X-302875D01*
X-307955D02*
X-305415Y234459D01*
X-234677Y274220D02*
X-232137Y279300D01*
X-237217D02*
X-232137D01*
X-237217D02*
X-234677Y274220D01*
X-200562Y236662D02*
X-198022Y241742D01*
X-203102D02*
X-198022D01*
X-203102D02*
X-200562Y236662D01*
X-159037Y280495D02*
X-156497Y285575D01*
X-161577D02*
X-156497D01*
X-161577D02*
X-159037Y280495D01*
X-160226Y295883D02*
X-157687Y300963D01*
X-162766D02*
X-157687D01*
X-162766D02*
X-160226Y295883D01*
X-262847Y318872D02*
X-260307Y323952D01*
X-265387D02*
X-260307D01*
X-265387D02*
X-262847Y318872D01*
X-276378D02*
X-273838Y323952D01*
X-278918D02*
X-273838D01*
X-278918D02*
X-276378Y318872D01*
X-249317D02*
X-246777Y323952D01*
X-251857D02*
X-246777D01*
X-251857D02*
X-249317Y318872D01*
X-235786D02*
X-233246Y323952D01*
X-238326D02*
X-233246D01*
X-238326D02*
X-235786Y318872D01*
X-222256D02*
X-219716Y323952D01*
X-224796D02*
X-219716D01*
X-224796D02*
X-222256Y318872D01*
X-195195D02*
X-192655Y323952D01*
X-197735D02*
X-192655D01*
X-197735D02*
X-195195Y318872D01*
X-208726D02*
X-206186Y323952D01*
X-211266D02*
X-206186D01*
X-211266D02*
X-208726Y318872D01*
X-118499Y198147D02*
X-115959Y203227D01*
X-121039D02*
X-115959D01*
X-121039D02*
X-118499Y198147D01*
X-113499Y217212D02*
X-110959Y222292D01*
X-116039D02*
X-110959D01*
X-116039D02*
X-113499Y217212D01*
X-103658Y226562D02*
X-101118Y231642D01*
X-106198D02*
X-101118D01*
X-106198D02*
X-103658Y226562D01*
X-94392Y236095D02*
X-91852Y241175D01*
X-96932D02*
X-91852D01*
X-96932D02*
X-94392Y236095D01*
X-107923D02*
X-105383Y241175D01*
X-110463D02*
X-105383D01*
X-110463D02*
X-107923Y236095D01*
X-117188Y226562D02*
X-114648Y231642D01*
X-119728D02*
X-114648D01*
X-119728D02*
X-117188Y226562D01*
X-109234Y207680D02*
X-106694Y212759D01*
X-111774D02*
X-106694D01*
X-111774D02*
X-109234Y207680D01*
X-99969Y217212D02*
X-97429Y222292D01*
X-102509D02*
X-97429D01*
X-102509D02*
X-99969Y217212D01*
X-90127Y226562D02*
X-87587Y231642D01*
X-92667D02*
X-87587D01*
X-92667D02*
X-90127Y226562D01*
X-126453Y217029D02*
X-123913Y222109D01*
X-128993D02*
X-123913D01*
X-128993D02*
X-126453Y217029D01*
X-122764Y207680D02*
X-120224Y212759D01*
X-125304D02*
X-120224D01*
X-125304D02*
X-122764Y207680D01*
X-36238Y13930D02*
X-33698Y19010D01*
X-38778D02*
X-33698D01*
X-38778D02*
X-36238Y13930D01*
Y27460D02*
X-33698Y32540D01*
X-38778D02*
X-33698D01*
X-38778D02*
X-36238Y27460D01*
Y40991D02*
X-33698Y46070D01*
X-38778D02*
X-33698D01*
X-38778D02*
X-36238Y40991D01*
X-22707Y13930D02*
X-20167Y19010D01*
X-25247D02*
X-20167D01*
X-25247D02*
X-22707Y13930D01*
Y27460D02*
X-20167Y32540D01*
X-25247D02*
X-20167D01*
X-25247D02*
X-22707Y27460D01*
Y40991D02*
X-20167Y46070D01*
X-25247D02*
X-20167D01*
X-25247D02*
X-22707Y40991D01*
X-36238Y135703D02*
X-33698Y140784D01*
X-38778D02*
X-33698D01*
X-38778D02*
X-36238Y135703D01*
X-22707D02*
X-20167Y140784D01*
X-25247D02*
X-20167D01*
X-25247D02*
X-22707Y135703D01*
Y216886D02*
X-20167Y221966D01*
X-25247D02*
X-20167D01*
X-25247D02*
X-22707Y216886D01*
Y203356D02*
X-20167Y208436D01*
X-25247D02*
X-20167D01*
X-25247D02*
X-22707Y203356D01*
X-36238Y216886D02*
X-33698Y221966D01*
X-38778D02*
X-33698D01*
X-38778D02*
X-36238Y216886D01*
Y203356D02*
X-33698Y208436D01*
X-38778D02*
X-33698D01*
X-38778D02*
X-36238Y203356D01*
X-22707Y274310D02*
X-20167Y279390D01*
X-25247D02*
X-20167D01*
X-25247D02*
X-22707Y274310D01*
X-36238D02*
X-33698Y279390D01*
X-38778D02*
X-33698D01*
X-38778D02*
X-36238Y274310D01*
X-22707Y301371D02*
X-20167Y306451D01*
X-25247D02*
X-20167D01*
X-25247D02*
X-22707Y301371D01*
X-36238D02*
X-33698Y306451D01*
X-38778D02*
X-33698D01*
X-38778D02*
X-36238Y301371D01*
X-22707Y355492D02*
X-20167Y360572D01*
X-25247D02*
X-20167D01*
X-25247D02*
X-22707Y355492D01*
Y328432D02*
X-20167Y333512D01*
X-25247D02*
X-20167D01*
X-25247D02*
X-22707Y328432D01*
X-36238Y355492D02*
X-33698Y360572D01*
X-38778D02*
X-33698D01*
X-38778D02*
X-36238Y355492D01*
Y328432D02*
X-33698Y333512D01*
X-38778D02*
X-33698D01*
X-38778D02*
X-36238Y328432D01*
X-22707Y68051D02*
X-20167Y73131D01*
X-25247D02*
X-20167D01*
X-25247D02*
X-22707Y68051D01*
Y54521D02*
X-20167Y59601D01*
X-25247D02*
X-20167D01*
X-25247D02*
X-22707Y54521D01*
Y81582D02*
X-20167Y86662D01*
X-25247D02*
X-20167D01*
X-25247D02*
X-22707Y81582D01*
Y95112D02*
X-20167Y100192D01*
X-25247D02*
X-20167D01*
X-25247D02*
X-22707Y95112D01*
Y122173D02*
X-20167Y127253D01*
X-25247D02*
X-20167D01*
X-25247D02*
X-22707Y122173D01*
Y108643D02*
X-20167Y113723D01*
X-25247D02*
X-20167D01*
X-25247D02*
X-22707Y108643D01*
X-77415Y162018D02*
X-72335D01*
Y167098D01*
X-77415D02*
X-72335D01*
X-77415Y162018D02*
Y167098D01*
X-52015Y162018D02*
X-46935D01*
Y167098D01*
X-52015D02*
X-46935D01*
X-52015Y162018D02*
Y167098D01*
X-77415Y136618D02*
X-72335D01*
Y141698D01*
X-77415D02*
X-72335D01*
X-77415Y136618D02*
Y141698D01*
X-52015Y136618D02*
X-46935D01*
Y141698D01*
X-52015D02*
X-46935D01*
X-52015Y136618D02*
Y141698D01*
X-77415Y111218D02*
X-72335D01*
Y116298D01*
X-77415D02*
X-72335D01*
X-77415Y111218D02*
Y116298D01*
X-52015Y111218D02*
X-46935D01*
Y116298D01*
X-52015D02*
X-46935D01*
X-52015Y111218D02*
Y116298D01*
X-77415Y85818D02*
X-72335D01*
Y90898D01*
X-77415D02*
X-72335D01*
X-77415Y85818D02*
Y90898D01*
X-52015Y85818D02*
X-46935D01*
Y90898D01*
X-52015D02*
X-46935D01*
X-52015Y85818D02*
Y90898D01*
X-77415Y60418D02*
X-72335D01*
Y65498D01*
X-77415D02*
X-72335D01*
X-77415Y60418D02*
Y65498D01*
X-52015Y60418D02*
X-46935D01*
Y65498D01*
X-52015D02*
X-46935D01*
X-52015Y60418D02*
Y65498D01*
X-77415Y35018D02*
X-72335D01*
Y40098D01*
X-77415D02*
X-72335D01*
X-77415Y35018D02*
Y40098D01*
X-52015Y35018D02*
X-46935D01*
Y40098D01*
X-52015D02*
X-46935D01*
X-52015Y35018D02*
Y40098D01*
X-77810Y390315D02*
X-72730D01*
Y395395D01*
X-77810D02*
X-72730D01*
X-77810Y390315D02*
Y395395D01*
X-52410Y390315D02*
X-47330D01*
Y395395D01*
X-52410D02*
X-47330D01*
X-52410Y390315D02*
Y395395D01*
X-77810Y364915D02*
X-72730D01*
Y369995D01*
X-77810D02*
X-72730D01*
X-77810Y364915D02*
Y369995D01*
X-52410Y364915D02*
X-47330D01*
Y369995D01*
X-52410D02*
X-47330D01*
X-52410Y364915D02*
Y369995D01*
X-77810Y339515D02*
X-72730D01*
Y344595D01*
X-77810D02*
X-72730D01*
X-77810Y339515D02*
Y344595D01*
X-52410Y339515D02*
X-47330D01*
Y344595D01*
X-52410D02*
X-47330D01*
X-52410Y339515D02*
Y344595D01*
X-77810Y314115D02*
X-72730D01*
Y319195D01*
X-77810D02*
X-72730D01*
X-77810Y314115D02*
Y319195D01*
X-52410Y314115D02*
X-47330D01*
Y319195D01*
X-52410D02*
X-47330D01*
X-52410Y314115D02*
Y319195D01*
X-77810Y288715D02*
X-72730D01*
Y293795D01*
X-77810D02*
X-72730D01*
X-77810Y288715D02*
Y293795D01*
X-52410Y288715D02*
X-47330D01*
Y293795D01*
X-52410D02*
X-47330D01*
X-52410Y288715D02*
Y293795D01*
X-77810Y263315D02*
X-72730D01*
Y268395D01*
X-77810D02*
X-72730D01*
X-77810Y263315D02*
Y268395D01*
X-52410Y263315D02*
X-47330D01*
Y268395D01*
X-52410D02*
X-47330D01*
X-52410Y263315D02*
Y268395D01*
D62*
X2562835Y446907D02*
Y428625D01*
Y437766D01*
X2575023D01*
Y446907D01*
Y428625D01*
X2584164D02*
X2590258D01*
X2593305Y431672D01*
Y437766D01*
X2590258Y440813D01*
X2584164D01*
X2581117Y437766D01*
Y431672D01*
X2584164Y428625D01*
X2599399D02*
X2605493D01*
X2602446D01*
Y446907D01*
X2599399D01*
X2623775Y428625D02*
X2617681D01*
X2614634Y431672D01*
Y437766D01*
X2617681Y440813D01*
X2623775D01*
X2626822Y437766D01*
Y434719D01*
X2614634D01*
X2651198Y446907D02*
X2663386D01*
X2657292D01*
Y428625D01*
X2672527D02*
X2678621D01*
X2681668Y431672D01*
Y437766D01*
X2678621Y440813D01*
X2672527D01*
X2669480Y437766D01*
Y431672D01*
X2672527Y428625D01*
X2687762D02*
X2693856D01*
X2690809D01*
Y446907D01*
X2687762D01*
X2712138Y428625D02*
X2706044D01*
X2702997Y431672D01*
Y437766D01*
X2706044Y440813D01*
X2712138D01*
X2715186Y437766D01*
Y434719D01*
X2702997D01*
X2721279Y440813D02*
Y428625D01*
Y434719D01*
X2724326Y437766D01*
X2727373Y440813D01*
X2730421D01*
X2742609D02*
X2748703D01*
X2751750Y437766D01*
Y428625D01*
X2742609D01*
X2739561Y431672D01*
X2742609Y434719D01*
X2751750D01*
X2757844Y428625D02*
Y440813D01*
X2766985D01*
X2770032Y437766D01*
Y428625D01*
X2788314Y440813D02*
X2779173D01*
X2776126Y437766D01*
Y431672D01*
X2779173Y428625D01*
X2788314D01*
X2803549D02*
X2797455D01*
X2794408Y431672D01*
Y437766D01*
X2797455Y440813D01*
X2803549D01*
X2806596Y437766D01*
Y434719D01*
X2794408D01*
X2837066Y428625D02*
X2830972Y434719D01*
Y440813D01*
X2837066Y446907D01*
X2846207Y437766D02*
X2858395D01*
X2864489Y428625D02*
X2870583Y434719D01*
Y440813D01*
X2864489Y446907D01*
X2224098D02*
Y428625D01*
Y437766D01*
X2236286D01*
Y446907D01*
Y428625D01*
X2245427D02*
X2251521D01*
X2254568Y431672D01*
Y437766D01*
X2251521Y440813D01*
X2245427D01*
X2242380Y437766D01*
Y431672D01*
X2245427Y428625D01*
X2260663D02*
X2266756D01*
X2263710D01*
Y446907D01*
X2260663D01*
X2285039Y428625D02*
X2278945D01*
X2275898Y431672D01*
Y437766D01*
X2278945Y440813D01*
X2285039D01*
X2288086Y437766D01*
Y434719D01*
X2275898D01*
X2312462Y446907D02*
X2324650D01*
X2318556D01*
Y428625D01*
X2333791D02*
X2339885D01*
X2342932Y431672D01*
Y437766D01*
X2339885Y440813D01*
X2333791D01*
X2330744Y437766D01*
Y431672D01*
X2333791Y428625D01*
X2349026D02*
X2355120D01*
X2352073D01*
Y446907D01*
X2349026D01*
X2373402Y428625D02*
X2367308D01*
X2364261Y431672D01*
Y437766D01*
X2367308Y440813D01*
X2373402D01*
X2376449Y437766D01*
Y434719D01*
X2364261D01*
X2382543Y440813D02*
Y428625D01*
Y434719D01*
X2385590Y437766D01*
X2388637Y440813D01*
X2391684D01*
X2403872D02*
X2409966D01*
X2413013Y437766D01*
Y428625D01*
X2403872D01*
X2400825Y431672D01*
X2403872Y434719D01*
X2413013D01*
X2419107Y428625D02*
Y440813D01*
X2428248D01*
X2431295Y437766D01*
Y428625D01*
X2449577Y440813D02*
X2440436D01*
X2437389Y437766D01*
Y431672D01*
X2440436Y428625D01*
X2449577D01*
X2464812D02*
X2458718D01*
X2455671Y431672D01*
Y437766D01*
X2458718Y440813D01*
X2464812D01*
X2467859Y437766D01*
Y434719D01*
X2455671D01*
X2498329Y428625D02*
X2492236Y434719D01*
Y440813D01*
X2498329Y446907D01*
X2507471Y437766D02*
X2519659D01*
X2513565Y443860D02*
Y431672D01*
X2525753Y428625D02*
X2531847Y434719D01*
Y440813D01*
X2525753Y446907D01*
X2007242D02*
Y428625D01*
X2016384D01*
X2019431Y431672D01*
Y443860D01*
X2016384Y446907D01*
X2007242D01*
X2034666Y428625D02*
X2028572D01*
X2025524Y431672D01*
Y437766D01*
X2028572Y440813D01*
X2034666D01*
X2037713Y437766D01*
Y434719D01*
X2025524D01*
X2043807Y428625D02*
X2052948D01*
X2055995Y431672D01*
X2052948Y434719D01*
X2046854D01*
X2043807Y437766D01*
X2046854Y440813D01*
X2055995D01*
X2074277D02*
X2065136D01*
X2062089Y437766D01*
Y431672D01*
X2065136Y428625D01*
X2074277D01*
X2080371Y440813D02*
Y428625D01*
Y434719D01*
X2083418Y437766D01*
X2086465Y440813D01*
X2089512D01*
X2098653Y428625D02*
X2104747D01*
X2101700D01*
Y440813D01*
X2098653D01*
X2113888Y422531D02*
Y440813D01*
X2123029D01*
X2126076Y437766D01*
Y431672D01*
X2123029Y428625D01*
X2113888D01*
X2135217Y443860D02*
Y440813D01*
X2132170D01*
X2138264D01*
X2135217D01*
Y431672D01*
X2138264Y428625D01*
X2147405D02*
X2153499D01*
X2150452D01*
Y440813D01*
X2147405D01*
X2165687Y428625D02*
X2171781D01*
X2174828Y431672D01*
Y437766D01*
X2171781Y440813D01*
X2165687D01*
X2162640Y437766D01*
Y431672D01*
X2165687Y428625D01*
X2180922D02*
Y440813D01*
X2190063D01*
X2193110Y437766D01*
Y428625D01*
X1786325Y446907D02*
X1798513D01*
X1792419D01*
Y428625D01*
X1813748D02*
X1807654D01*
X1804607Y431672D01*
Y437766D01*
X1807654Y440813D01*
X1813748D01*
X1816795Y437766D01*
Y434719D01*
X1804607D01*
X1822889Y428625D02*
Y440813D01*
X1825936D01*
X1828983Y437766D01*
Y428625D01*
Y437766D01*
X1832030Y440813D01*
X1835077Y437766D01*
Y428625D01*
X1841171Y422531D02*
Y440813D01*
X1850312D01*
X1853359Y437766D01*
Y431672D01*
X1850312Y428625D01*
X1841171D01*
X1859453D02*
X1865547D01*
X1862500D01*
Y446907D01*
X1859453D01*
X1877735Y440813D02*
X1883829D01*
X1886876Y437766D01*
Y428625D01*
X1877735D01*
X1874688Y431672D01*
X1877735Y434719D01*
X1886876D01*
X1896017Y443860D02*
Y440813D01*
X1892970D01*
X1899064D01*
X1896017D01*
Y431672D01*
X1899064Y428625D01*
X1917346D02*
X1911252D01*
X1908205Y431672D01*
Y437766D01*
X1911252Y440813D01*
X1917346D01*
X1920394Y437766D01*
Y434719D01*
X1908205D01*
X1596892Y428625D02*
Y446907D01*
X1606033D01*
X1609080Y443860D01*
Y437766D01*
X1606033Y434719D01*
X1596892D01*
X1618221Y440813D02*
X1624315D01*
X1627362Y437766D01*
Y428625D01*
X1618221D01*
X1615174Y431672D01*
X1618221Y434719D01*
X1627362D01*
X1645644Y446907D02*
Y428625D01*
X1636503D01*
X1633456Y431672D01*
Y437766D01*
X1636503Y440813D01*
X1645644D01*
X1682209Y443860D02*
X1679162Y446907D01*
X1673067D01*
X1670020Y443860D01*
Y440813D01*
X1673067Y437766D01*
X1679162D01*
X1682209Y434719D01*
Y431672D01*
X1679162Y428625D01*
X1673067D01*
X1670020Y431672D01*
X1688303Y446907D02*
Y428625D01*
Y437766D01*
X1691350Y440813D01*
X1697444D01*
X1700491Y437766D01*
Y428625D01*
X1709632Y440813D02*
X1715726D01*
X1718773Y437766D01*
Y428625D01*
X1709632D01*
X1706585Y431672D01*
X1709632Y434719D01*
X1718773D01*
X1724867Y422531D02*
Y440813D01*
X1734008D01*
X1737055Y437766D01*
Y431672D01*
X1734008Y428625D01*
X1724867D01*
X1752290D02*
X1746196D01*
X1743149Y431672D01*
Y437766D01*
X1746196Y440813D01*
X1752290D01*
X1755337Y437766D01*
Y434719D01*
X1743149D01*
X1447071Y446907D02*
Y434719D01*
X1453165Y428625D01*
X1459259Y434719D01*
Y446907D01*
X1465353Y428625D02*
X1471447D01*
X1468400D01*
Y440813D01*
X1465353D01*
X1483635D02*
X1489729D01*
X1492776Y437766D01*
Y428625D01*
X1483635D01*
X1480588Y431672D01*
X1483635Y434719D01*
X1492776D01*
X1498870Y428625D02*
X1511058Y440813D01*
X1517152Y428625D02*
Y446907D01*
X1526293D01*
X1529340Y443860D01*
Y437766D01*
X1526293Y434719D01*
X1517152D01*
X1538481Y440813D02*
X1544575D01*
X1547622Y437766D01*
Y428625D01*
X1538481D01*
X1535434Y431672D01*
X1538481Y434719D01*
X1547622D01*
X1565904Y446907D02*
Y428625D01*
X1556763D01*
X1553716Y431672D01*
Y437766D01*
X1556763Y440813D01*
X1565904D01*
X1066185Y446907D02*
Y428625D01*
X1075326D01*
X1078373Y431672D01*
Y443860D01*
X1075326Y446907D01*
X1066185D01*
X1084467Y440813D02*
Y428625D01*
Y434719D01*
X1087514Y437766D01*
X1090561Y440813D01*
X1093608D01*
X1102749Y428625D02*
X1108843D01*
X1105796D01*
Y440813D01*
X1102749D01*
X1117984Y428625D02*
X1124078D01*
X1121031D01*
Y446907D01*
X1117984D01*
X1133219Y428625D02*
X1139313D01*
X1136266D01*
Y446907D01*
X1133219D01*
X1166736D02*
Y428625D01*
X1178924D01*
X1188065Y440813D02*
X1194159D01*
X1197206Y437766D01*
Y428625D01*
X1188065D01*
X1185018Y431672D01*
X1188065Y434719D01*
X1197206D01*
X1203300Y440813D02*
Y431672D01*
X1206347Y428625D01*
X1215489D01*
Y425578D01*
X1212441Y422531D01*
X1209394D01*
X1215489Y428625D02*
Y440813D01*
X1230723Y428625D02*
X1224630D01*
X1221582Y431672D01*
Y437766D01*
X1224630Y440813D01*
X1230723D01*
X1233771Y437766D01*
Y434719D01*
X1221582D01*
X1239865Y440813D02*
Y428625D01*
Y434719D01*
X1242912Y437766D01*
X1245959Y440813D01*
X1249006D01*
X1276429Y428625D02*
Y446907D01*
X1285570D01*
X1288617Y443860D01*
Y437766D01*
X1285570Y434719D01*
X1276429D01*
X1297758Y440813D02*
X1303852D01*
X1306899Y437766D01*
Y428625D01*
X1297758D01*
X1294711Y431672D01*
X1297758Y434719D01*
X1306899D01*
X1312993Y428625D02*
X1319087D01*
X1316040D01*
Y440813D01*
X1312993D01*
X1328228D02*
Y428625D01*
Y434719D01*
X1331275Y437766D01*
X1334322Y440813D01*
X1337369D01*
X879799Y446907D02*
Y428625D01*
Y437766D01*
X891987D01*
Y446907D01*
Y428625D01*
X901128D02*
X907222D01*
X910269Y431672D01*
Y437766D01*
X907222Y440813D01*
X901128D01*
X898081Y437766D01*
Y431672D01*
X901128Y428625D01*
X916363D02*
X922457D01*
X919410D01*
Y446907D01*
X916363D01*
X940739Y428625D02*
X934645D01*
X931598Y431672D01*
Y437766D01*
X934645Y440813D01*
X940739D01*
X943786Y437766D01*
Y434719D01*
X931598D01*
X968163Y446907D02*
X980350D01*
X974257D01*
Y428625D01*
X986445Y440813D02*
Y431672D01*
X989492Y428625D01*
X998633D01*
Y425578D01*
X995586Y422531D01*
X992539D01*
X998633Y428625D02*
Y440813D01*
X1004727Y422531D02*
Y440813D01*
X1013868D01*
X1016915Y437766D01*
Y431672D01*
X1013868Y428625D01*
X1004727D01*
X1032150D02*
X1026056D01*
X1023009Y431672D01*
Y437766D01*
X1026056Y440813D01*
X1032150D01*
X1035197Y437766D01*
Y434719D01*
X1023009D01*
X751307Y428625D02*
Y446907D01*
X760448D01*
X763495Y443860D01*
Y437766D01*
X760448Y434719D01*
X751307D01*
X769589Y428625D02*
X775683D01*
X772636D01*
Y446907D01*
X769589D01*
X787871Y440813D02*
X793965D01*
X797012Y437766D01*
Y428625D01*
X787871D01*
X784824Y431672D01*
X787871Y434719D01*
X797012D01*
X806153Y443860D02*
Y440813D01*
X803106D01*
X809200D01*
X806153D01*
Y431672D01*
X809200Y428625D01*
X827482D02*
X821388D01*
X818341Y431672D01*
Y437766D01*
X821388Y440813D01*
X827482D01*
X830529Y437766D01*
Y434719D01*
X818341D01*
X848811Y446907D02*
Y428625D01*
X839670D01*
X836623Y431672D01*
Y437766D01*
X839670Y440813D01*
X848811D01*
X474527Y446907D02*
Y428625D01*
Y437766D01*
X486715D01*
Y446907D01*
Y428625D01*
X495856D02*
X501950D01*
X504997Y431672D01*
Y437766D01*
X501950Y440813D01*
X495856D01*
X492809Y437766D01*
Y431672D01*
X495856Y428625D01*
X511091D02*
X517185D01*
X514138D01*
Y446907D01*
X511091D01*
X535467Y428625D02*
X529373D01*
X526326Y431672D01*
Y437766D01*
X529373Y440813D01*
X535467D01*
X538515Y437766D01*
Y434719D01*
X526326D01*
X575079Y443860D02*
X572032Y446907D01*
X565938D01*
X562891Y443860D01*
Y440813D01*
X565938Y437766D01*
X572032D01*
X575079Y434719D01*
Y431672D01*
X572032Y428625D01*
X565938D01*
X562891Y431672D01*
X581173Y428625D02*
X587267D01*
X584220D01*
Y440813D01*
X581173D01*
X596408D02*
X608596D01*
X596408Y428625D01*
X608596D01*
X623831D02*
X617737D01*
X614690Y431672D01*
Y437766D01*
X617737Y440813D01*
X623831D01*
X626878Y437766D01*
Y434719D01*
X614690D01*
X334356Y443860D02*
X331309Y446907D01*
X325214D01*
X322167Y443860D01*
Y431672D01*
X325214Y428625D01*
X331309D01*
X334356Y431672D01*
X343497Y428625D02*
X349591D01*
X352638Y431672D01*
Y437766D01*
X349591Y440813D01*
X343497D01*
X340449Y437766D01*
Y431672D01*
X343497Y428625D01*
X358732Y440813D02*
Y431672D01*
X361779Y428625D01*
X370920D01*
Y440813D01*
X377014Y428625D02*
Y440813D01*
X386155D01*
X389202Y437766D01*
Y428625D01*
X398343Y443860D02*
Y440813D01*
X395296D01*
X401390D01*
X398343D01*
Y431672D01*
X401390Y428625D01*
X205863Y443860D02*
X202816Y446907D01*
X196722D01*
X193675Y443860D01*
Y440813D01*
X196722Y437766D01*
X202816D01*
X205863Y434719D01*
Y431672D01*
X202816Y428625D01*
X196722D01*
X193675Y431672D01*
X211957Y440813D02*
Y431672D01*
X215004Y428625D01*
X224145D01*
Y425578D01*
X221098Y422531D01*
X218051D01*
X224145Y428625D02*
Y440813D01*
X230239Y428625D02*
Y440813D01*
X233286D01*
X236333Y437766D01*
Y428625D01*
Y437766D01*
X239380Y440813D01*
X242427Y437766D01*
Y428625D01*
X248521Y446907D02*
Y428625D01*
X257662D01*
X260709Y431672D01*
Y434719D01*
Y437766D01*
X257662Y440813D01*
X248521D01*
X269850Y428625D02*
X275944D01*
X278991Y431672D01*
Y437766D01*
X275944Y440813D01*
X269850D01*
X266803Y437766D01*
Y431672D01*
X269850Y428625D01*
X285085D02*
X291179D01*
X288132D01*
Y446907D01*
X285085D01*
M02*
