G04*
G04 #@! TF.GenerationSoftware,Altium Limited,Altium Designer,23.8.1 (32)*
G04*
G04 Layer_Color=8388736*
%FSLAX44Y44*%
%MOMM*%
G71*
G04*
G04 #@! TF.SameCoordinates,DF38465C-164B-46F8-8289-0D746A6B0DDA*
G04*
G04*
G04 #@! TF.FilePolarity,Positive*
G04*
G01*
G75*
%ADD13C,0.2540*%
%ADD21C,0.1016*%
%ADD58C,0.1524*%
%ADD59C,0.3810*%
%ADD60C,0.0254*%
D13*
X-37Y427395D02*
Y478790D01*
X-405528Y328671D02*
Y478790D01*
X-153269Y476250D02*
X-37D01*
X-405528D02*
X-260424D01*
X-15277Y481330D02*
X-37Y476250D01*
X-15277Y471170D02*
X-37Y476250D01*
X-405528D02*
X-390288Y471170D01*
X-405528Y476250D02*
X-390288Y481330D01*
X0Y0D02*
X111760D01*
X-37Y427395D02*
X111760D01*
X109220Y0D02*
Y156055D01*
Y263211D02*
Y427395D01*
Y0D02*
X114300Y15240D01*
X104140D02*
X109220Y0D01*
X104140Y412155D02*
X109220Y427395D01*
X114300Y412155D01*
X1019298Y159945D02*
Y144710D01*
X1026916D01*
X1029455Y147250D01*
Y149789D01*
X1026916Y152328D01*
X1019298D01*
X1026916D01*
X1029455Y154867D01*
Y157406D01*
X1026916Y159945D01*
X1019298D01*
X1037072Y144710D02*
X1042151D01*
X1044690Y147250D01*
Y152328D01*
X1042151Y154867D01*
X1037072D01*
X1034533Y152328D01*
Y147250D01*
X1037072Y144710D01*
X1052307Y154867D02*
X1057386D01*
X1059925Y152328D01*
Y144710D01*
X1052307D01*
X1049768Y147250D01*
X1052307Y149789D01*
X1059925D01*
X1065003Y154867D02*
Y144710D01*
Y149789D01*
X1067542Y152328D01*
X1070082Y154867D01*
X1072621D01*
X1090395Y159945D02*
Y144710D01*
X1082777D01*
X1080238Y147250D01*
Y152328D01*
X1082777Y154867D01*
X1090395D01*
X1110708Y159945D02*
Y144710D01*
X1120865D01*
X1128483Y154867D02*
X1133561D01*
X1136100Y152328D01*
Y144710D01*
X1128483D01*
X1125944Y147250D01*
X1128483Y149789D01*
X1136100D01*
X1141179Y154867D02*
Y147250D01*
X1143718Y144710D01*
X1151335D01*
Y142171D01*
X1148796Y139632D01*
X1146257D01*
X1151335Y144710D02*
Y154867D01*
X1164031Y144710D02*
X1158953D01*
X1156414Y147250D01*
Y152328D01*
X1158953Y154867D01*
X1164031D01*
X1166570Y152328D01*
Y149789D01*
X1156414D01*
X1171649Y154867D02*
Y144710D01*
Y149789D01*
X1174188Y152328D01*
X1176727Y154867D01*
X1179266D01*
X1212276Y157406D02*
X1209736Y159945D01*
X1204658D01*
X1202119Y157406D01*
Y154867D01*
X1204658Y152328D01*
X1209736D01*
X1212276Y149789D01*
Y147250D01*
X1209736Y144710D01*
X1204658D01*
X1202119Y147250D01*
X1219893Y157406D02*
Y154867D01*
X1217354D01*
X1222432D01*
X1219893D01*
Y147250D01*
X1222432Y144710D01*
X1232589Y154867D02*
X1237667D01*
X1240207Y152328D01*
Y144710D01*
X1232589D01*
X1230050Y147250D01*
X1232589Y149789D01*
X1240207D01*
X1255442Y154867D02*
X1247824D01*
X1245285Y152328D01*
Y147250D01*
X1247824Y144710D01*
X1255442D01*
X1260520D02*
Y159945D01*
Y149789D02*
X1268138Y154867D01*
X1260520Y149789D02*
X1268138Y144710D01*
X874553Y96446D02*
X877093Y98986D01*
X882171D01*
X884710Y96446D01*
Y93907D01*
X882171Y91368D01*
X879632D01*
X882171D01*
X884710Y88829D01*
Y86290D01*
X882171Y83750D01*
X877093D01*
X874553Y86290D01*
X889789Y83750D02*
Y86290D01*
X892328D01*
Y83750D01*
X889789D01*
X912641Y98986D02*
X902484D01*
Y91368D01*
X907563Y93907D01*
X910102D01*
X912641Y91368D01*
Y86290D01*
X910102Y83750D01*
X905023D01*
X902484Y86290D01*
X882171Y22790D02*
Y38026D01*
X874553Y30408D01*
X884710D01*
X889789Y22790D02*
Y25330D01*
X892328D01*
Y22790D01*
X889789D01*
X902484D02*
X907563D01*
X905023D01*
Y38026D01*
X902484Y35486D01*
X882171Y-38170D02*
Y-22935D01*
X874553Y-30552D01*
X884710D01*
X889789Y-38170D02*
Y-35630D01*
X892328D01*
Y-38170D01*
X889789D01*
X902484Y-25474D02*
X905023Y-22935D01*
X910102D01*
X912641Y-25474D01*
Y-28013D01*
X910102Y-30552D01*
X912641Y-33091D01*
Y-35630D01*
X910102Y-38170D01*
X905023D01*
X902484Y-35630D01*
Y-33091D01*
X905023Y-30552D01*
X902484Y-28013D01*
Y-25474D01*
X905023Y-30552D02*
X910102D01*
X882171Y-99130D02*
Y-83895D01*
X874553Y-91512D01*
X884710D01*
X889789Y-99130D02*
Y-96590D01*
X892328D01*
Y-99130D01*
X889789D01*
X912641D02*
X902484D01*
X912641Y-88973D01*
Y-86434D01*
X910102Y-83895D01*
X905023D01*
X902484Y-86434D01*
X917719Y-96590D02*
X920259Y-99130D01*
X925337D01*
X927876Y-96590D01*
Y-86434D01*
X925337Y-83895D01*
X920259D01*
X917719Y-86434D01*
Y-88973D01*
X920259Y-91512D01*
X927876D01*
X874553Y-147394D02*
X877093Y-144854D01*
X882171D01*
X884710Y-147394D01*
Y-149933D01*
X882171Y-152472D01*
X879632D01*
X882171D01*
X884710Y-155011D01*
Y-157550D01*
X882171Y-160090D01*
X877093D01*
X874553Y-157550D01*
X889789Y-160090D02*
Y-157550D01*
X892328D01*
Y-160090D01*
X889789D01*
X912641Y-144854D02*
X902484D01*
Y-152472D01*
X907563Y-149933D01*
X910102D01*
X912641Y-152472D01*
Y-157550D01*
X910102Y-160090D01*
X905023D01*
X902484Y-157550D01*
X884710Y157406D02*
X882171Y159945D01*
X877093D01*
X874553Y157406D01*
Y147250D01*
X877093Y144710D01*
X882171D01*
X884710Y147250D01*
X892328Y144710D02*
X897406D01*
X899945Y147250D01*
Y152328D01*
X897406Y154867D01*
X892328D01*
X889789Y152328D01*
Y147250D01*
X892328Y144710D01*
X905023D02*
Y154867D01*
X912641D01*
X915180Y152328D01*
Y144710D01*
X920259D02*
X927876D01*
X930415Y147250D01*
X927876Y149789D01*
X922798D01*
X920259Y152328D01*
X922798Y154867D01*
X930415D01*
X938033Y157406D02*
Y154867D01*
X935494D01*
X940572D01*
X938033D01*
Y147250D01*
X940572Y144710D01*
X950729Y154867D02*
X955807D01*
X958346Y152328D01*
Y144710D01*
X950729D01*
X948190Y147250D01*
X950729Y149789D01*
X958346D01*
X963425Y144710D02*
Y154867D01*
X971042D01*
X973581Y152328D01*
Y144710D01*
X981199Y157406D02*
Y154867D01*
X978660D01*
X983738D01*
X981199D01*
Y147250D01*
X983738Y144710D01*
X709495Y96446D02*
X712035Y98986D01*
X717113D01*
X719652Y96446D01*
Y86290D01*
X717113Y83750D01*
X712035D01*
X709495Y86290D01*
Y96446D01*
X724730Y83750D02*
Y86290D01*
X727270D01*
Y83750D01*
X724730D01*
X745044D02*
Y98986D01*
X737426Y91368D01*
X747583D01*
X752661Y96446D02*
X755201Y98986D01*
X760279D01*
X762818Y96446D01*
Y86290D01*
X760279Y83750D01*
X755201D01*
X752661Y86290D01*
Y96446D01*
X767896Y83750D02*
Y93907D01*
X770436D01*
X772975Y91368D01*
Y83750D01*
Y91368D01*
X775514Y93907D01*
X778053Y91368D01*
Y83750D01*
X783131D02*
X788210D01*
X785671D01*
Y93907D01*
X783131D01*
X795827Y83750D02*
X800906D01*
X798366D01*
Y98986D01*
X795827D01*
X709495Y53270D02*
X714574D01*
X712035D01*
Y68506D01*
X709495Y65966D01*
X722191Y53270D02*
Y55810D01*
X724730D01*
Y53270D01*
X722191D01*
X734887Y65966D02*
X737426Y68506D01*
X742505D01*
X745044Y65966D01*
Y63427D01*
X742505Y60888D01*
X739965D01*
X742505D01*
X745044Y58349D01*
Y55810D01*
X742505Y53270D01*
X737426D01*
X734887Y55810D01*
X750122Y65966D02*
X752661Y68506D01*
X757740D01*
X760279Y65966D01*
Y63427D01*
X757740Y60888D01*
X760279Y58349D01*
Y55810D01*
X757740Y53270D01*
X752661D01*
X750122Y55810D01*
Y58349D01*
X752661Y60888D01*
X750122Y63427D01*
Y65966D01*
X752661Y60888D02*
X757740D01*
X765357Y53270D02*
Y63427D01*
X767896D01*
X770435Y60888D01*
Y53270D01*
Y60888D01*
X772975Y63427D01*
X775514Y60888D01*
Y53270D01*
X780592D02*
X785671D01*
X783131D01*
Y63427D01*
X780592D01*
X793288Y53270D02*
X798366D01*
X795827D01*
Y68506D01*
X793288D01*
X709495Y35486D02*
X712035Y38026D01*
X717113D01*
X719652Y35486D01*
Y32947D01*
X717113Y30408D01*
X714574D01*
X717113D01*
X719652Y27869D01*
Y25330D01*
X717113Y22790D01*
X712035D01*
X709495Y25330D01*
X724730Y22790D02*
Y25330D01*
X727270D01*
Y22790D01*
X724730D01*
X737426Y25330D02*
X739965Y22790D01*
X745044D01*
X747583Y25330D01*
Y35486D01*
X745044Y38026D01*
X739965D01*
X737426Y35486D01*
Y32947D01*
X739965Y30408D01*
X747583D01*
X752661Y22790D02*
X757740D01*
X755201D01*
Y38026D01*
X752661Y35486D01*
X765357Y22790D02*
Y32947D01*
X767896D01*
X770435Y30408D01*
Y22790D01*
Y30408D01*
X772975Y32947D01*
X775514Y30408D01*
Y22790D01*
X780592D02*
X785671D01*
X783131D01*
Y32947D01*
X780592D01*
X793288Y22790D02*
X798366D01*
X795827D01*
Y38026D01*
X793288D01*
X709495Y5006D02*
X712035Y7545D01*
X717113D01*
X719652Y5006D01*
Y-5150D01*
X717113Y-7690D01*
X712035D01*
X709495Y-5150D01*
Y5006D01*
X724730Y-7690D02*
Y-5150D01*
X727270D01*
Y-7690D01*
X724730D01*
X747583Y7545D02*
X742505Y5006D01*
X737426Y-72D01*
Y-5150D01*
X739965Y-7690D01*
X745044D01*
X747583Y-5150D01*
Y-2611D01*
X745044Y-72D01*
X737426D01*
X752661Y5006D02*
X755201Y7545D01*
X760279D01*
X762818Y5006D01*
Y-5150D01*
X760279Y-7690D01*
X755201D01*
X752661Y-5150D01*
Y5006D01*
X767896Y-7690D02*
Y2467D01*
X770436D01*
X772975Y-72D01*
Y-7690D01*
Y-72D01*
X775514Y2467D01*
X778053Y-72D01*
Y-7690D01*
X783131D02*
X788210D01*
X785671D01*
Y2467D01*
X783131D01*
X795827Y-7690D02*
X800906D01*
X798366D01*
Y7545D01*
X795827D01*
X717113Y-38170D02*
Y-22935D01*
X709495Y-30552D01*
X719652D01*
X724730Y-35630D02*
X727270Y-38170D01*
X732348D01*
X734887Y-35630D01*
Y-25474D01*
X732348Y-22935D01*
X727270D01*
X724730Y-25474D01*
Y-28013D01*
X727270Y-30552D01*
X734887D01*
X739965Y-38170D02*
Y-35630D01*
X742505D01*
Y-38170D01*
X739965D01*
X752661Y-25474D02*
X755201Y-22935D01*
X760279D01*
X762818Y-25474D01*
Y-28013D01*
X760279Y-30552D01*
X762818Y-33091D01*
Y-35630D01*
X760279Y-38170D01*
X755201D01*
X752661Y-35630D01*
Y-33091D01*
X755201Y-30552D01*
X752661Y-28013D01*
Y-25474D01*
X755201Y-30552D02*
X760279D01*
X767896Y-25474D02*
X770436Y-22935D01*
X775514D01*
X778053Y-25474D01*
Y-35630D01*
X775514Y-38170D01*
X770436D01*
X767896Y-35630D01*
Y-25474D01*
X783131Y-38170D02*
Y-28013D01*
X785671D01*
X788210Y-30552D01*
Y-38170D01*
Y-30552D01*
X790749Y-28013D01*
X793288Y-30552D01*
Y-38170D01*
X798366D02*
X803445D01*
X800906D01*
Y-28013D01*
X798366D01*
X811062Y-38170D02*
X816141D01*
X813602D01*
Y-22935D01*
X811062D01*
X709495Y-55954D02*
X712035Y-53415D01*
X717113D01*
X719652Y-55954D01*
Y-66110D01*
X717113Y-68650D01*
X712035D01*
X709495Y-66110D01*
Y-55954D01*
X724730Y-68650D02*
Y-66110D01*
X727270D01*
Y-68650D01*
X724730D01*
X747583Y-53415D02*
X742505Y-55954D01*
X737426Y-61032D01*
Y-66110D01*
X739965Y-68650D01*
X745044D01*
X747583Y-66110D01*
Y-63571D01*
X745044Y-61032D01*
X737426D01*
X752661Y-55954D02*
X755201Y-53415D01*
X760279D01*
X762818Y-55954D01*
Y-66110D01*
X760279Y-68650D01*
X755201D01*
X752661Y-66110D01*
Y-55954D01*
X767896Y-68650D02*
Y-58493D01*
X770436D01*
X772975Y-61032D01*
Y-68650D01*
Y-61032D01*
X775514Y-58493D01*
X778053Y-61032D01*
Y-68650D01*
X783131D02*
X788210D01*
X785671D01*
Y-58493D01*
X783131D01*
X795827Y-68650D02*
X800906D01*
X798366D01*
Y-53415D01*
X795827D01*
X709495Y-86434D02*
X712035Y-83895D01*
X717113D01*
X719652Y-86434D01*
Y-88973D01*
X717113Y-91512D01*
X714574D01*
X717113D01*
X719652Y-94051D01*
Y-96590D01*
X717113Y-99130D01*
X712035D01*
X709495Y-96590D01*
X724730Y-99130D02*
Y-96590D01*
X727270D01*
Y-99130D01*
X724730D01*
X737426Y-96590D02*
X739965Y-99130D01*
X745044D01*
X747583Y-96590D01*
Y-86434D01*
X745044Y-83895D01*
X739965D01*
X737426Y-86434D01*
Y-88973D01*
X739965Y-91512D01*
X747583D01*
X752661Y-99130D02*
X757740D01*
X755201D01*
Y-83895D01*
X752661Y-86434D01*
X765357Y-99130D02*
Y-88973D01*
X767896D01*
X770435Y-91512D01*
Y-99130D01*
Y-91512D01*
X772975Y-88973D01*
X775514Y-91512D01*
Y-99130D01*
X780592D02*
X785671D01*
X783131D01*
Y-88973D01*
X780592D01*
X793288Y-99130D02*
X798366D01*
X795827D01*
Y-83895D01*
X793288D01*
X709495Y-129610D02*
X714574D01*
X712035D01*
Y-114375D01*
X709495Y-116914D01*
X722191Y-129610D02*
Y-127070D01*
X724730D01*
Y-129610D01*
X722191D01*
X734887Y-116914D02*
X737426Y-114375D01*
X742505D01*
X745044Y-116914D01*
Y-119453D01*
X742505Y-121992D01*
X739965D01*
X742505D01*
X745044Y-124531D01*
Y-127070D01*
X742505Y-129610D01*
X737426D01*
X734887Y-127070D01*
X750122Y-116914D02*
X752661Y-114375D01*
X757740D01*
X760279Y-116914D01*
Y-119453D01*
X757740Y-121992D01*
X760279Y-124531D01*
Y-127070D01*
X757740Y-129610D01*
X752661D01*
X750122Y-127070D01*
Y-124531D01*
X752661Y-121992D01*
X750122Y-119453D01*
Y-116914D01*
X752661Y-121992D02*
X757740D01*
X765357Y-129610D02*
Y-119453D01*
X767896D01*
X770435Y-121992D01*
Y-129610D01*
Y-121992D01*
X772975Y-119453D01*
X775514Y-121992D01*
Y-129610D01*
X780592D02*
X785671D01*
X783131D01*
Y-119453D01*
X780592D01*
X793288Y-129610D02*
X798366D01*
X795827D01*
Y-114375D01*
X793288D01*
X709495Y-147394D02*
X712035Y-144854D01*
X717113D01*
X719652Y-147394D01*
Y-157550D01*
X717113Y-160090D01*
X712035D01*
X709495Y-157550D01*
Y-147394D01*
X724730Y-160090D02*
Y-157550D01*
X727270D01*
Y-160090D01*
X724730D01*
X745044D02*
Y-144854D01*
X737426Y-152472D01*
X747583D01*
X752661Y-147394D02*
X755201Y-144854D01*
X760279D01*
X762818Y-147394D01*
Y-157550D01*
X760279Y-160090D01*
X755201D01*
X752661Y-157550D01*
Y-147394D01*
X767896Y-160090D02*
Y-149933D01*
X770436D01*
X772975Y-152472D01*
Y-160090D01*
Y-152472D01*
X775514Y-149933D01*
X778053Y-152472D01*
Y-160090D01*
X783131D02*
X788210D01*
X785671D01*
Y-149933D01*
X783131D01*
X795827Y-160090D02*
X800906D01*
X798366D01*
Y-144854D01*
X795827D01*
X709495Y159945D02*
X719652D01*
X714574D01*
Y144710D01*
X724730Y159945D02*
Y144710D01*
Y152328D01*
X727270Y154867D01*
X732348D01*
X734887Y152328D01*
Y144710D01*
X739965D02*
X745044D01*
X742505D01*
Y154867D01*
X739965D01*
X762818D02*
X755201D01*
X752661Y152328D01*
Y147250D01*
X755201Y144710D01*
X762818D01*
X767896D02*
Y159945D01*
Y149789D02*
X775514Y154867D01*
X767896Y149789D02*
X775514Y144710D01*
X783131D02*
Y154867D01*
X790749D01*
X793288Y152328D01*
Y144710D01*
X805984D02*
X800906D01*
X798366Y147250D01*
Y152328D01*
X800906Y154867D01*
X805984D01*
X808523Y152328D01*
Y149789D01*
X798366D01*
X813602Y144710D02*
X821219D01*
X823758Y147250D01*
X821219Y149789D01*
X816141D01*
X813602Y152328D01*
X816141Y154867D01*
X823758D01*
X828837Y144710D02*
X836454D01*
X838993Y147250D01*
X836454Y149789D01*
X831376D01*
X828837Y152328D01*
X831376Y154867D01*
X838993D01*
X501271Y96446D02*
X498732Y98986D01*
X493654D01*
X491114Y96446D01*
Y93907D01*
X493654Y91368D01*
X498732D01*
X501271Y88829D01*
Y86290D01*
X498732Y83750D01*
X493654D01*
X491114Y86290D01*
X508889Y83750D02*
X513967D01*
X516506Y86290D01*
Y91368D01*
X513967Y93907D01*
X508889D01*
X506349Y91368D01*
Y86290D01*
X508889Y83750D01*
X521585D02*
X526663D01*
X524124D01*
Y98986D01*
X521585D01*
X544437D02*
Y83750D01*
X536820D01*
X534281Y86290D01*
Y91368D01*
X536820Y93907D01*
X544437D01*
X557133Y83750D02*
X552055D01*
X549515Y86290D01*
Y91368D01*
X552055Y93907D01*
X557133D01*
X559672Y91368D01*
Y88829D01*
X549515D01*
X564751Y93907D02*
Y83750D01*
Y88829D01*
X567290Y91368D01*
X569829Y93907D01*
X572368D01*
X595221Y83750D02*
Y98986D01*
X602838D01*
X605378Y96446D01*
Y91368D01*
X602838Y88829D01*
X595221D01*
X600299D02*
X605378Y83750D01*
X618073D02*
X612995D01*
X610456Y86290D01*
Y91368D01*
X612995Y93907D01*
X618073D01*
X620613Y91368D01*
Y88829D01*
X610456D01*
X625691Y83750D02*
X633308D01*
X635848Y86290D01*
X633308Y88829D01*
X628230D01*
X625691Y91368D01*
X628230Y93907D01*
X635848D01*
X640926Y83750D02*
X646004D01*
X643465D01*
Y93907D01*
X640926D01*
X653622Y83750D02*
X661239D01*
X663779Y86290D01*
X661239Y88829D01*
X656161D01*
X653622Y91368D01*
X656161Y93907D01*
X663779D01*
X671396Y96446D02*
Y93907D01*
X668857D01*
X673935D01*
X671396D01*
Y86290D01*
X673935Y83750D01*
X501271Y65966D02*
X498732Y68506D01*
X493654D01*
X491114Y65966D01*
Y55810D01*
X493654Y53270D01*
X498732D01*
X501271Y55810D01*
X516506Y68506D02*
X506349D01*
Y60888D01*
X511428D01*
X506349D01*
Y53270D01*
X521585Y60888D02*
X531741D01*
X536820Y65966D02*
X539359Y68506D01*
X544437D01*
X546976Y65966D01*
Y55810D01*
X544437Y53270D01*
X539359D01*
X536820Y55810D01*
Y65966D01*
X552055D02*
X554594Y68506D01*
X559672D01*
X562211Y65966D01*
Y55810D01*
X559672Y53270D01*
X554594D01*
X552055Y55810D01*
Y65966D01*
X567290Y53270D02*
X572368D01*
X569829D01*
Y68506D01*
X567290Y65966D01*
X491114Y22790D02*
Y38026D01*
X498732D01*
X501271Y35486D01*
Y30408D01*
X498732Y27869D01*
X491114D01*
X506349Y22790D02*
Y38026D01*
X513967D01*
X516506Y35486D01*
Y30408D01*
X513967Y27869D01*
X506349D01*
X521585Y30408D02*
X531741D01*
X536820Y35486D02*
X539359Y38026D01*
X544437D01*
X546976Y35486D01*
Y25330D01*
X544437Y22790D01*
X539359D01*
X536820Y25330D01*
Y35486D01*
X552055D02*
X554594Y38026D01*
X559672D01*
X562211Y35486D01*
Y25330D01*
X559672Y22790D01*
X554594D01*
X552055Y25330D01*
Y35486D01*
X577447Y38026D02*
X572368Y35486D01*
X567290Y30408D01*
Y25330D01*
X569829Y22790D01*
X574907D01*
X577447Y25330D01*
Y27869D01*
X574907Y30408D01*
X567290D01*
X501271Y-22935D02*
X491114D01*
Y-30552D01*
X496193D01*
X491114D01*
Y-38170D01*
X506349D02*
Y-22935D01*
X513967D01*
X516506Y-25474D01*
Y-30552D01*
X513967Y-33091D01*
X506349D01*
X511428D02*
X516506Y-38170D01*
X521585Y-30552D02*
X531741D01*
X544437Y-38170D02*
Y-22935D01*
X536820Y-30552D01*
X546976D01*
X501271Y-83895D02*
X491114D01*
Y-91512D01*
X496193D01*
X491114D01*
Y-99130D01*
X506349D02*
Y-83895D01*
X513967D01*
X516506Y-86434D01*
Y-91512D01*
X513967Y-94051D01*
X506349D01*
X511428D02*
X516506Y-99130D01*
X521585Y-91512D02*
X531741D01*
X544437Y-99130D02*
Y-83895D01*
X536820Y-91512D01*
X546976D01*
X501271Y-116914D02*
X498732Y-114375D01*
X493654D01*
X491114Y-116914D01*
Y-127070D01*
X493654Y-129610D01*
X498732D01*
X501271Y-127070D01*
X516506Y-114375D02*
X506349D01*
Y-121992D01*
X511428D01*
X506349D01*
Y-129610D01*
X521585Y-121992D02*
X531741D01*
X536820Y-116914D02*
X539359Y-114375D01*
X544437D01*
X546976Y-116914D01*
Y-127070D01*
X544437Y-129610D01*
X539359D01*
X536820Y-127070D01*
Y-116914D01*
X552055D02*
X554594Y-114375D01*
X559672D01*
X562211Y-116914D01*
Y-127070D01*
X559672Y-129610D01*
X554594D01*
X552055Y-127070D01*
Y-116914D01*
X574907Y-129610D02*
Y-114375D01*
X567290Y-121992D01*
X577447D01*
X501271Y-147394D02*
X498732Y-144854D01*
X493654D01*
X491114Y-147394D01*
Y-149933D01*
X493654Y-152472D01*
X498732D01*
X501271Y-155011D01*
Y-157550D01*
X498732Y-160090D01*
X493654D01*
X491114Y-157550D01*
X508889Y-160090D02*
X513967D01*
X516506Y-157550D01*
Y-152472D01*
X513967Y-149933D01*
X508889D01*
X506349Y-152472D01*
Y-157550D01*
X508889Y-160090D01*
X521585D02*
X526663D01*
X524124D01*
Y-144854D01*
X521585D01*
X544437D02*
Y-160090D01*
X536820D01*
X534281Y-157550D01*
Y-152472D01*
X536820Y-149933D01*
X544437D01*
X557133Y-160090D02*
X552055D01*
X549515Y-157550D01*
Y-152472D01*
X552055Y-149933D01*
X557133D01*
X559672Y-152472D01*
Y-155011D01*
X549515D01*
X564751Y-149933D02*
Y-160090D01*
Y-155011D01*
X567290Y-152472D01*
X569829Y-149933D01*
X572368D01*
X595221Y-160090D02*
Y-144854D01*
X602838D01*
X605378Y-147394D01*
Y-152472D01*
X602838Y-155011D01*
X595221D01*
X600299D02*
X605378Y-160090D01*
X618073D02*
X612995D01*
X610456Y-157550D01*
Y-152472D01*
X612995Y-149933D01*
X618073D01*
X620613Y-152472D01*
Y-155011D01*
X610456D01*
X625691Y-160090D02*
X633308D01*
X635848Y-157550D01*
X633308Y-155011D01*
X628230D01*
X625691Y-152472D01*
X628230Y-149933D01*
X635848D01*
X640926Y-160090D02*
X646004D01*
X643465D01*
Y-149933D01*
X640926D01*
X653622Y-160090D02*
X661239D01*
X663779Y-157550D01*
X661239Y-155011D01*
X656161D01*
X653622Y-152472D01*
X656161Y-149933D01*
X663779D01*
X671396Y-147394D02*
Y-149933D01*
X668857D01*
X673935D01*
X671396D01*
Y-157550D01*
X673935Y-160090D01*
X491114Y144710D02*
Y159945D01*
X496193Y154867D01*
X501271Y159945D01*
Y144710D01*
X508889Y154867D02*
X513967D01*
X516506Y152328D01*
Y144710D01*
X508889D01*
X506349Y147250D01*
X508889Y149789D01*
X516506D01*
X524124Y157406D02*
Y154867D01*
X521585D01*
X526663D01*
X524124D01*
Y147250D01*
X526663Y144710D01*
X541898D02*
X536820D01*
X534281Y147250D01*
Y152328D01*
X536820Y154867D01*
X541898D01*
X544437Y152328D01*
Y149789D01*
X534281D01*
X549515Y154867D02*
Y144710D01*
Y149789D01*
X552055Y152328D01*
X554594Y154867D01*
X557133D01*
X564751Y144710D02*
X569829D01*
X567290D01*
Y154867D01*
X564751D01*
X579986D02*
X585064D01*
X587603Y152328D01*
Y144710D01*
X579986D01*
X577447Y147250D01*
X579986Y149789D01*
X587603D01*
X592682Y144710D02*
X597760D01*
X595221D01*
Y159945D01*
X592682D01*
X254959Y129466D02*
X265116D01*
X260038D01*
Y114230D01*
X272734D02*
X277812D01*
X280351Y116770D01*
Y121848D01*
X277812Y124387D01*
X272734D01*
X270194Y121848D01*
Y116770D01*
X272734Y114230D01*
X285429Y109152D02*
Y124387D01*
X293047D01*
X295586Y121848D01*
Y116770D01*
X293047Y114230D01*
X285429D01*
X323517Y129466D02*
X318439D01*
X315900Y126926D01*
Y116770D01*
X318439Y114230D01*
X323517D01*
X326056Y116770D01*
Y126926D01*
X323517Y129466D01*
X331135Y124387D02*
X336213Y114230D01*
X341291Y124387D01*
X353987Y114230D02*
X348909D01*
X346370Y116770D01*
Y121848D01*
X348909Y124387D01*
X353987D01*
X356526Y121848D01*
Y119309D01*
X346370D01*
X361605Y124387D02*
Y114230D01*
Y119309D01*
X364144Y121848D01*
X366683Y124387D01*
X369222D01*
X376840Y114230D02*
X381918D01*
X379379D01*
Y129466D01*
X376840D01*
X392075Y124387D02*
X397153D01*
X399692Y121848D01*
Y114230D01*
X392075D01*
X389536Y116770D01*
X392075Y119309D01*
X399692D01*
X404771Y124387D02*
Y116770D01*
X407310Y114230D01*
X414928D01*
Y111691D01*
X412388Y109152D01*
X409849D01*
X414928Y114230D02*
Y124387D01*
X254959Y98986D02*
X265116D01*
X260038D01*
Y83750D01*
X272734D02*
X277812D01*
X280351Y86290D01*
Y91368D01*
X277812Y93907D01*
X272734D01*
X270194Y91368D01*
Y86290D01*
X272734Y83750D01*
X285429Y78672D02*
Y93907D01*
X293047D01*
X295586Y91368D01*
Y86290D01*
X293047Y83750D01*
X285429D01*
X326056Y96446D02*
X323517Y98986D01*
X318439D01*
X315900Y96446D01*
Y93907D01*
X318439Y91368D01*
X323517D01*
X326056Y88829D01*
Y86290D01*
X323517Y83750D01*
X318439D01*
X315900Y86290D01*
X333674Y83750D02*
X338752D01*
X341291Y86290D01*
Y91368D01*
X338752Y93907D01*
X333674D01*
X331135Y91368D01*
Y86290D01*
X333674Y83750D01*
X346370D02*
X351448D01*
X348909D01*
Y98986D01*
X346370D01*
X369222D02*
Y83750D01*
X361605D01*
X359066Y86290D01*
Y91368D01*
X361605Y93907D01*
X369222D01*
X381918Y83750D02*
X376840D01*
X374301Y86290D01*
Y91368D01*
X376840Y93907D01*
X381918D01*
X384457Y91368D01*
Y88829D01*
X374301D01*
X389536Y93907D02*
Y83750D01*
Y88829D01*
X392075Y91368D01*
X394614Y93907D01*
X397153D01*
X254959Y68506D02*
X265116D01*
X260038D01*
Y53270D01*
X272734D02*
X277812D01*
X280351Y55810D01*
Y60888D01*
X277812Y63427D01*
X272734D01*
X270194Y60888D01*
Y55810D01*
X272734Y53270D01*
X285429Y48192D02*
Y63427D01*
X293047D01*
X295586Y60888D01*
Y55810D01*
X293047Y53270D01*
X285429D01*
X315900Y68506D02*
Y53270D01*
X326056D01*
X333674Y63427D02*
X338752D01*
X341291Y60888D01*
Y53270D01*
X333674D01*
X331135Y55810D01*
X333674Y58349D01*
X341291D01*
X346370Y63427D02*
Y55810D01*
X348909Y53270D01*
X356526D01*
Y50731D01*
X353987Y48192D01*
X351448D01*
X356526Y53270D02*
Y63427D01*
X369222Y53270D02*
X364144D01*
X361605Y55810D01*
Y60888D01*
X364144Y63427D01*
X369222D01*
X371762Y60888D01*
Y58349D01*
X361605D01*
X376840Y63427D02*
Y53270D01*
Y58349D01*
X379379Y60888D01*
X381918Y63427D01*
X384457D01*
X254959Y38026D02*
Y22790D01*
X262577D01*
X265116Y25330D01*
Y35486D01*
X262577Y38026D01*
X254959D01*
X270194Y22790D02*
X275273D01*
X272734D01*
Y32947D01*
X270194D01*
X290508Y22790D02*
X285429D01*
X282890Y25330D01*
Y30408D01*
X285429Y32947D01*
X290508D01*
X293047Y30408D01*
Y27869D01*
X282890D01*
X298125Y22790D02*
X303204D01*
X300665D01*
Y38026D01*
X298125D01*
X318439Y22790D02*
X313360D01*
X310821Y25330D01*
Y30408D01*
X313360Y32947D01*
X318439D01*
X320978Y30408D01*
Y27869D01*
X310821D01*
X336213Y32947D02*
X328596D01*
X326056Y30408D01*
Y25330D01*
X328596Y22790D01*
X336213D01*
X343831Y35486D02*
Y32947D01*
X341291D01*
X346370D01*
X343831D01*
Y25330D01*
X346370Y22790D01*
X353987Y32947D02*
Y22790D01*
Y27869D01*
X356526Y30408D01*
X359066Y32947D01*
X361605D01*
X369222Y22790D02*
X374301D01*
X371762D01*
Y32947D01*
X369222D01*
X392075D02*
X384457D01*
X381918Y30408D01*
Y25330D01*
X384457Y22790D01*
X392075D01*
X422545D02*
X412388D01*
X422545Y32947D01*
Y35486D01*
X420006Y38026D01*
X414928D01*
X412388Y35486D01*
X265116Y5006D02*
X262577Y7545D01*
X257498D01*
X254959Y5006D01*
Y-5150D01*
X257498Y-7690D01*
X262577D01*
X265116Y-5150D01*
Y-72D01*
X260038D01*
X270194Y-7690D02*
Y7545D01*
X280351Y-7690D01*
Y7545D01*
X285429D02*
Y-7690D01*
X293047D01*
X295586Y-5150D01*
Y5006D01*
X293047Y7545D01*
X285429D01*
X254959Y-22935D02*
Y-38170D01*
X262577D01*
X265116Y-35630D01*
Y-25474D01*
X262577Y-22935D01*
X254959D01*
X270194Y-38170D02*
X275273D01*
X272734D01*
Y-28013D01*
X270194D01*
X290508Y-38170D02*
X285429D01*
X282890Y-35630D01*
Y-30552D01*
X285429Y-28013D01*
X290508D01*
X293047Y-30552D01*
Y-33091D01*
X282890D01*
X298125Y-38170D02*
X303204D01*
X300665D01*
Y-22935D01*
X298125D01*
X318439Y-38170D02*
X313360D01*
X310821Y-35630D01*
Y-30552D01*
X313360Y-28013D01*
X318439D01*
X320978Y-30552D01*
Y-33091D01*
X310821D01*
X336213Y-28013D02*
X328596D01*
X326056Y-30552D01*
Y-35630D01*
X328596Y-38170D01*
X336213D01*
X343831Y-25474D02*
Y-28013D01*
X341291D01*
X346370D01*
X343831D01*
Y-35630D01*
X346370Y-38170D01*
X353987Y-28013D02*
Y-38170D01*
Y-33091D01*
X356526Y-30552D01*
X359066Y-28013D01*
X361605D01*
X369222Y-38170D02*
X374301D01*
X371762D01*
Y-28013D01*
X369222D01*
X392075D02*
X384457D01*
X381918Y-30552D01*
Y-35630D01*
X384457Y-38170D01*
X392075D01*
X397153D02*
X402232D01*
X399692D01*
Y-22935D01*
X397153Y-25474D01*
X254959Y-68650D02*
Y-53415D01*
X262577D01*
X265116Y-55954D01*
Y-61032D01*
X262577Y-63571D01*
X254959D01*
X270194Y-53415D02*
Y-68650D01*
X275273Y-63571D01*
X280351Y-68650D01*
Y-53415D01*
X285429Y-68650D02*
Y-53415D01*
X293047D01*
X295586Y-55954D01*
Y-61032D01*
X293047Y-63571D01*
X285429D01*
X290508D02*
X295586Y-68650D01*
X254959Y-83895D02*
Y-99130D01*
X262577D01*
X265116Y-96590D01*
Y-86434D01*
X262577Y-83895D01*
X254959D01*
X270194Y-99130D02*
X275273D01*
X272734D01*
Y-88973D01*
X270194D01*
X290508Y-99130D02*
X285429D01*
X282890Y-96590D01*
Y-91512D01*
X285429Y-88973D01*
X290508D01*
X293047Y-91512D01*
Y-94051D01*
X282890D01*
X298125Y-99130D02*
X303204D01*
X300665D01*
Y-83895D01*
X298125D01*
X318439Y-99130D02*
X313360D01*
X310821Y-96590D01*
Y-91512D01*
X313360Y-88973D01*
X318439D01*
X320978Y-91512D01*
Y-94051D01*
X310821D01*
X336213Y-88973D02*
X328596D01*
X326056Y-91512D01*
Y-96590D01*
X328596Y-99130D01*
X336213D01*
X343831Y-86434D02*
Y-88973D01*
X341291D01*
X346370D01*
X343831D01*
Y-96590D01*
X346370Y-99130D01*
X353987Y-88973D02*
Y-99130D01*
Y-94051D01*
X356526Y-91512D01*
X359066Y-88973D01*
X361605D01*
X369222Y-99130D02*
X374301D01*
X371762D01*
Y-88973D01*
X369222D01*
X392075D02*
X384457D01*
X381918Y-91512D01*
Y-96590D01*
X384457Y-99130D01*
X392075D01*
X397153Y-86434D02*
X399692Y-83895D01*
X404771D01*
X407310Y-86434D01*
Y-88973D01*
X404771Y-91512D01*
X402232D01*
X404771D01*
X407310Y-94051D01*
Y-96590D01*
X404771Y-99130D01*
X399692D01*
X397153Y-96590D01*
X254959Y-114375D02*
Y-129610D01*
X262577D01*
X265116Y-127070D01*
Y-124531D01*
X262577Y-121992D01*
X254959D01*
X262577D01*
X265116Y-119453D01*
Y-116914D01*
X262577Y-114375D01*
X254959D01*
X272734Y-129610D02*
X277812D01*
X280351Y-127070D01*
Y-121992D01*
X277812Y-119453D01*
X272734D01*
X270194Y-121992D01*
Y-127070D01*
X272734Y-129610D01*
X287969Y-116914D02*
Y-119453D01*
X285429D01*
X290508D01*
X287969D01*
Y-127070D01*
X290508Y-129610D01*
X300665Y-116914D02*
Y-119453D01*
X298125D01*
X303204D01*
X300665D01*
Y-127070D01*
X303204Y-129610D01*
X313360D02*
X318439D01*
X320978Y-127070D01*
Y-121992D01*
X318439Y-119453D01*
X313360D01*
X310821Y-121992D01*
Y-127070D01*
X313360Y-129610D01*
X326056D02*
Y-119453D01*
X328596D01*
X331135Y-121992D01*
Y-129610D01*
Y-121992D01*
X333674Y-119453D01*
X336213Y-121992D01*
Y-129610D01*
X356526Y-114375D02*
Y-129610D01*
X366683D01*
X374301Y-119453D02*
X379379D01*
X381918Y-121992D01*
Y-129610D01*
X374301D01*
X371762Y-127070D01*
X374301Y-124531D01*
X381918D01*
X386997Y-119453D02*
Y-127070D01*
X389536Y-129610D01*
X397153D01*
Y-132149D01*
X394614Y-134688D01*
X392075D01*
X397153Y-129610D02*
Y-119453D01*
X409849Y-129610D02*
X404771D01*
X402232Y-127070D01*
Y-121992D01*
X404771Y-119453D01*
X409849D01*
X412388Y-121992D01*
Y-124531D01*
X402232D01*
X417467Y-119453D02*
Y-129610D01*
Y-124531D01*
X420006Y-121992D01*
X422545Y-119453D01*
X425084D01*
X254959Y-144854D02*
Y-160090D01*
X262577D01*
X265116Y-157550D01*
Y-155011D01*
X262577Y-152472D01*
X254959D01*
X262577D01*
X265116Y-149933D01*
Y-147394D01*
X262577Y-144854D01*
X254959D01*
X272734Y-160090D02*
X277812D01*
X280351Y-157550D01*
Y-152472D01*
X277812Y-149933D01*
X272734D01*
X270194Y-152472D01*
Y-157550D01*
X272734Y-160090D01*
X287969Y-147394D02*
Y-149933D01*
X285429D01*
X290508D01*
X287969D01*
Y-157550D01*
X290508Y-160090D01*
X300665Y-147394D02*
Y-149933D01*
X298125D01*
X303204D01*
X300665D01*
Y-157550D01*
X303204Y-160090D01*
X313360D02*
X318439D01*
X320978Y-157550D01*
Y-152472D01*
X318439Y-149933D01*
X313360D01*
X310821Y-152472D01*
Y-157550D01*
X313360Y-160090D01*
X326056D02*
Y-149933D01*
X328596D01*
X331135Y-152472D01*
Y-160090D01*
Y-152472D01*
X333674Y-149933D01*
X336213Y-152472D01*
Y-160090D01*
X366683Y-147394D02*
X364144Y-144854D01*
X359066D01*
X356526Y-147394D01*
Y-149933D01*
X359066Y-152472D01*
X364144D01*
X366683Y-155011D01*
Y-157550D01*
X364144Y-160090D01*
X359066D01*
X356526Y-157550D01*
X374301Y-160090D02*
X379379D01*
X381918Y-157550D01*
Y-152472D01*
X379379Y-149933D01*
X374301D01*
X371762Y-152472D01*
Y-157550D01*
X374301Y-160090D01*
X386997D02*
X392075D01*
X389536D01*
Y-144854D01*
X386997D01*
X409849D02*
Y-160090D01*
X402232D01*
X399692Y-157550D01*
Y-152472D01*
X402232Y-149933D01*
X409849D01*
X422545Y-160090D02*
X417467D01*
X414928Y-157550D01*
Y-152472D01*
X417467Y-149933D01*
X422545D01*
X425084Y-152472D01*
Y-155011D01*
X414928D01*
X430163Y-149933D02*
Y-160090D01*
Y-155011D01*
X432702Y-152472D01*
X435241Y-149933D01*
X437780D01*
X254959Y-175334D02*
Y-190570D01*
X262577D01*
X265116Y-188030D01*
Y-185491D01*
X262577Y-182952D01*
X254959D01*
X262577D01*
X265116Y-180413D01*
Y-177874D01*
X262577Y-175334D01*
X254959D01*
X272734Y-190570D02*
X277812D01*
X280351Y-188030D01*
Y-182952D01*
X277812Y-180413D01*
X272734D01*
X270194Y-182952D01*
Y-188030D01*
X272734Y-190570D01*
X287969Y-177874D02*
Y-180413D01*
X285429D01*
X290508D01*
X287969D01*
Y-188030D01*
X290508Y-190570D01*
X300665Y-177874D02*
Y-180413D01*
X298125D01*
X303204D01*
X300665D01*
Y-188030D01*
X303204Y-190570D01*
X313360D02*
X318439D01*
X320978Y-188030D01*
Y-182952D01*
X318439Y-180413D01*
X313360D01*
X310821Y-182952D01*
Y-188030D01*
X313360Y-190570D01*
X326056D02*
Y-180413D01*
X328596D01*
X331135Y-182952D01*
Y-190570D01*
Y-182952D01*
X333674Y-180413D01*
X336213Y-182952D01*
Y-190570D01*
X364144Y-175334D02*
X359066D01*
X356526Y-177874D01*
Y-188030D01*
X359066Y-190570D01*
X364144D01*
X366683Y-188030D01*
Y-177874D01*
X364144Y-175334D01*
X371762Y-180413D02*
X376840Y-190570D01*
X381918Y-180413D01*
X394614Y-190570D02*
X389536D01*
X386997Y-188030D01*
Y-182952D01*
X389536Y-180413D01*
X394614D01*
X397153Y-182952D01*
Y-185491D01*
X386997D01*
X402232Y-180413D02*
Y-190570D01*
Y-185491D01*
X404771Y-182952D01*
X407310Y-180413D01*
X409849D01*
X417467Y-190570D02*
X422545D01*
X420006D01*
Y-175334D01*
X417467D01*
X432702Y-180413D02*
X437780D01*
X440319Y-182952D01*
Y-190570D01*
X432702D01*
X430163Y-188030D01*
X432702Y-185491D01*
X440319D01*
X445398Y-180413D02*
Y-188030D01*
X447937Y-190570D01*
X455554D01*
Y-193109D01*
X453015Y-195648D01*
X450476D01*
X455554Y-190570D02*
Y-180413D01*
X254959Y144710D02*
Y159945D01*
X265116Y144710D01*
Y159945D01*
X272734Y154867D02*
X277812D01*
X280351Y152328D01*
Y144710D01*
X272734D01*
X270194Y147250D01*
X272734Y149789D01*
X280351D01*
X285429Y144710D02*
Y154867D01*
X287969D01*
X290508Y152328D01*
Y144710D01*
Y152328D01*
X293047Y154867D01*
X295586Y152328D01*
Y144710D01*
X308282D02*
X303204D01*
X300665Y147250D01*
Y152328D01*
X303204Y154867D01*
X308282D01*
X310821Y152328D01*
Y149789D01*
X300665D01*
X150842Y53270D02*
X155920D01*
X153381D01*
Y68506D01*
X150842Y65966D01*
X160998Y-7690D02*
X150842D01*
X160998Y2467D01*
Y5006D01*
X158459Y7545D01*
X153381D01*
X150842Y5006D01*
Y-55954D02*
X153381Y-53415D01*
X158459D01*
X160998Y-55954D01*
Y-58493D01*
X158459Y-61032D01*
X155920D01*
X158459D01*
X160998Y-63571D01*
Y-66110D01*
X158459Y-68650D01*
X153381D01*
X150842Y-66110D01*
X158459Y-129610D02*
Y-114375D01*
X150842Y-121992D01*
X160998D01*
X150842Y159945D02*
Y144710D01*
X160998D01*
X168616Y154867D02*
X173694D01*
X176233Y152328D01*
Y144710D01*
X168616D01*
X166077Y147250D01*
X168616Y149789D01*
X176233D01*
X181312Y154867D02*
Y147250D01*
X183851Y144710D01*
X191468D01*
Y142171D01*
X188929Y139632D01*
X186390D01*
X191468Y144710D02*
Y154867D01*
X204164Y144710D02*
X199086D01*
X196547Y147250D01*
Y152328D01*
X199086Y154867D01*
X204164D01*
X206703Y152328D01*
Y149789D01*
X196547D01*
X211782Y154867D02*
Y144710D01*
Y149789D01*
X214321Y152328D01*
X216860Y154867D01*
X219399D01*
D21*
X-101451Y427395D02*
G03*
X-126132Y402749I-17J-24664D01*
G01*
X-150801Y353366D02*
G03*
X-126120Y378012I17J24664D01*
G01*
X-380847Y353317D02*
G03*
X-405528Y328671I-17J-24664D01*
G01*
X-405511Y98689D02*
G03*
X-380865Y74008I24664J-17D01*
G01*
X-126184Y49292D02*
G03*
X-150830Y73973I-24664J17D01*
G01*
X-126219Y24681D02*
G03*
X-101573Y0I24664J-17D01*
G01*
X-101451Y427395D02*
X-37D01*
X0Y427358D01*
X-126097Y378103D02*
Y402784D01*
X-380847Y353317D02*
X-150882D01*
X-405528Y98692D02*
Y328671D01*
X0Y0D02*
Y427358D01*
X-380865Y74008D02*
X-150865D01*
X-154155Y73514D02*
X-154155Y73514D01*
X-126184Y24611D02*
Y49292D01*
X-101573Y0D02*
X0D01*
D58*
X-248743Y467108D02*
Y482343D01*
X-256360Y474726D01*
X-246204D01*
X-241126Y479804D02*
X-238586Y482343D01*
X-233508D01*
X-230969Y479804D01*
Y469648D01*
X-233508Y467108D01*
X-238586D01*
X-241126Y469648D01*
Y479804D01*
X-225890Y467108D02*
Y469648D01*
X-223351D01*
Y467108D01*
X-225890D01*
X-203038Y482343D02*
X-213195D01*
Y474726D01*
X-208116Y477265D01*
X-205577D01*
X-203038Y474726D01*
Y469648D01*
X-205577Y467108D01*
X-210655D01*
X-213195Y469648D01*
X-187803Y482343D02*
X-197959D01*
Y474726D01*
X-192881Y477265D01*
X-190342D01*
X-187803Y474726D01*
Y469648D01*
X-190342Y467108D01*
X-195420D01*
X-197959Y469648D01*
X-182724Y467108D02*
Y477265D01*
X-180185D01*
X-177646Y474726D01*
Y467108D01*
Y474726D01*
X-175107Y477265D01*
X-172568Y474726D01*
Y467108D01*
X-167489D02*
Y477265D01*
X-164950D01*
X-162411Y474726D01*
Y467108D01*
Y474726D01*
X-159872Y477265D01*
X-157333Y474726D01*
Y467108D01*
X118362Y167737D02*
X103126D01*
X110744Y160119D01*
Y170276D01*
X118362Y185511D02*
Y175355D01*
X108205Y185511D01*
X105666D01*
X103126Y182972D01*
Y177894D01*
X105666Y175355D01*
X118362Y190590D02*
X115822D01*
Y193129D01*
X118362D01*
Y190590D01*
X103126Y203286D02*
Y213442D01*
X105666D01*
X115822Y203286D01*
X118362D01*
Y226138D02*
X103126D01*
X110744Y218521D01*
Y228677D01*
X118362Y233756D02*
X108205D01*
Y236295D01*
X110744Y238834D01*
X118362D01*
X110744D01*
X108205Y241373D01*
X110744Y243912D01*
X118362D01*
Y248991D02*
X108205D01*
Y251530D01*
X110744Y254069D01*
X118362D01*
X110744D01*
X108205Y256608D01*
X110744Y259147D01*
X118362D01*
D59*
X1285918Y-198190D02*
Y167570D01*
X1001518Y106610D02*
X1285918D01*
X1001518Y76130D02*
X1285918D01*
X1001518Y45650D02*
X1285918D01*
X1001518Y15170D02*
X1285918D01*
X1001518Y-15310D02*
X1285918D01*
X1001518Y-45790D02*
X1285918D01*
X1001518Y-76270D02*
X1285918D01*
X1001518Y-106750D02*
X1285918D01*
X1001518Y-137230D02*
X1285918D01*
X1001518Y-167710D02*
X1285918D01*
X1001518Y-198190D02*
X1285918D01*
X1001518D02*
Y167570D01*
X856773Y106610D02*
X1001518D01*
X856773Y76130D02*
X1001518D01*
X856773Y45650D02*
X1001518D01*
X856773Y15170D02*
X1001518D01*
X856773Y-15310D02*
X1001518D01*
X856773Y-45790D02*
X1001518D01*
X856773Y-76270D02*
X1001518D01*
X856773Y-106750D02*
X1001518D01*
X856773Y-137230D02*
X1001518D01*
X856773Y-167710D02*
X1001518D01*
X856773Y-198190D02*
X1001518D01*
X856773D02*
Y167570D01*
X691715Y106610D02*
X856773D01*
X691715Y76130D02*
X856773D01*
X691715Y45650D02*
X856773D01*
X691715Y15170D02*
X856773D01*
X691715Y-15310D02*
X856773D01*
X691715Y-45790D02*
X856773D01*
X691715Y-76270D02*
X856773D01*
X691715Y-106750D02*
X856773D01*
X691715Y-137230D02*
X856773D01*
X691715Y-167710D02*
X856773D01*
X691715Y-198190D02*
X856773D01*
X691715D02*
Y167570D01*
X473334Y106610D02*
X691715D01*
X473334Y76130D02*
X691715D01*
X473334Y45650D02*
X691715D01*
X473334Y15170D02*
X691715D01*
X473334Y-15310D02*
X691715D01*
X473334Y-45790D02*
X691715D01*
X473334Y-76270D02*
X691715D01*
X473334Y-106750D02*
X691715D01*
X473334Y-137230D02*
X691715D01*
X473334Y-167710D02*
X691715D01*
X473334Y-198190D02*
X691715D01*
X473334D02*
Y167570D01*
X237179Y106610D02*
X473334D01*
X237179Y76130D02*
X473334D01*
X237179Y45650D02*
X473334D01*
X237179Y15170D02*
X473334D01*
X237179Y-15310D02*
X473334D01*
X237179Y-45790D02*
X473334D01*
X237179Y-76270D02*
X473334D01*
X237179Y-106750D02*
X473334D01*
X237179Y-137230D02*
X473334D01*
X237179Y-167710D02*
X473334D01*
X237179Y-198190D02*
X473334D01*
X237179D02*
Y167570D01*
X133062Y106610D02*
X237179D01*
X133062Y76130D02*
X237179D01*
X133062Y45650D02*
X237179D01*
X133062Y15170D02*
X237179D01*
X133062Y-15310D02*
X237179D01*
X133062Y-45790D02*
X237179D01*
X133062Y-76270D02*
X237179D01*
X133062Y-106750D02*
X237179D01*
X133062Y-137230D02*
X237179D01*
X133062Y-167710D02*
X237179D01*
X133062Y-198190D02*
X237179D01*
X133062D02*
Y167570D01*
X1285918D01*
X133062Y137090D02*
X1285918D01*
D60*
X1001518Y127011D02*
X1011598Y137090D01*
X1001518Y111771D02*
X1026838Y137090D01*
X1011598Y106610D02*
X1042078Y137090D01*
X1026838Y106610D02*
X1057318Y137090D01*
X1042078Y106610D02*
X1072558Y137090D01*
X1057318Y106610D02*
X1087798Y137090D01*
X1072558Y106610D02*
X1103038Y137090D01*
X1087798Y106610D02*
X1118278Y137090D01*
X1103038Y106610D02*
X1133518Y137090D01*
X1118278Y106610D02*
X1148758Y137090D01*
X1133518Y106610D02*
X1163998Y137090D01*
X1148758Y106610D02*
X1179238Y137090D01*
X1163998Y106610D02*
X1194478Y137090D01*
X1179238Y106610D02*
X1209718Y137090D01*
X1194478Y106610D02*
X1224958Y137090D01*
X1209718Y106610D02*
X1240198Y137090D01*
X1224958Y106610D02*
X1255438Y137090D01*
X1240198Y106610D02*
X1270678Y137090D01*
X1255438Y106610D02*
X1285918Y137090D01*
X1270678Y106610D02*
X1285918Y121850D01*
X1001518Y96531D02*
X1011598Y106610D01*
X1001518Y81291D02*
X1026838Y106610D01*
X1011598Y76130D02*
X1042078Y106610D01*
X1026838Y76130D02*
X1057318Y106610D01*
X1042078Y76130D02*
X1072558Y106610D01*
X1057318Y76130D02*
X1087798Y106610D01*
X1072558Y76130D02*
X1103038Y106610D01*
X1087798Y76130D02*
X1118278Y106610D01*
X1103038Y76130D02*
X1133518Y106610D01*
X1118278Y76130D02*
X1148758Y106610D01*
X1133518Y76130D02*
X1163998Y106610D01*
X1148758Y76130D02*
X1179238Y106610D01*
X1163998Y76130D02*
X1194478Y106610D01*
X1179238Y76130D02*
X1209718Y106610D01*
X1194478Y76130D02*
X1224958Y106610D01*
X1209718Y76130D02*
X1240198Y106610D01*
X1224958Y76130D02*
X1255438Y106610D01*
X1240198Y76130D02*
X1270678Y106610D01*
X1255438Y76130D02*
X1285918Y106610D01*
X1270678Y76130D02*
X1285918Y91370D01*
X1001518Y66051D02*
X1011598Y76130D01*
X1001518Y50811D02*
X1026838Y76130D01*
X1011598Y45650D02*
X1042078Y76130D01*
X1026838Y45650D02*
X1057318Y76130D01*
X1042078Y45650D02*
X1072558Y76130D01*
X1057318Y45650D02*
X1087798Y76130D01*
X1072558Y45650D02*
X1103038Y76130D01*
X1087798Y45650D02*
X1118278Y76130D01*
X1103038Y45650D02*
X1133518Y76130D01*
X1118278Y45650D02*
X1148758Y76130D01*
X1133518Y45650D02*
X1163998Y76130D01*
X1148758Y45650D02*
X1179238Y76130D01*
X1163998Y45650D02*
X1194478Y76130D01*
X1179238Y45650D02*
X1209718Y76130D01*
X1194478Y45650D02*
X1224958Y76130D01*
X1209718Y45650D02*
X1240198Y76130D01*
X1224958Y45650D02*
X1255438Y76130D01*
X1240198Y45650D02*
X1270678Y76130D01*
X1255438Y45650D02*
X1285918Y76130D01*
X1270678Y45650D02*
X1285918Y60890D01*
X1001518Y35571D02*
X1011598Y45650D01*
X1001518Y20331D02*
X1026838Y45650D01*
X1011598Y15170D02*
X1042078Y45650D01*
X1026838Y15170D02*
X1057318Y45650D01*
X1042078Y15170D02*
X1072558Y45650D01*
X1057318Y15170D02*
X1087798Y45650D01*
X1072558Y15170D02*
X1103038Y45650D01*
X1087798Y15170D02*
X1118278Y45650D01*
X1103038Y15170D02*
X1133518Y45650D01*
X1118278Y15170D02*
X1148758Y45650D01*
X1133518Y15170D02*
X1163998Y45650D01*
X1148758Y15170D02*
X1179238Y45650D01*
X1163998Y15170D02*
X1194478Y45650D01*
X1179238Y15170D02*
X1209718Y45650D01*
X1194478Y15170D02*
X1224958Y45650D01*
X1209718Y15170D02*
X1240198Y45650D01*
X1224958Y15170D02*
X1255438Y45650D01*
X1240198Y15170D02*
X1270678Y45650D01*
X1255438Y15170D02*
X1285918Y45650D01*
X1270678Y15170D02*
X1285918Y30410D01*
X1001518Y5091D02*
X1011598Y15170D01*
X1001518Y-10149D02*
X1026838Y15170D01*
X1011598Y-15310D02*
X1042078Y15170D01*
X1026838Y-15310D02*
X1057318Y15170D01*
X1042078Y-15310D02*
X1072558Y15170D01*
X1057318Y-15310D02*
X1087798Y15170D01*
X1072558Y-15310D02*
X1103038Y15170D01*
X1087798Y-15310D02*
X1118278Y15170D01*
X1103038Y-15310D02*
X1133518Y15170D01*
X1118278Y-15310D02*
X1148758Y15170D01*
X1133518Y-15310D02*
X1163998Y15170D01*
X1148758Y-15310D02*
X1179238Y15170D01*
X1163998Y-15310D02*
X1194478Y15170D01*
X1179238Y-15310D02*
X1209718Y15170D01*
X1194478Y-15310D02*
X1224958Y15170D01*
X1209718Y-15310D02*
X1240198Y15170D01*
X1224958Y-15310D02*
X1255438Y15170D01*
X1240198Y-15310D02*
X1270678Y15170D01*
X1255438Y-15310D02*
X1285918Y15170D01*
X1270678Y-15310D02*
X1285918Y-70D01*
X1001518Y-25389D02*
X1011598Y-15310D01*
X1001518Y-40629D02*
X1026838Y-15310D01*
X1011598Y-45790D02*
X1042078Y-15310D01*
X1026838Y-45790D02*
X1057318Y-15310D01*
X1042078Y-45790D02*
X1072558Y-15310D01*
X1057318Y-45790D02*
X1087798Y-15310D01*
X1072558Y-45790D02*
X1103038Y-15310D01*
X1087798Y-45790D02*
X1118278Y-15310D01*
X1103038Y-45790D02*
X1133518Y-15310D01*
X1118278Y-45790D02*
X1148758Y-15310D01*
X1133518Y-45790D02*
X1163998Y-15310D01*
X1148758Y-45790D02*
X1179238Y-15310D01*
X1163998Y-45790D02*
X1194478Y-15310D01*
X1179238Y-45790D02*
X1209718Y-15310D01*
X1194478Y-45790D02*
X1224958Y-15310D01*
X1209718Y-45790D02*
X1240198Y-15310D01*
X1224958Y-45790D02*
X1255438Y-15310D01*
X1240198Y-45790D02*
X1270678Y-15310D01*
X1255438Y-45790D02*
X1285918Y-15310D01*
X1270678Y-45790D02*
X1285918Y-30550D01*
X1001518Y-55869D02*
X1011598Y-45790D01*
X1001518Y-71109D02*
X1026838Y-45790D01*
X1011598Y-76270D02*
X1042078Y-45790D01*
X1026838Y-76270D02*
X1057318Y-45790D01*
X1042078Y-76270D02*
X1072558Y-45790D01*
X1057318Y-76270D02*
X1087798Y-45790D01*
X1072558Y-76270D02*
X1103038Y-45790D01*
X1087798Y-76270D02*
X1118278Y-45790D01*
X1103038Y-76270D02*
X1133518Y-45790D01*
X1118278Y-76270D02*
X1148758Y-45790D01*
X1133518Y-76270D02*
X1163998Y-45790D01*
X1148758Y-76270D02*
X1179238Y-45790D01*
X1163998Y-76270D02*
X1194478Y-45790D01*
X1179238Y-76270D02*
X1209718Y-45790D01*
X1194478Y-76270D02*
X1224958Y-45790D01*
X1209718Y-76270D02*
X1240198Y-45790D01*
X1224958Y-76270D02*
X1255438Y-45790D01*
X1240198Y-76270D02*
X1270678Y-45790D01*
X1255438Y-76270D02*
X1285918Y-45790D01*
X1270678Y-76270D02*
X1285918Y-61030D01*
X1001518Y-86349D02*
X1011598Y-76270D01*
X1001518Y-101589D02*
X1026838Y-76270D01*
X1011598Y-106750D02*
X1042078Y-76270D01*
X1026838Y-106750D02*
X1057318Y-76270D01*
X1042078Y-106750D02*
X1072558Y-76270D01*
X1057318Y-106750D02*
X1087798Y-76270D01*
X1072558Y-106750D02*
X1103038Y-76270D01*
X1087798Y-106750D02*
X1118278Y-76270D01*
X1103038Y-106750D02*
X1133518Y-76270D01*
X1118278Y-106750D02*
X1148758Y-76270D01*
X1133518Y-106750D02*
X1163998Y-76270D01*
X1148758Y-106750D02*
X1179238Y-76270D01*
X1163998Y-106750D02*
X1194478Y-76270D01*
X1179238Y-106750D02*
X1209718Y-76270D01*
X1194478Y-106750D02*
X1224958Y-76270D01*
X1209718Y-106750D02*
X1240198Y-76270D01*
X1224958Y-106750D02*
X1255438Y-76270D01*
X1240198Y-106750D02*
X1270678Y-76270D01*
X1255438Y-106750D02*
X1285918Y-76270D01*
X1270678Y-106750D02*
X1285918Y-91510D01*
X1001518Y-116829D02*
X1011598Y-106750D01*
X1001518Y-132069D02*
X1026838Y-106750D01*
X1011598Y-137230D02*
X1042078Y-106750D01*
X1026838Y-137230D02*
X1057318Y-106750D01*
X1042078Y-137230D02*
X1072558Y-106750D01*
X1057318Y-137230D02*
X1087798Y-106750D01*
X1072558Y-137230D02*
X1103038Y-106750D01*
X1087798Y-137230D02*
X1118278Y-106750D01*
X1103038Y-137230D02*
X1133518Y-106750D01*
X1118278Y-137230D02*
X1148758Y-106750D01*
X1133518Y-137230D02*
X1163998Y-106750D01*
X1148758Y-137230D02*
X1179238Y-106750D01*
X1163998Y-137230D02*
X1194478Y-106750D01*
X1179238Y-137230D02*
X1209718Y-106750D01*
X1194478Y-137230D02*
X1224958Y-106750D01*
X1209718Y-137230D02*
X1240198Y-106750D01*
X1224958Y-137230D02*
X1255438Y-106750D01*
X1240198Y-137230D02*
X1270678Y-106750D01*
X1255438Y-137230D02*
X1285918Y-106750D01*
X1270678Y-137230D02*
X1285918Y-121990D01*
X1001518Y-147309D02*
X1011598Y-137230D01*
X1001518Y-162549D02*
X1026838Y-137230D01*
X1011598Y-167710D02*
X1042078Y-137230D01*
X1026838Y-167710D02*
X1057318Y-137230D01*
X1042078Y-167710D02*
X1072558Y-137230D01*
X1057318Y-167710D02*
X1087798Y-137230D01*
X1072558Y-167710D02*
X1103038Y-137230D01*
X1087798Y-167710D02*
X1118278Y-137230D01*
X1103038Y-167710D02*
X1133518Y-137230D01*
X1118278Y-167710D02*
X1148758Y-137230D01*
X1133518Y-167710D02*
X1163998Y-137230D01*
X1148758Y-167710D02*
X1179238Y-137230D01*
X1163998Y-167710D02*
X1194478Y-137230D01*
X1179238Y-167710D02*
X1209718Y-137230D01*
X1194478Y-167710D02*
X1224958Y-137230D01*
X1209718Y-167710D02*
X1240198Y-137230D01*
X1224958Y-167710D02*
X1255438Y-137230D01*
X1240198Y-167710D02*
X1270678Y-137230D01*
X1255438Y-167710D02*
X1285918Y-137230D01*
X1270678Y-167710D02*
X1285918Y-152470D01*
X1001518Y-177789D02*
X1011598Y-167710D01*
X1001518Y-193029D02*
X1026838Y-167710D01*
X1011598Y-198190D02*
X1042078Y-167710D01*
X1026838Y-198190D02*
X1057318Y-167710D01*
X1042078Y-198190D02*
X1072558Y-167710D01*
X1057318Y-198190D02*
X1087798Y-167710D01*
X1072558Y-198190D02*
X1103038Y-167710D01*
X1087798Y-198190D02*
X1118278Y-167710D01*
X1103038Y-198190D02*
X1133518Y-167710D01*
X1118278Y-198190D02*
X1148758Y-167710D01*
X1133518Y-198190D02*
X1163998Y-167710D01*
X1148758Y-198190D02*
X1179238Y-167710D01*
X1163998Y-198190D02*
X1194478Y-167710D01*
X1179238Y-198190D02*
X1209718Y-167710D01*
X1194478Y-198190D02*
X1224958Y-167710D01*
X1209718Y-198190D02*
X1240198Y-167710D01*
X1224958Y-198190D02*
X1255438Y-167710D01*
X1240198Y-198190D02*
X1270678Y-167710D01*
X1255438Y-198190D02*
X1285918Y-167710D01*
X1270678Y-198190D02*
X1285918Y-182950D01*
M02*
