G04*
G04 #@! TF.GenerationSoftware,Altium Limited,Altium Designer,23.8.1 (32)*
G04*
G04 Layer_Color=8388736*
%FSLAX44Y44*%
%MOMM*%
G71*
G04*
G04 #@! TF.SameCoordinates,DF38465C-164B-46F8-8289-0D746A6B0DDA*
G04*
G04*
G04 #@! TF.FilePolarity,Negative*
G04*
G01*
G75*
%ADD16R,0.6508X2.0508*%
%ADD17R,2.0508X0.6508*%
%ADD18R,1.4208X1.4208*%
%ADD19C,1.4208*%
D16*
X-329347Y296221D02*
D03*
X-316647D02*
D03*
X-303947D02*
D03*
X-291247D02*
D03*
X-278547D02*
D03*
X-265847D02*
D03*
X-253147D02*
D03*
X-240447D02*
D03*
X-227747D02*
D03*
X-215047D02*
D03*
X-202347D02*
D03*
Y131121D02*
D03*
X-215047D02*
D03*
X-227747D02*
D03*
X-240447D02*
D03*
X-253147D02*
D03*
X-265847D02*
D03*
X-278547D02*
D03*
X-291247D02*
D03*
X-316647D02*
D03*
X-329347D02*
D03*
X-303947D02*
D03*
D17*
X-348397Y150171D02*
D03*
Y162871D02*
D03*
Y175571D02*
D03*
Y188271D02*
D03*
Y200971D02*
D03*
Y213671D02*
D03*
Y226371D02*
D03*
Y239071D02*
D03*
Y251771D02*
D03*
Y264471D02*
D03*
Y277171D02*
D03*
X-183297Y150171D02*
D03*
Y277171D02*
D03*
Y264471D02*
D03*
Y251771D02*
D03*
Y239071D02*
D03*
Y226371D02*
D03*
Y213671D02*
D03*
Y200971D02*
D03*
Y188271D02*
D03*
Y175571D02*
D03*
Y162871D02*
D03*
D18*
X-49870Y265855D02*
D03*
X-49475Y37558D02*
D03*
D19*
X-75270Y265855D02*
D03*
X-49870Y291255D02*
D03*
X-75270D02*
D03*
X-49870Y316655D02*
D03*
X-75270D02*
D03*
X-49870Y342055D02*
D03*
X-75270D02*
D03*
X-49870Y367455D02*
D03*
X-75270D02*
D03*
X-49870Y392855D02*
D03*
X-75270D02*
D03*
X-74875Y37558D02*
D03*
X-49475Y62958D02*
D03*
X-74875D02*
D03*
X-49475Y88358D02*
D03*
X-74875D02*
D03*
X-49475Y113758D02*
D03*
X-74875D02*
D03*
X-49475Y139158D02*
D03*
X-74875D02*
D03*
X-49475Y164558D02*
D03*
X-74875D02*
D03*
M02*
