G04*
G04 #@! TF.GenerationSoftware,Altium Limited,Altium Designer,23.8.1 (32)*
G04*
G04 Layer_Color=8421504*
%FSLAX44Y44*%
%MOMM*%
G71*
G04*
G04 #@! TF.SameCoordinates,DF38465C-164B-46F8-8289-0D746A6B0DDA*
G04*
G04*
G04 #@! TF.FilePolarity,Positive*
G04*
G01*
G75*
%ADD14R,0.6000X2.0000*%
%ADD15R,2.0000X0.6000*%
D14*
X-329347Y296221D02*
D03*
X-316647D02*
D03*
X-303947D02*
D03*
X-291247D02*
D03*
X-278547D02*
D03*
X-265847D02*
D03*
X-253147D02*
D03*
X-240447D02*
D03*
X-227747D02*
D03*
X-215047D02*
D03*
X-202347D02*
D03*
Y131121D02*
D03*
X-215047D02*
D03*
X-227747D02*
D03*
X-240447D02*
D03*
X-253147D02*
D03*
X-265847D02*
D03*
X-278547D02*
D03*
X-291247D02*
D03*
X-316647D02*
D03*
X-329347D02*
D03*
X-303947D02*
D03*
D15*
X-348397Y150171D02*
D03*
Y162871D02*
D03*
Y175571D02*
D03*
Y188271D02*
D03*
Y200971D02*
D03*
Y213671D02*
D03*
Y226371D02*
D03*
Y239071D02*
D03*
Y251771D02*
D03*
Y264471D02*
D03*
Y277171D02*
D03*
X-183297Y150171D02*
D03*
Y277171D02*
D03*
Y264471D02*
D03*
Y251771D02*
D03*
Y239071D02*
D03*
Y226371D02*
D03*
Y213671D02*
D03*
Y200971D02*
D03*
Y188271D02*
D03*
Y175571D02*
D03*
Y162871D02*
D03*
M02*
