G04*
G04 #@! TF.GenerationSoftware,Altium Limited,Altium Designer,23.8.1 (32)*
G04*
G04 Layer_Color=65535*
%FSLAX44Y44*%
%MOMM*%
G71*
G04*
G04 #@! TF.SameCoordinates,DF38465C-164B-46F8-8289-0D746A6B0DDA*
G04*
G04*
G04 #@! TF.FilePolarity,Positive*
G04*
G01*
G75*
%ADD10C,0.2000*%
%ADD11C,0.1000*%
%ADD12C,0.2500*%
%ADD13C,0.2540*%
D10*
X-48870Y246655D02*
G03*
X-48870Y246655I-1000J0D01*
G01*
X-48475Y18358D02*
G03*
X-48475Y18358I-1000J0D01*
G01*
X-34870Y253155D02*
X-9470D01*
X-34870Y405555D02*
X-9470D01*
X-34870Y253155D02*
Y405555D01*
X-9470Y253155D02*
Y405555D01*
X-34475Y24858D02*
X-9075D01*
X-34475Y177258D02*
X-9075D01*
X-34475Y24858D02*
Y177258D01*
X-9075Y24858D02*
Y177258D01*
D11*
X-328807Y281631D02*
G03*
X-328807Y281631I-5000J0D01*
G01*
D12*
X-357307Y293681D02*
G03*
X-357307Y293681I-1250J0D01*
G01*
D13*
X-348397Y285321D02*
G03*
X-337497Y296221I0J10900D01*
G01*
Y131121D02*
G03*
X-348397Y142021I-10900J-0D01*
G01*
X-183297Y142021D02*
G03*
X-194197Y131121I0J-10900D01*
G01*
Y296221D02*
G03*
X-183297Y285321I10900J0D01*
G01*
X-348397Y213671D02*
Y285321D01*
Y142021D02*
Y213671D01*
X-337497Y131121D02*
X-265847D01*
X-194197D01*
X-183297Y142021D02*
Y213671D01*
Y285321D01*
X-265847Y296221D02*
X-194197D01*
X-337497D02*
X-265847D01*
X-348397Y142021D02*
Y213671D01*
M02*
