G04*
G04 #@! TF.GenerationSoftware,Altium Limited,Altium Designer,23.8.1 (32)*
G04*
G04 Layer_Color=255*
%FSLAX44Y44*%
%MOMM*%
G71*
G04*
G04 #@! TF.SameCoordinates,DF38465C-164B-46F8-8289-0D746A6B0DDA*
G04*
G04*
G04 #@! TF.FilePolarity,Positive*
G04*
G01*
G75*
%ADD24R,1.3700X1.3700*%
%ADD25C,1.3700*%
%ADD26C,3.0000*%
G04:AMPARAMS|DCode=28|XSize=0.5mm|YSize=0.5mm|CornerRadius=0.125mm|HoleSize=0mm|Usage=FLASHONLY|Rotation=90.000|XOffset=0mm|YOffset=0mm|HoleType=Round|Shape=RoundedRectangle|*
%AMROUNDEDRECTD28*
21,1,0.5000,0.2500,0,0,90.0*
21,1,0.2500,0.5000,0,0,90.0*
1,1,0.2500,0.1250,0.1250*
1,1,0.2500,0.1250,-0.1250*
1,1,0.2500,-0.1250,-0.1250*
1,1,0.2500,-0.1250,0.1250*
%
%ADD28ROUNDEDRECTD28*%
G04:AMPARAMS|DCode=29|XSize=1.23mm|YSize=0.6mm|CornerRadius=0.075mm|HoleSize=0mm|Usage=FLASHONLY|Rotation=180.000|XOffset=0mm|YOffset=0mm|HoleType=Round|Shape=RoundedRectangle|*
%AMROUNDEDRECTD29*
21,1,1.2300,0.4500,0,0,180.0*
21,1,1.0800,0.6000,0,0,180.0*
1,1,0.1500,-0.5400,0.2250*
1,1,0.1500,0.5400,0.2250*
1,1,0.1500,0.5400,-0.2250*
1,1,0.1500,-0.5400,-0.2250*
%
%ADD29ROUNDEDRECTD29*%
G04:AMPARAMS|DCode=30|XSize=0.5mm|YSize=0.5mm|CornerRadius=0.125mm|HoleSize=0mm|Usage=FLASHONLY|Rotation=0.000|XOffset=0mm|YOffset=0mm|HoleType=Round|Shape=RoundedRectangle|*
%AMROUNDEDRECTD30*
21,1,0.5000,0.2500,0,0,0.0*
21,1,0.2500,0.5000,0,0,0.0*
1,1,0.2500,0.1250,-0.1250*
1,1,0.2500,-0.1250,-0.1250*
1,1,0.2500,-0.1250,0.1250*
1,1,0.2500,0.1250,0.1250*
%
%ADD30ROUNDEDRECTD30*%
%ADD31C,0.2500*%
%ADD32R,0.5300X0.5500*%
%ADD33R,1.0000X1.4000*%
%ADD34R,0.2400X0.9000*%
%ADD35R,0.9000X0.2400*%
%ADD36R,1.7000X1.1000*%
%ADD37R,0.3500X0.6000*%
G04:AMPARAMS|DCode=38|XSize=0.762mm|YSize=0.762mm|CornerRadius=0.1905mm|HoleSize=0mm|Usage=FLASHONLY|Rotation=0.000|XOffset=0mm|YOffset=0mm|HoleType=Round|Shape=RoundedRectangle|*
%AMROUNDEDRECTD38*
21,1,0.7620,0.3810,0,0,0.0*
21,1,0.3810,0.7620,0,0,0.0*
1,1,0.3810,0.1905,-0.1905*
1,1,0.3810,-0.1905,-0.1905*
1,1,0.3810,-0.1905,0.1905*
1,1,0.3810,0.1905,0.1905*
%
%ADD38ROUNDEDRECTD38*%
G04:AMPARAMS|DCode=39|XSize=0.762mm|YSize=0.762mm|CornerRadius=0.1905mm|HoleSize=0mm|Usage=FLASHONLY|Rotation=90.000|XOffset=0mm|YOffset=0mm|HoleType=Round|Shape=RoundedRectangle|*
%AMROUNDEDRECTD39*
21,1,0.7620,0.3810,0,0,90.0*
21,1,0.3810,0.7620,0,0,90.0*
1,1,0.3810,0.1905,0.1905*
1,1,0.3810,0.1905,-0.1905*
1,1,0.3810,-0.1905,-0.1905*
1,1,0.3810,-0.1905,0.1905*
%
%ADD39ROUNDEDRECTD39*%
%ADD40R,1.1000X1.7000*%
%ADD41R,0.6000X0.3500*%
G04:AMPARAMS|DCode=42|XSize=1.27mm|YSize=1.14mm|CornerRadius=0.285mm|HoleSize=0mm|Usage=FLASHONLY|Rotation=180.000|XOffset=0mm|YOffset=0mm|HoleType=Round|Shape=RoundedRectangle|*
%AMROUNDEDRECTD42*
21,1,1.2700,0.5700,0,0,180.0*
21,1,0.7000,1.1400,0,0,180.0*
1,1,0.5700,-0.3500,0.2850*
1,1,0.5700,0.3500,0.2850*
1,1,0.5700,0.3500,-0.2850*
1,1,0.5700,-0.3500,-0.2850*
%
%ADD42ROUNDEDRECTD42*%
D24*
X-49870Y265855D02*
D03*
X-49475Y37558D02*
D03*
D25*
X-75270Y265855D02*
D03*
X-49870Y291255D02*
D03*
X-75270D02*
D03*
X-49870Y316655D02*
D03*
X-75270D02*
D03*
X-49870Y342055D02*
D03*
X-75270D02*
D03*
X-49870Y367455D02*
D03*
X-75270D02*
D03*
X-49870Y392855D02*
D03*
X-75270D02*
D03*
X-74875Y37558D02*
D03*
X-49475Y62958D02*
D03*
X-74875D02*
D03*
X-49475Y88358D02*
D03*
X-74875D02*
D03*
X-49475Y113758D02*
D03*
X-74875D02*
D03*
X-49475Y139158D02*
D03*
X-74875D02*
D03*
X-49475Y164558D02*
D03*
X-74875D02*
D03*
D26*
X-380847Y328671D02*
D03*
X-150847D02*
D03*
Y98671D02*
D03*
X-380847D02*
D03*
D28*
X-242584Y170484D02*
D03*
Y160484D02*
D03*
X-232000Y170484D02*
D03*
Y160484D02*
D03*
X-266129Y230917D02*
D03*
Y220917D02*
D03*
X-237078Y254822D02*
D03*
Y244822D02*
D03*
X-227832Y254822D02*
D03*
Y244822D02*
D03*
X-181435Y170484D02*
D03*
Y160484D02*
D03*
X-310378Y145670D02*
D03*
Y155670D02*
D03*
X-318385Y172995D02*
D03*
Y162995D02*
D03*
X-300947Y155671D02*
D03*
Y145671D02*
D03*
X-292867Y170484D02*
D03*
Y160484D02*
D03*
X-318385Y196781D02*
D03*
Y186781D02*
D03*
X-329723Y235255D02*
D03*
Y225255D02*
D03*
X-311197Y243315D02*
D03*
Y233315D02*
D03*
X-319286Y278937D02*
D03*
Y268937D02*
D03*
X-311666Y278937D02*
D03*
Y268937D02*
D03*
X-311197Y260686D02*
D03*
Y250686D02*
D03*
X-227832Y278937D02*
D03*
Y268937D02*
D03*
D29*
X-197633Y150120D02*
D03*
X-218833Y159620D02*
D03*
X-197633Y169120D02*
D03*
X-258500Y151484D02*
D03*
X-279700Y160984D02*
D03*
X-258500Y170484D02*
D03*
D30*
X-248392Y214552D02*
D03*
X-258392D02*
D03*
X-209553Y244822D02*
D03*
X-219553D02*
D03*
X-144677Y236180D02*
D03*
X-154677D02*
D03*
X-137078D02*
D03*
X-127078D02*
D03*
X-181435Y260271D02*
D03*
X-191435D02*
D03*
X-181435Y267891D02*
D03*
X-191435D02*
D03*
X-145222Y151722D02*
D03*
X-155222D02*
D03*
X-137078D02*
D03*
X-127078D02*
D03*
X-330739Y145671D02*
D03*
X-320739D02*
D03*
X-330739Y154429D02*
D03*
X-320739D02*
D03*
X-330739Y255631D02*
D03*
X-320739D02*
D03*
X-330739Y247907D02*
D03*
X-320739D02*
D03*
D31*
X-256838Y224127D02*
D03*
X-252838D02*
D03*
X-256838Y228127D02*
D03*
X-252838D02*
D03*
X-256838Y232127D02*
D03*
X-252838D02*
D03*
D32*
X-242866Y222355D02*
D03*
Y230735D02*
D03*
D33*
X-140878Y261691D02*
D03*
Y177234D02*
D03*
D34*
X-138378Y246191D02*
D03*
Y277191D02*
D03*
X-143378D02*
D03*
Y246191D02*
D03*
X-138378Y161734D02*
D03*
Y192734D02*
D03*
X-143378D02*
D03*
Y161734D02*
D03*
D35*
X-127878Y251691D02*
D03*
Y256691D02*
D03*
Y261691D02*
D03*
Y266691D02*
D03*
Y271691D02*
D03*
X-153877D02*
D03*
Y266691D02*
D03*
Y261691D02*
D03*
Y256691D02*
D03*
Y251691D02*
D03*
X-127878Y167234D02*
D03*
Y172234D02*
D03*
Y177234D02*
D03*
Y182234D02*
D03*
Y187234D02*
D03*
X-153877D02*
D03*
Y182234D02*
D03*
Y177234D02*
D03*
Y172234D02*
D03*
Y167234D02*
D03*
D36*
X-212790Y267937D02*
D03*
D37*
X-206290Y278437D02*
D03*
X-212790D02*
D03*
X-219290D02*
D03*
Y257437D02*
D03*
X-212790D02*
D03*
X-206290D02*
D03*
D38*
X-195508Y250706D02*
D03*
X-182169D02*
D03*
X-329429Y214713D02*
D03*
X-316089D02*
D03*
X-196085Y277627D02*
D03*
X-182745D02*
D03*
D39*
X-34235Y379818D02*
D03*
Y393158D02*
D03*
Y151218D02*
D03*
Y164558D02*
D03*
X-329429Y164051D02*
D03*
Y177391D02*
D03*
Y188091D02*
D03*
Y201431D02*
D03*
X-297783Y214713D02*
D03*
Y228053D02*
D03*
X-285151Y214713D02*
D03*
Y228053D02*
D03*
X-268220Y246132D02*
D03*
Y259472D02*
D03*
X-329429Y277627D02*
D03*
Y264287D02*
D03*
X-301593D02*
D03*
Y277627D02*
D03*
D40*
X-290953Y244065D02*
D03*
D41*
X-280453Y237565D02*
D03*
Y244065D02*
D03*
Y250565D02*
D03*
X-301453D02*
D03*
Y244065D02*
D03*
Y237565D02*
D03*
D42*
X-249150Y248022D02*
D03*
Y265062D02*
D03*
M02*
